{
copyright = "Copyright (c) 2013 by Alessio Laiso (alessio.laiso@gmail.com). Licensed under the SIL Open Font License, Version 1.2.2";
customParameters = (
{
name = license;

glyphs = (
{
glyphname = .notdef;
layers = (
{
layerId = "3F211455-7DB7-4737-9D97-BF0B219628E9";
name = Light;
paths = (
{
closed = 1;
nodes = (
"202 546 LINE",
"204 542 OFFCURVE",
"207 541 OFFCURVE",
"212 541 CURVE SMOOTH",
"214 541 OFFCURVE",
"219 543 OFFCURVE",
"223 547 CURVE SMOOTH",
"227 551 OFFCURVE",
"233 555 OFFCURVE",
"241 560 CURVE SMOOTH",
"249 565 OFFCURVE",
"258 569 OFFCURVE",
"269 573 CURVE SMOOTH",
"280 577 OFFCURVE",
"293 578 OFFCURVE",
"308 578 CURVE SMOOTH",
"320 578 OFFCURVE",
"331 577 OFFCURVE",
"342 573 CURVE SMOOTH",
"352 569 OFFCURVE",
"361 564 OFFCURVE",
"369 558 CURVE SMOOTH",
"377 552 OFFCURVE",
"383 543 OFFCURVE",
"388 534 CURVE SMOOTH",
"393 525 OFFCURVE",
"395 514 OFFCURVE",
"395 502 CURVE SMOOTH",
"395 486 OFFCURVE",
"393 473 OFFCURVE",
"387 462 CURVE SMOOTH",
"381 451 OFFCURVE",
"374 441 OFFCURVE",
"366 432 CURVE SMOOTH",
"358 423 OFFCURVE",
"348 416 OFFCURVE",
"338 409 CURVE SMOOTH",
"328 402 OFFCURVE",
"319 395 OFFCURVE",
"311 388 CURVE SMOOTH",
"303 381 OFFCURVE",
"296 373 OFFCURVE",
"291 365 CURVE SMOOTH",
"286 357 OFFCURVE",
"283 348 OFFCURVE",
"284 338 CURVE",
"287 277 LINE",
"320 277 LINE",
"324 334 LINE",
"325 342 OFFCURVE",
"329 350 OFFCURVE",
"335 356 CURVE SMOOTH",
"341 362 OFFCURVE",
"349 369 OFFCURVE",
"357 376 CURVE SMOOTH",
"365 383 OFFCURVE",
"374 389 OFFCURVE",
"384 397 CURVE SMOOTH",
"394 405 OFFCURVE",
"403 413 OFFCURVE",
"411 423 CURVE SMOOTH",
"419 433 OFFCURVE",
"425 445 OFFCURVE",
"431 458 CURVE SMOOTH",
"437 471 OFFCURVE",
"440 487 OFFCURVE",
"440 505 CURVE SMOOTH",
"440 522 OFFCURVE",
"436 538 OFFCURVE",
"430 552 CURVE SMOOTH",
"424 566 OFFCURVE",
"415 577 OFFCURVE",
"403 587 CURVE SMOOTH",
"391 597 OFFCURVE",
"378 605 OFFCURVE",
"362 610 CURVE SMOOTH",
"346 615 OFFCURVE",
"330 618 OFFCURVE",
"312 618 CURVE SMOOTH",
"298 618 OFFCURVE",
"285 616 OFFCURVE",
"273 613 CURVE SMOOTH",
"261 610 OFFCURVE",
"250 607 OFFCURVE",
"240 602 CURVE SMOOTH",
"230 597 OFFCURVE",
"221 592 OFFCURVE",
"213 586 CURVE SMOOTH",
"205 580 OFFCURVE",
"197 574 OFFCURVE",
"190 567 CURVE"
);
},
{
closed = 1;
nodes = (
"264 122 OFFCURVE",
"267 113 OFFCURVE",
"274 105 CURVE SMOOTH",
"281 97 OFFCURVE",
"291 94 OFFCURVE",
"302 94 CURVE SMOOTH",
"313 94 OFFCURVE",
"322 97 OFFCURVE",
"329 105 CURVE SMOOTH",
"336 113 OFFCURVE",
"340 122 OFFCURVE",
"340 133 CURVE SMOOTH",
"340 144 OFFCURVE",
"336 152 OFFCURVE",
"329 160 CURVE SMOOTH",
"322 168 OFFCURVE",
"313 172 OFFCURVE",
"302 172 CURVE SMOOTH",
"291 172 OFFCURVE",
"281 168 OFFCURVE",
"274 160 CURVE SMOOTH",
"267 152 OFFCURVE",
"264 144 OFFCURVE",
"264 133 CURVE SMOOTH"
);
},
{
closed = 1;
nodes = (
"82 708 LINE",
"82 0 LINE",
"548 0 LINE",
"548 708 LINE"
);
},
{
closed = 1;
nodes = (
"100 18 LINE",
"100 690 LINE",
"529 690 LINE",
"529 18 LINE"
);
}
);
width = 630;
}
);
note = .notdef;
},
{
glyphname = exclam;
layers = (
{
layerId = "3F211455-7DB7-4737-9D97-BF0B219628E9";
name = Light;
paths = (
{
closed = 1;
nodes = (
"130 708 LINE",
"84 708 LINE",
"84 422 LINE",
"84 379 LINE SMOOTH",
"84 366 OFFCURVE",
"84 352 OFFCURVE",
"85 338 CURVE",
"85 324 OFFCURVE",
"87 309 OFFCURVE",
"88 294 CURVE SMOOTH",
"89 279 OFFCURVE",
"89 263 OFFCURVE",
"90 244 CURVE",
"123 244 LINE",
"124 263 OFFCURVE",
"125 279 OFFCURVE",
"126 294 CURVE SMOOTH",
"127 309 OFFCURVE",
"128 324 OFFCURVE",
"128 338 CURVE SMOOTH",
"128 352 OFFCURVE",
"130 366 OFFCURVE",
"130 379 CURVE SMOOTH",
"130 422 LINE"
);
},
{
closed = 1;
nodes = (
"59 26 OFFCURVE",
"63 15 OFFCURVE",
"72 6 CURVE SMOOTH",
"81 -3 OFFCURVE",
"92 -7 OFFCURVE",
"105 -7 CURVE SMOOTH",
"111 -7 OFFCURVE",
"117 -6 OFFCURVE",
"123 -4 CURVE SMOOTH",
"129 -2 OFFCURVE",
"134 2 OFFCURVE",
"138 6 CURVE SMOOTH",
"142 10 OFFCURVE",
"146 14 OFFCURVE",
"148 20 CURVE SMOOTH",
"150 26 OFFCURVE",
"152 32 OFFCURVE",
"152 39 CURVE SMOOTH",
"152 45 OFFCURVE",
"150 51 OFFCURVE",
"148 57 CURVE SMOOTH",
"146 63 OFFCURVE",
"142 67 OFFCURVE",
"138 71 CURVE SMOOTH",
"134 75 OFFCURVE",
"129 79 OFFCURVE",
"123 81 CURVE SMOOTH",
"117 83 OFFCURVE",
"111 85 OFFCURVE",
"105 85 CURVE SMOOTH",
"98 85 OFFCURVE",
"93 83 OFFCURVE",
"87 81 CURVE SMOOTH",
"81 79 OFFCURVE",
"76 75 OFFCURVE",
"72 71 CURVE SMOOTH",
"68 67 OFFCURVE",
"64 63 OFFCURVE",
"62 57 CURVE SMOOTH",
"60 51 OFFCURVE",
"59 45 OFFCURVE",
"59 39 CURVE SMOOTH"
);
}
);
width = 213;
}
);
note = exclam;
unicode = 0021;
},
{
glyphname = quotedbl;
layers = (
{
layerId = "3F211455-7DB7-4737-9D97-BF0B219628E9";
name = Light;
paths = (
{
closed = 1;
nodes = (
"112 708 LINE",
"70 708 LINE",
"70 562 LINE",
"75 485 LINE",
"76 479 OFFCURVE",
"77 475 OFFCURVE",
"80 472 CURVE SMOOTH",
"83 469 OFFCURVE",
"86 467 OFFCURVE",
"91 467 CURVE SMOOTH",
"97 467 OFFCURVE",
"101 469 OFFCURVE",
"103 472 CURVE SMOOTH",
"105 475 OFFCURVE",
"107 479 OFFCURVE",
"108 485 CURVE",
"112 562 LINE"
);
},
{
closed = 1;
nodes = (
"257 708 LINE",
"216 708 LINE",
"216 562 LINE",
"220 485 LINE",
"221 479 OFFCURVE",
"222 475 OFFCURVE",
"225 472 CURVE SMOOTH",
"228 469 OFFCURVE",
"231 467 OFFCURVE",
"236 467 CURVE SMOOTH",
"242 467 OFFCURVE",
"246 469 OFFCURVE",
"248 472 CURVE SMOOTH",
"250 475 OFFCURVE",
"251 479 OFFCURVE",
"252 485 CURVE",
"257 562 LINE"
);
}
);
width = 327;
}
);
note = quotedbl;
unicode = 0022;
},
{
glyphname = numbersign;
layers = (
{
layerId = "3F211455-7DB7-4737-9D97-BF0B219628E9";
name = Light;
paths = (
{
closed = 1;
nodes = (
"367 222 LINE",
"498 222 LINE",
"500 244 LINE",
"500 253 OFFCURVE",
"494 256 OFFCURVE",
"484 256 CURVE SMOOTH",
"372 256 LINE",
"413 451 LINE",
"505 451 LINE SMOOTH",
"518 451 OFFCURVE",
"526 457 OFFCURVE",
"528 468 CURVE",
"530 486 LINE",
"418 486 LINE",
"462 686 LINE",
"462 692 LINE SMOOTH",
"462 702 OFFCURVE",
"456 708 OFFCURVE",
"446 708 CURVE SMOOTH",
"426 708 LINE",
"378 486 LINE",
"229 486 LINE",
"276 708 LINE",
"256 708 LINE SMOOTH",
"250 708 OFFCURVE",
"245 706 OFFCURVE",
"241 703 CURVE SMOOTH",
"237 700 OFFCURVE",
"233 694 OFFCURVE",
"232 688 CURVE",
"189 486 LINE",
"82 486 LINE SMOOTH",
"69 486 OFFCURVE",
"61 481 OFFCURVE",
"60 470 CURVE SMOOTH",
"58 451 LINE",
"184 451 LINE",
"143 256 LINE",
"34 256 LINE",
"32 248 LINE",
"31 245 OFFCURVE",
"32 243 OFFCURVE",
"32 241 CURVE SMOOTH",
"32 236 LINE SMOOTH",
"32 230 OFFCURVE",
"33 227 OFFCURVE",
"36 225 CURVE SMOOTH",
"39 223 OFFCURVE",
"41 222 OFFCURVE",
"46 222 CURVE SMOOTH",
"138 222 LINE",
"91 0 LINE",
"112 0 LINE SMOOTH",
"118 0 OFFCURVE",
"122 1 OFFCURVE",
"126 4 CURVE SMOOTH",
"130 7 OFFCURVE",
"133 13 OFFCURVE",
"135 20 CURVE",
"178 222 LINE",
"327 222 LINE",
"284 22 LINE",
"284 16 LINE SMOOTH",
"284 11 OFFCURVE",
"285 7 OFFCURVE",
"288 4 CURVE SMOOTH",
"291 1 OFFCURVE",
"295 0 OFFCURVE",
"300 0 CURVE SMOOTH",
"320 0 LINE"
);
},
{
closed = 1;
nodes = (
"183 256 LINE",
"224 451 LINE",
"373 451 LINE",
"332 256 LINE"
);
}
);
width = 560;
}
);
note = numbersign;
unicode = 0023;
},
{
glyphname = dollar;
layers = (
{
layerId = "3F211455-7DB7-4737-9D97-BF0B219628E9";
name = Light;
paths = (
{
closed = 1;
nodes = (
"215 -128 LINE",
"233 -128 LINE SMOOTH",
"237 -128 OFFCURVE",
"242 -127 OFFCURVE",
"244 -124 CURVE SMOOTH",
"246 -121 OFFCURVE",
"248 -117 OFFCURVE",
"248 -113 CURVE",
"253 -8 LINE",
"287 -6 OFFCURVE",
"318 0 OFFCURVE",
"344 12 CURVE SMOOTH",
"370 24 OFFCURVE",
"393 40 OFFCURVE",
"411 59 CURVE SMOOTH",
"429 78 OFFCURVE",
"443 100 OFFCURVE",
"453 125 CURVE SMOOTH",
"463 150 OFFCURVE",
"467 177 OFFCURVE",
"467 206 CURVE SMOOTH",
"467 226 OFFCURVE",
"465 244 OFFCURVE",
"460 259 CURVE SMOOTH",
"455 274 OFFCURVE",
"447 288 OFFCURVE",
"438 300 CURVE SMOOTH",
"429 312 OFFCURVE",
"418 321 OFFCURVE",
"406 330 CURVE SMOOTH",
"394 339 OFFCURVE",
"380 346 OFFCURVE",
"366 353 CURVE SMOOTH",
"352 360 OFFCURVE",
"336 366 OFFCURVE",
"320 371 CURVE SMOOTH",
"304 376 OFFCURVE",
"289 382 OFFCURVE",
"273 387 CURVE",
"287 673 LINE",
"309 671 OFFCURVE",
"327 667 OFFCURVE",
"343 661 CURVE SMOOTH",
"359 655 OFFCURVE",
"372 649 OFFCURVE",
"382 642 CURVE SMOOTH",
"392 635 OFFCURVE",
"402 630 OFFCURVE",
"408 624 CURVE SMOOTH",
"414 618 OFFCURVE",
"419 615 OFFCURVE",
"423 615 CURVE SMOOTH",
"428 615 OFFCURVE",
"433 618 OFFCURVE",
"436 624 CURVE",
"447 641 LINE",
"426 662 OFFCURVE",
"403 679 OFFCURVE",
"378 691 CURVE SMOOTH",
"353 703 OFFCURVE",
"323 711 OFFCURVE",
"289 713 CURVE",
"295 814 LINE",
"277 814 LINE SMOOTH",
"272 814 OFFCURVE",
"268 812 OFFCURVE",
"266 809 CURVE SMOOTH",
"264 806 OFFCURVE",
"262 803 OFFCURVE",
"262 798 CURVE",
"257 714 LINE",
"225 713 OFFCURVE",
"198 707 OFFCURVE",
"173 697 CURVE SMOOTH",
"148 687 OFFCURVE",
"128 673 OFFCURVE",
"111 656 CURVE SMOOTH",
"94 639 OFFCURVE",
"81 621 OFFCURVE",
"72 599 CURVE SMOOTH",
"63 577 OFFCURVE",
"60 555 OFFCURVE",
"60 532 CURVE SMOOTH",
"60 502 OFFCURVE",
"65 477 OFFCURVE",
"75 457 CURVE SMOOTH",
"85 437 OFFCURVE",
"99 421 OFFCURVE",
"116 407 CURVE SMOOTH",
"133 393 OFFCURVE",
"151 383 OFFCURVE",
"173 374 CURVE SMOOTH",
"195 365 OFFCURVE",
"217 357 OFFCURVE",
"240 350 CURVE",
"224 32 LINE",
"205 33 OFFCURVE",
"189 36 OFFCURVE",
"174 40 CURVE SMOOTH",
"159 44 OFFCURVE",
"146 50 OFFCURVE",
"134 56 CURVE SMOOTH",
"122 62 OFFCURVE",
"113 68 OFFCURVE",
"104 74 CURVE SMOOTH",
"95 80 OFFCURVE",
"88 86 OFFCURVE",
"82 92 CURVE SMOOTH",
"76 98 OFFCURVE",
"69 102 OFFCURVE",
"65 106 CURVE SMOOTH",
"61 110 OFFCURVE",
"57 112 OFFCURVE",
"54 112 CURVE SMOOTH",
"49 112 OFFCURVE",
"44 109 OFFCURVE",
"40 104 CURVE",
"26 84 LINE",
"50 57 OFFCURVE",
"78 36 OFFCURVE",
"110 20 CURVE SMOOTH",
"142 4 OFFCURVE",
"178 -6 OFFCURVE",
"221 -8 CURVE"
);
},
{
closed = 1;
nodes = (
"422 177 OFFCURVE",
"419 156 OFFCURVE",
"412 136 CURVE SMOOTH",
"405 116 OFFCURVE",
"393 100 OFFCURVE",
"379 85 CURVE SMOOTH",
"365 70 OFFCURVE",
"348 58 OFFCURVE",
"327 49 CURVE SMOOTH",
"306 40 OFFCURVE",
"283 34 OFFCURVE",
"256 32 CURVE",
"271 341 LINE",
"291 335 OFFCURVE",
"310 328 OFFCURVE",
"328 321 CURVE SMOOTH",
"346 314 OFFCURVE",
"362 305 OFFCURVE",
"376 294 CURVE SMOOTH",
"390 283 OFFCURVE",
"402 270 OFFCURVE",
"410 255 CURVE SMOOTH",
"418 240 OFFCURVE",
"422 221 OFFCURVE",
"422 199 CURVE SMOOTH"
);
},
{
closed = 1;
nodes = (
"104 553 OFFCURVE",
"108 570 OFFCURVE",
"114 586 CURVE SMOOTH",
"120 602 OFFCURVE",
"129 617 OFFCURVE",
"142 629 CURVE SMOOTH",
"155 641 OFFCURVE",
"170 652 OFFCURVE",
"189 660 CURVE SMOOTH",
"208 668 OFFCURVE",
"231 673 OFFCURVE",
"256 674 CURVE",
"242 398 LINE",
"223 404 OFFCURVE",
"205 410 OFFCURVE",
"189 418 CURVE SMOOTH",
"173 426 OFFCURVE",
"158 435 OFFCURVE",
"145 445 CURVE SMOOTH",
"132 455 OFFCURVE",
"122 468 OFFCURVE",
"115 483 CURVE SMOOTH",
"108 498 OFFCURVE",
"104 515 OFFCURVE",
"104 536 CURVE SMOOTH"
);
}
);
width = 503;
}
);
note = dollar;
unicode = 0024;
},
{
glyphname = percent;
layers = (
{
layerId = "3F211455-7DB7-4737-9D97-BF0B219628E9";
name = Light;
paths = (
{
closed = 1;
nodes = (
"342 567 OFFCURVE",
"339 593 OFFCURVE",
"331 615 CURVE SMOOTH",
"323 637 OFFCURVE",
"313 656 OFFCURVE",
"299 671 CURVE SMOOTH",
"285 686 OFFCURVE",
"270 696 OFFCURVE",
"252 704 CURVE SMOOTH",
"234 712 OFFCURVE",
"215 716 OFFCURVE",
"194 716 CURVE SMOOTH",
"173 716 OFFCURVE",
"153 712 OFFCURVE",
"135 704 CURVE SMOOTH",
"117 696 OFFCURVE",
"101 686 OFFCURVE",
"88 671 CURVE SMOOTH",
"75 656 OFFCURVE",
"64 637 OFFCURVE",
"56 615 CURVE SMOOTH",
"48 593 OFFCURVE",
"45 567 OFFCURVE",
"45 538 CURVE SMOOTH",
"45 509 OFFCURVE",
"48 483 OFFCURVE",
"56 461 CURVE SMOOTH",
"64 439 OFFCURVE",
"75 421 OFFCURVE",
"88 406 CURVE SMOOTH",
"101 391 OFFCURVE",
"117 380 OFFCURVE",
"135 372 CURVE SMOOTH",
"153 364 OFFCURVE",
"173 361 OFFCURVE",
"194 361 CURVE SMOOTH",
"214 361 OFFCURVE",
"232 364 OFFCURVE",
"250 372 CURVE SMOOTH",
"268 380 OFFCURVE",
"284 391 OFFCURVE",
"298 406 CURVE SMOOTH",
"312 421 OFFCURVE",
"322 439 OFFCURVE",
"330 461 CURVE SMOOTH",
"338 483 OFFCURVE",
"342 509 OFFCURVE",
"342 538 CURVE SMOOTH"
);
},
{
closed = 1;
nodes = (
"304 512 OFFCURVE",
"302 490 OFFCURVE",
"296 472 CURVE SMOOTH",
"290 454 OFFCURVE",
"282 439 OFFCURVE",
"272 427 CURVE SMOOTH",
"262 415 OFFCURVE",
"250 407 OFFCURVE",
"236 401 CURVE SMOOTH",
"222 395 OFFCURVE",
"209 393 OFFCURVE",
"194 393 CURVE SMOOTH",
"179 393 OFFCURVE",
"164 395 OFFCURVE",
"151 401 CURVE",
"138 406 OFFCURVE",
"126 415 OFFCURVE",
"116 427 CURVE SMOOTH",
"106 439 OFFCURVE",
"98 454 OFFCURVE",
"92 472 CURVE SMOOTH",
"86 490 OFFCURVE",
"84 512 OFFCURVE",
"84 538 CURVE SMOOTH",
"84 564 OFFCURVE",
"86 586 OFFCURVE",
"92 604 CURVE SMOOTH",
"98 622 OFFCURVE",
"106 637 OFFCURVE",
"116 649 CURVE SMOOTH",
"126 661 OFFCURVE",
"138 669 OFFCURVE",
"151 675 CURVE SMOOTH",
"164 681 OFFCURVE",
"179 683 OFFCURVE",
"194 683 CURVE SMOOTH",
"209 683 OFFCURVE",
"222 681 OFFCURVE",
"236 675 CURVE SMOOTH",
"249 669 OFFCURVE",
"262 661 OFFCURVE",
"272 649 CURVE SMOOTH",
"282 637 OFFCURVE",
"290 622 OFFCURVE",
"296 604 CURVE SMOOTH",
"302 586 OFFCURVE",
"304 564 OFFCURVE",
"304 538 CURVE SMOOTH"
);
},
{
closed = 1;
nodes = (
"104 0 LINE",
"138 0 LINE SMOOTH",
"145 0 OFFCURVE",
"151 3 OFFCURVE",
"155 9 CURVE",
"663 708 LINE",
"630 708 LINE SMOOTH",
"625 708 OFFCURVE",
"621 707 OFFCURVE",
"618 705 CURVE SMOOTH",
"615 703 OFFCURVE",
"613 701 OFFCURVE",
"611 698 CURVE"
);
},
{
closed = 1;
nodes = (
"724 197 OFFCURVE",
"721 224 OFFCURVE",
"713 246 CURVE SMOOTH",
"705 268 OFFCURVE",
"695 286 OFFCURVE",
"681 301 CURVE SMOOTH",
"667 316 OFFCURVE",
"652 327 OFFCURVE",
"634 335 CURVE SMOOTH",
"616 343 OFFCURVE",
"597 346 OFFCURVE",
"576 346 CURVE SMOOTH",
"555 346 OFFCURVE",
"536 343 OFFCURVE",
"518 335 CURVE SMOOTH",
"500 327 OFFCURVE",
"483 316 OFFCURVE",
"470 301 CURVE SMOOTH",
"457 286 OFFCURVE",
"447 268 OFFCURVE",
"439 246 CURVE SMOOTH",
"431 224 OFFCURVE",
"427 197 OFFCURVE",
"427 168 CURVE SMOOTH",
"427 139 OFFCURVE",
"431 113 OFFCURVE",
"439 91 CURVE SMOOTH",
"447 69 OFFCURVE",
"457 51 OFFCURVE",
"470 36 CURVE SMOOTH",
"483 21 OFFCURVE",
"500 11 OFFCURVE",
"518 3 CURVE SMOOTH",
"536 -5 OFFCURVE",
"555 -8 OFFCURVE",
"576 -8 CURVE SMOOTH",
"596 -8 OFFCURVE",
"615 -5 OFFCURVE",
"633 3 CURVE SMOOTH",
"651 11 OFFCURVE",
"666 21 OFFCURVE",
"680 36 CURVE SMOOTH",
"694 51 OFFCURVE",
"704 69 OFFCURVE",
"712 91 CURVE SMOOTH",
"720 113 OFFCURVE",
"724 139 OFFCURVE",
"724 168 CURVE SMOOTH"
);
},
{
closed = 1;
nodes = (
"686 142 OFFCURVE",
"684 120 OFFCURVE",
"678 102 CURVE SMOOTH",
"672 84 OFFCURVE",
"664 70 OFFCURVE",
"654 58 CURVE SMOOTH",
"644 46 OFFCURVE",
"633 37 OFFCURVE",
"619 32 CURVE SMOOTH",
"605 27 OFFCURVE",
"591 24 OFFCURVE",
"576 24 CURVE SMOOTH",
"561 24 OFFCURVE",
"547 27 OFFCURVE",
"533 32 CURVE SMOOTH",
"519 37 OFFCURVE",
"508 46 OFFCURVE",
"498 58 CURVE SMOOTH",
"488 70 OFFCURVE",
"480 84 OFFCURVE",
"474 102 CURVE SMOOTH",
"468 120 OFFCURVE",
"465 142 OFFCURVE",
"465 168 CURVE SMOOTH",
"465 194 OFFCURVE",
"468 216 OFFCURVE",
"474 234 CURVE SMOOTH",
"480 252 OFFCURVE",
"488 268 OFFCURVE",
"498 280 CURVE SMOOTH",
"508 292 OFFCURVE",
"519 300 OFFCURVE",
"533 306 CURVE SMOOTH",
"547 312 OFFCURVE",
"561 314 OFFCURVE",
"576 314 CURVE SMOOTH",
"591 314 OFFCURVE",
"605 312 OFFCURVE",
"619 306 CURVE SMOOTH",
"633 300 OFFCURVE",
"644 292 OFFCURVE",
"654 280 CURVE SMOOTH",
"664 268 OFFCURVE",
"672 252 OFFCURVE",
"678 234 CURVE SMOOTH",
"684 216 OFFCURVE",
"686 194 OFFCURVE",
"686 168 CURVE SMOOTH"
);
}
);
width = 764;
}
);
note = percent;
unicode = 0025;
},
{
glyphname = ampersand;
layers = (
{
layerId = "3F211455-7DB7-4737-9D97-BF0B219628E9";
name = Light;
paths = (
{
closed = 1;
nodes = (
"289 716 OFFCURVE",
"265 711 OFFCURVE",
"243 703 CURVE SMOOTH",
"221 695 OFFCURVE",
"202 683 OFFCURVE",
"186 668 CURVE SMOOTH",
"170 653 OFFCURVE",
"158 637 OFFCURVE",
"150 617 CURVE SMOOTH",
"142 597 OFFCURVE",
"138 575 OFFCURVE",
"138 552 CURVE SMOOTH",
"138 523 OFFCURVE",
"143 496 OFFCURVE",
"155 471 CURVE SMOOTH",
"167 446 OFFCURVE",
"184 421 OFFCURVE",
"208 394 CURVE",
"184 385 OFFCURVE",
"163 372 OFFCURVE",
"142 358 CURVE SMOOTH",
"121 344 OFFCURVE",
"103 328 OFFCURVE",
"88 310 CURVE SMOOTH",
"73 292 OFFCURVE",
"61 272 OFFCURVE",
"52 250 CURVE SMOOTH",
"43 228 OFFCURVE",
"40 205 OFFCURVE",
"40 181 CURVE SMOOTH",
"40 151 OFFCURVE",
"45 125 OFFCURVE",
"57 101 CURVE SMOOTH",
"69 77 OFFCURVE",
"85 57 OFFCURVE",
"104 41 CURVE SMOOTH",
"123 25 OFFCURVE",
"145 12 OFFCURVE",
"169 4 CURVE SMOOTH",
"193 -4 OFFCURVE",
"218 -8 OFFCURVE",
"243 -8 CURVE SMOOTH",
"269 -8 OFFCURVE",
"294 -5 OFFCURVE",
"318 1 CURVE SMOOTH",
"342 7 OFFCURVE",
"365 16 OFFCURVE",
"386 26 CURVE SMOOTH",
"407 36 OFFCURVE",
"426 49 OFFCURVE",
"444 64 CURVE SMOOTH",
"462 79 OFFCURVE",
"479 95 OFFCURVE",
"494 112 CURVE",
"596 11 LINE SMOOTH",
"601 6 OFFCURVE",
"605 3 OFFCURVE",
"609 2 CURVE SMOOTH",
"613 1 OFFCURVE",
"618 0 OFFCURVE",
"624 0 CURVE SMOOTH",
"668 0 LINE",
"520 146 LINE",
"541 176 OFFCURVE",
"556 208 OFFCURVE",
"567 241 CURVE SMOOTH",
"578 274 OFFCURVE",
"584 307 OFFCURVE",
"585 338 CURVE",
"558 338 LINE SMOOTH",
"554 338 OFFCURVE",
"550 336 OFFCURVE",
"548 334 CURVE SMOOTH",
"546 332 OFFCURVE",
"545 328 OFFCURVE",
"544 324 CURVE",
"541 300 OFFCURVE",
"536 275 OFFCURVE",
"527 249 CURVE SMOOTH",
"518 223 OFFCURVE",
"506 198 OFFCURVE",
"491 174 CURVE",
"268 394 LINE SMOOTH",
"239 423 OFFCURVE",
"217 449 OFFCURVE",
"203 474 CURVE SMOOTH",
"189 499 OFFCURVE",
"182 526 OFFCURVE",
"182 553 CURVE SMOOTH",
"182 571 OFFCURVE",
"186 588 OFFCURVE",
"192 603 CURVE SMOOTH",
"198 618 OFFCURVE",
"207 632 OFFCURVE",
"219 643 CURVE SMOOTH",
"231 654 OFFCURVE",
"245 663 OFFCURVE",
"261 669 CURVE SMOOTH",
"277 675 OFFCURVE",
"296 678 OFFCURVE",
"316 678 CURVE SMOOTH",
"336 678 OFFCURVE",
"352 675 OFFCURVE",
"367 668 CURVE SMOOTH",
"381 661 OFFCURVE",
"393 652 OFFCURVE",
"403 642 CURVE SMOOTH",
"413 632 OFFCURVE",
"420 621 OFFCURVE",
"426 610 CURVE SMOOTH",
"432 599 OFFCURVE",
"436 589 OFFCURVE",
"438 580 CURVE SMOOTH",
"439 576 OFFCURVE",
"441 574 OFFCURVE",
"443 572 CURVE SMOOTH",
"445 570 OFFCURVE",
"448 569 OFFCURVE",
"451 569 CURVE SMOOTH",
"455 569 OFFCURVE",
"461 569 OFFCURVE",
"469 571 CURVE SMOOTH",
"473 572 OFFCURVE",
"476 573 OFFCURVE",
"481 574 CURVE",
"480 593 OFFCURVE",
"476 611 OFFCURVE",
"467 628 CURVE SMOOTH",
"458 645 OFFCURVE",
"447 660 OFFCURVE",
"432 673 CURVE SMOOTH",
"417 686 OFFCURVE",
"399 696 OFFCURVE",
"379 704 CURVE SMOOTH",
"359 712 OFFCURVE",
"338 716 OFFCURVE",
"316 716 CURVE SMOOTH"
);
},
{
closed = 1;
nodes = (
"88 204 OFFCURVE",
"91 223 OFFCURVE",
"98 241 CURVE SMOOTH",
"105 259 OFFCURVE",
"114 276 OFFCURVE",
"126 292 CURVE SMOOTH",
"138 308 OFFCURVE",
"154 323 OFFCURVE",
"172 336 CURVE SMOOTH",
"190 349 OFFCURVE",
"209 360 OFFCURVE",
"231 369 CURVE",
"233 367 OFFCURVE",
"235 366 OFFCURVE",
"237 364 CURVE SMOOTH",
"466 138 LINE",
"453 122 OFFCURVE",
"440 108 OFFCURVE",
"425 95 CURVE SMOOTH",
"410 82 OFFCURVE",
"393 71 OFFCURVE",
"375 61 CURVE SMOOTH",
"357 51 OFFCURVE",
"337 44 OFFCURVE",
"316 39 CURVE SMOOTH",
"295 34 OFFCURVE",
"273 31 OFFCURVE",
"250 31 CURVE SMOOTH",
"231 31 OFFCURVE",
"212 35 OFFCURVE",
"193 41 CURVE SMOOTH",
"174 47 OFFCURVE",
"157 56 OFFCURVE",
"141 69 CURVE SMOOTH",
"125 82 OFFCURVE",
"113 98 OFFCURVE",
"103 117 CURVE SMOOTH",
"93 136 OFFCURVE",
"88 158 OFFCURVE",
"88 184 CURVE SMOOTH"
);
}
);
width = 692;
}
);
note = ampersand;
unicode = 0026;
},
{
glyphname = quotesingle;
layers = (
{
layerId = "3F211455-7DB7-4737-9D97-BF0B219628E9";
name = Light;
paths = (
{
closed = 1;
nodes = (
"112 708 LINE",
"70 708 LINE",
"70 562 LINE",
"75 485 LINE",
"76 479 OFFCURVE",
"77 475 OFFCURVE",
"80 472 CURVE SMOOTH",
"83 469 OFFCURVE",
"86 467 OFFCURVE",
"91 467 CURVE SMOOTH",
"97 467 OFFCURVE",
"101 469 OFFCURVE",
"103 472 CURVE SMOOTH",
"105 475 OFFCURVE",
"107 479 OFFCURVE",
"108 485 CURVE",
"112 562 LINE"
);
}
);
width = 183;
}
);
note = quotesingle;
unicode = 0027;
},
{
glyphname = parenleft;
layers = (
{
layerId = "3F211455-7DB7-4737-9D97-BF0B219628E9";
name = Light;
paths = (
{
closed = 1;
nodes = (
"96 390 OFFCURVE",
"106 462 OFFCURVE",
"126 530 CURVE SMOOTH",
"146 598 OFFCURVE",
"176 665 OFFCURVE",
"216 729 CURVE",
"218 733 OFFCURVE",
"220 737 OFFCURVE",
"220 740 CURVE SMOOTH",
"220 745 OFFCURVE",
"217 748 OFFCURVE",
"213 750 CURVE",
"192 763 LINE",
"166 724 OFFCURVE",
"145 686 OFFCURVE",
"127 649 CURVE SMOOTH",
"109 612 OFFCURVE",
"96 575 OFFCURVE",
"85 539 CURVE SMOOTH",
"74 503 OFFCURVE",
"67 466 OFFCURVE",
"62 429 CURVE SMOOTH",
"57 392 OFFCURVE",
"54 354 OFFCURVE",
"54 315 CURVE SMOOTH",
"54 276 OFFCURVE",
"57 239 OFFCURVE",
"62 202 CURVE SMOOTH",
"67 165 OFFCURVE",
"74 128 OFFCURVE",
"85 92 CURVE SMOOTH",
"96 56 OFFCURVE",
"109 19 OFFCURVE",
"127 -18 CURVE SMOOTH",
"145 -55 OFFCURVE",
"166 -94 OFFCURVE",
"192 -133 CURVE",
"213 -120 LINE",
"218 -118 OFFCURVE",
"220 -114 OFFCURVE",
"220 -109 CURVE SMOOTH",
"220 -106 OFFCURVE",
"218 -102 OFFCURVE",
"216 -98 CURVE",
"176 -34 OFFCURVE",
"146 32 OFFCURVE",
"126 100 CURVE SMOOTH",
"106 168 OFFCURVE",
"96 240 OFFCURVE",
"96 315 CURVE SMOOTH"
);
}
);
width = 251;
}
);
note = parenleft;
unicode = 0028;
},
{
glyphname = parenright;
layers = (
{
layerId = "3F211455-7DB7-4737-9D97-BF0B219628E9";
name = Light;
paths = (
{
closed = 1;
nodes = (
"156 240 OFFCURVE",
"146 168 OFFCURVE",
"126 100 CURVE SMOOTH",
"106 32 OFFCURVE",
"76 -34 OFFCURVE",
"36 -98 CURVE",
"34 -102 OFFCURVE",
"32 -105 OFFCURVE",
"32 -108 CURVE SMOOTH",
"32 -113 OFFCURVE",
"35 -118 OFFCURVE",
"40 -120 CURVE",
"60 -132 LINE",
"85 -93 OFFCURVE",
"107 -55 OFFCURVE",
"125 -18 CURVE SMOOTH",
"143 19 OFFCURVE",
"157 56 OFFCURVE",
"168 92 CURVE SMOOTH",
"179 128 OFFCURVE",
"186 165 OFFCURVE",
"191 202 CURVE SMOOTH",
"196 239 OFFCURVE",
"198 276 OFFCURVE",
"198 315 CURVE SMOOTH",
"198 354 OFFCURVE",
"196 392 OFFCURVE",
"191 429 CURVE SMOOTH",
"186 466 OFFCURVE",
"179 503 OFFCURVE",
"168 539 CURVE SMOOTH",
"157 575 OFFCURVE",
"143 612 OFFCURVE",
"125 649 CURVE SMOOTH",
"107 686 OFFCURVE",
"85 724 OFFCURVE",
"60 763 CURVE",
"40 750 LINE",
"36 748 OFFCURVE",
"33 745 OFFCURVE",
"33 740 CURVE SMOOTH",
"33 737 OFFCURVE",
"34 733 OFFCURVE",
"36 729 CURVE",
"76 665 OFFCURVE",
"106 598 OFFCURVE",
"126 530 CURVE SMOOTH",
"146 462 OFFCURVE",
"156 390 OFFCURVE",
"156 315 CURVE SMOOTH"
);
}
);
width = 252;
}
);
note = parenright;
unicode = 0029;
},
{
glyphname = asterisk;
layers = (
{
layerId = "3F211455-7DB7-4737-9D97-BF0B219628E9";
name = Light;
paths = (
{
closed = 1;
nodes = (
"176 448 LINE",
"202 448 LINE",
"202 556 LINE SMOOTH",
"202 562 OFFCURVE",
"201 566 OFFCURVE",
"200 570 CURVE SMOOTH",
"199 574 OFFCURVE",
"197 580 OFFCURVE",
"195 586 CURVE",
"199 580 OFFCURVE",
"204 577 OFFCURVE",
"207 574 CURVE SMOOTH",
"210 571 OFFCURVE",
"214 568 OFFCURVE",
"219 565 CURVE SMOOTH",
"314 510 LINE",
"327 532 LINE",
"232 588 LINE SMOOTH",
"227 591 OFFCURVE",
"222 593 OFFCURVE",
"218 594 CURVE SMOOTH",
"214 595 OFFCURVE",
"209 596 OFFCURVE",
"203 597 CURVE",
"209 598 OFFCURVE",
"214 598 OFFCURVE",
"218 600 CURVE SMOOTH",
"222 602 OFFCURVE",
"227 605 OFFCURVE",
"232 608 CURVE SMOOTH",
"326 662 LINE",
"313 684 LINE",
"219 630 LINE SMOOTH",
"214 627 OFFCURVE",
"209 624 OFFCURVE",
"206 621 CURVE SMOOTH",
"203 618 OFFCURVE",
"199 614 OFFCURVE",
"195 608 CURVE",
"198 614 OFFCURVE",
"199 619 OFFCURVE",
"200 624 CURVE SMOOTH",
"201 629 OFFCURVE",
"202 634 OFFCURVE",
"202 640 CURVE SMOOTH",
"202 746 LINE",
"176 746 LINE",
"176 639 LINE SMOOTH",
"176 633 OFFCURVE",
"176 629 OFFCURVE",
"177 624 CURVE SMOOTH",
"178 619 OFFCURVE",
"180 613 OFFCURVE",
"183 607 CURVE",
"178 613 OFFCURVE",
"174 617 OFFCURVE",
"171 620 CURVE SMOOTH",
"168 623 OFFCURVE",
"163 627 OFFCURVE",
"158 630 CURVE SMOOTH",
"64 685 LINE",
"51 662 LINE",
"146 607 LINE SMOOTH",
"151 604 OFFCURVE",
"155 603 OFFCURVE",
"159 601 CURVE SMOOTH",
"163 599 OFFCURVE",
"169 598 OFFCURVE",
"175 597 CURVE",
"169 596 OFFCURVE",
"164 594 OFFCURVE",
"160 593 CURVE SMOOTH",
"156 592 OFFCURVE",
"151 590 OFFCURVE",
"146 587 CURVE SMOOTH",
"52 532 LINE",
"64 510 LINE",
"158 565 LINE SMOOTH",
"163 568 OFFCURVE",
"167 570 OFFCURVE",
"171 573 CURVE SMOOTH",
"175 576 OFFCURVE",
"178 580 OFFCURVE",
"182 585 CURVE",
"179 579 OFFCURVE",
"178 574 OFFCURVE",
"177 570 CURVE SMOOTH",
"176 566 OFFCURVE",
"176 561 OFFCURVE",
"176 555 CURVE SMOOTH"
);
}
);
width = 378;
}
);
note = asterisk;
unicode = 002A;
},
{
glyphname = plus;
layers = (
{
layerId = "3F211455-7DB7-4737-9D97-BF0B219628E9";
name = Light;
paths = (
{
closed = 1;
nodes = (
"300 579 LINE",
"260 579 LINE",
"260 354 LINE",
"46 354 LINE",
"46 317 LINE",
"260 317 LINE",
"260 90 LINE",
"300 90 LINE",
"300 317 LINE",
"515 317 LINE",
"515 354 LINE",
"300 354 LINE"
);
}
);
width = 561;
}
);
note = plus;
unicode = 002B;
},
{
glyphname = comma;
layers = (
{
layerId = "3F211455-7DB7-4737-9D97-BF0B219628E9";
name = Light;
paths = (
{
closed = 1;
nodes = (
"72 29 OFFCURVE",
"75 18 OFFCURVE",
"83 10 CURVE SMOOTH",
"91 2 OFFCURVE",
"102 -2 OFFCURVE",
"114 -2 CURVE SMOOTH",
"122 -2 LINE SMOOTH",
"124 -2 OFFCURVE",
"126 -1 OFFCURVE",
"128 0 CURVE",
"127 -12 OFFCURVE",
"124 -23 OFFCURVE",
"120 -34 CURVE SMOOTH",
"116 -45 OFFCURVE",
"111 -54 OFFCURVE",
"106 -63 CURVE SMOOTH",
"101 -72 OFFCURVE",
"96 -80 OFFCURVE",
"91 -86 CURVE SMOOTH",
"86 -92 OFFCURVE",
"81 -98 OFFCURVE",
"78 -101 CURVE SMOOTH",
"77 -102 OFFCURVE",
"76 -104 OFFCURVE",
"75 -106 CURVE SMOOTH",
"74 -108 OFFCURVE",
"73 -108 OFFCURVE",
"73 -110 CURVE SMOOTH",
"73 -113 OFFCURVE",
"74 -116 OFFCURVE",
"77 -119 CURVE",
"85 -126 LINE",
"96 -115 OFFCURVE",
"107 -105 OFFCURVE",
"116 -92 CURVE SMOOTH",
"125 -79 OFFCURVE",
"133 -66 OFFCURVE",
"140 -52 CURVE SMOOTH",
"147 -38 OFFCURVE",
"151 -24 OFFCURVE",
"155 -10 CURVE SMOOTH",
"159 4 OFFCURVE",
"160 17 OFFCURVE",
"160 31 CURVE SMOOTH",
"160 47 OFFCURVE",
"156 60 OFFCURVE",
"148 70 CURVE SMOOTH",
"140 80 OFFCURVE",
"129 85 OFFCURVE",
"115 85 CURVE SMOOTH",
"102 85 OFFCURVE",
"92 80 OFFCURVE",
"84 72 CURVE SMOOTH",
"76 64 OFFCURVE",
"72 54 OFFCURVE",
"72 42 CURVE SMOOTH"
);
}
);
width = 228;
}
);
note = comma;
unicode = 002C;
},
{
glyphname = hyphen;
layers = (
{
layerId = "3F211455-7DB7-4737-9D97-BF0B219628E9";
name = Light;
paths = (
{
closed = 1;
nodes = (
"70 317 LINE",
"70 276 LINE",
"302 276 LINE",
"302 317 LINE"
);
}
);
width = 370;
}
);
note = hyphen;
unicode = 002D;
},
{
glyphname = period;
layers = (
{
layerId = "3F211455-7DB7-4737-9D97-BF0B219628E9";
name = Light;
paths = (
{
closed = 1;
nodes = (
"70 25 OFFCURVE",
"74 15 OFFCURVE",
"83 6 CURVE SMOOTH",
"92 -3 OFFCURVE",
"103 -8 OFFCURVE",
"116 -8 CURVE SMOOTH",
"122 -8 OFFCURVE",
"128 -6 OFFCURVE",
"134 -4 CURVE SMOOTH",
"140 -2 OFFCURVE",
"144 2 OFFCURVE",
"148 6 CURVE SMOOTH",
"152 10 OFFCURVE",
"156 14 OFFCURVE",
"158 20 CURVE SMOOTH",
"160 26 OFFCURVE",
"162 31 OFFCURVE",
"162 38 CURVE SMOOTH",
"162 44 OFFCURVE",
"160 50 OFFCURVE",
"158 56 CURVE SMOOTH",
"156 62 OFFCURVE",
"152 67 OFFCURVE",
"148 71 CURVE SMOOTH",
"144 75 OFFCURVE",
"140 79 OFFCURVE",
"134 81 CURVE SMOOTH",
"128 83 OFFCURVE",
"122 85 OFFCURVE",
"116 85 CURVE SMOOTH",
"109 85 OFFCURVE",
"103 83 OFFCURVE",
"97 81 CURVE SMOOTH",
"91 79 OFFCURVE",
"87 75 OFFCURVE",
"83 71 CURVE SMOOTH",
"79 67 OFFCURVE",
"75 62 OFFCURVE",
"73 56 CURVE SMOOTH",
"71 50 OFFCURVE",
"70 44 OFFCURVE",
"70 38 CURVE SMOOTH"
);
}
);
width = 230;
}
);
note = period;
unicode = 002E;
},
{
glyphname = slash;
layers = (
{
layerId = "3F211455-7DB7-4737-9D97-BF0B219628E9";
name = Light;
paths = (
{
closed = 1;
nodes = (
"382 728 LINE",
"362 728 LINE SMOOTH",
"349 728 OFFCURVE",
"340 721 OFFCURVE",
"335 709 CURVE SMOOTH",
"24 -42 LINE",
"44 -42 LINE SMOOTH",
"50 -42 OFFCURVE",
"55 -40 OFFCURVE",
"60 -37 CURVE SMOOTH",
"65 -34 OFFCURVE",
"69 -29 OFFCURVE",
"72 -22 CURVE SMOOTH"
);
}
);
width = 413;
}
);
note = slash;
unicode = 002F;
},
{
glyphname = zero;
layers = (
{
layerId = "3F211455-7DB7-4737-9D97-BF0B219628E9";
name = Light;
paths = (
{
closed = 1;
nodes = (
"562 416 OFFCURVE",
"555 470 OFFCURVE",
"542 515 CURVE SMOOTH",
"529 560 OFFCURVE",
"510 598 OFFCURVE",
"487 628 CURVE SMOOTH",
"464 658 OFFCURVE",
"437 680 OFFCURVE",
"406 694 CURVE SMOOTH",
"375 708 OFFCURVE",
"343 716 OFFCURVE",
"308 716 CURVE SMOOTH",
"273 716 OFFCURVE",
"240 708 OFFCURVE",
"209 694 CURVE SMOOTH",
"178 680 OFFCURVE",
"151 658 OFFCURVE",
"128 628 CURVE SMOOTH",
"105 598 OFFCURVE",
"87 560 OFFCURVE",
"74 515 CURVE SMOOTH",
"61 470 OFFCURVE",
"54 416 OFFCURVE",
"54 354 CURVE SMOOTH",
"54 292 OFFCURVE",
"61 238 OFFCURVE",
"74 193 CURVE SMOOTH",
"87 148 OFFCURVE",
"105 110 OFFCURVE",
"128 80 CURVE SMOOTH",
"151 50 OFFCURVE",
"178 28 OFFCURVE",
"209 14 CURVE SMOOTH",
"240 0 OFFCURVE",
"273 -8 OFFCURVE",
"308 -8 CURVE SMOOTH",
"343 -8 OFFCURVE",
"375 0 OFFCURVE",
"406 14 CURVE SMOOTH",
"437 28 OFFCURVE",
"464 50 OFFCURVE",
"487 80 CURVE SMOOTH",
"510 110 OFFCURVE",
"529 148 OFFCURVE",
"542 193 CURVE SMOOTH",
"555 238 OFFCURVE",
"562 292 OFFCURVE",
"562 354 CURVE SMOOTH"
);
},
{
closed = 1;
nodes = (
"512 296 OFFCURVE",
"506 247 OFFCURVE",
"495 207 CURVE SMOOTH",
"484 167 OFFCURVE",
"469 133 OFFCURVE",
"451 107 CURVE SMOOTH",
"433 81 OFFCURVE",
"411 63 OFFCURVE",
"386 51 CURVE SMOOTH",
"361 39 OFFCURVE",
"335 33 OFFCURVE",
"308 33 CURVE SMOOTH",
"281 33 OFFCURVE",
"255 39 OFFCURVE",
"230 51 CURVE SMOOTH",
"205 63 OFFCURVE",
"183 81 OFFCURVE",
"164 107 CURVE SMOOTH",
"145 133 OFFCURVE",
"131 167 OFFCURVE",
"120 207 CURVE SMOOTH",
"109 247 OFFCURVE",
"104 296 OFFCURVE",
"104 354 CURVE SMOOTH",
"104 411 OFFCURVE",
"109 460 OFFCURVE",
"120 501 CURVE SMOOTH",
"131 542 OFFCURVE",
"145 575 OFFCURVE",
"164 601 CURVE SMOOTH",
"183 627 OFFCURVE",
"204 646 OFFCURVE",
"229 658 CURVE SMOOTH",
"254 670 OFFCURVE",
"280 676 OFFCURVE",
"307 676 CURVE SMOOTH",
"334 676 OFFCURVE",
"361 670 OFFCURVE",
"386 658 CURVE SMOOTH",
"411 646 OFFCURVE",
"433 627 OFFCURVE",
"451 601 CURVE SMOOTH",
"469 575 OFFCURVE",
"484 542 OFFCURVE",
"495 501 CURVE SMOOTH",
"506 460 OFFCURVE",
"512 411 OFFCURVE",
"512 354 CURVE SMOOTH"
);
}
);
width = 617;
}
);
note = zero;
unicode = 0030;
},
{
glyphname = one;
layers = (
{
layerId = "3F211455-7DB7-4737-9D97-BF0B219628E9";
name = Light;
paths = (
{
closed = 1;
nodes = (
"426 0 LINE",
"426 16 LINE SMOOTH",
"426 25 OFFCURVE",
"420 30 OFFCURVE",
"409 31 CURVE",
"402 31 OFFCURVE",
"356 34 OFFCURVE",
"271 38 CURVE",
"271 710 LINE",
"234 710 LINE",
"30 530 LINE",
"44 510 LINE SMOOTH",
"47 506 OFFCURVE",
"51 504 OFFCURVE",
"57 504 CURVE SMOOTH",
"62 504 OFFCURVE",
"66 505 OFFCURVE",
"69 508 CURVE",
"225 647 LINE",
"224 634 OFFCURVE",
"223 622 OFFCURVE",
"223 611 CURVE SMOOTH",
"223 38 LINE",
"223 38 OFFCURVE",
"212 37 OFFCURVE",
"189 36 CURVE SMOOTH",
"166 35 OFFCURVE",
"142 34 OFFCURVE",
"118 33 CURVE SMOOTH",
"94 32 OFFCURVE",
"80 31 OFFCURVE",
"77 31 CURVE",
"66 30 OFFCURVE",
"61 25 OFFCURVE",
"61 16 CURVE SMOOTH",
"61 0 LINE"
);
}
);
width = 451;
}
);
note = one;
unicode = 0031;
},
{
glyphname = two;
layers = (
{
layerId = "3F211455-7DB7-4737-9D97-BF0B219628E9";
name = Light;
paths = (
{
closed = 1;
nodes = (
"469 134 LINE SMOOTH",
"455 134 OFFCURVE",
"449 126 OFFCURVE",
"448 110 CURVE",
"448 109 OFFCURVE",
"448 106 OFFCURVE",
"447 102 CURVE SMOOTH",
"446 98 OFFCURVE",
"446 91 OFFCURVE",
"445 81 CURVE SMOOTH",
"444 71 OFFCURVE",
"443 60 OFFCURVE",
"442 45 CURVE",
"171 45 LINE SMOOTH",
"159 45 OFFCURVE",
"148 44 OFFCURVE",
"136 43 CURVE SMOOTH",
"124 42 OFFCURVE",
"114 40 OFFCURVE",
"103 37 CURVE",
"324 263 LINE SMOOTH",
"344 284 OFFCURVE",
"364 304 OFFCURVE",
"382 324 CURVE SMOOTH",
"400 344 OFFCURVE",
"417 364 OFFCURVE",
"431 385 CURVE SMOOTH",
"445 406 OFFCURVE",
"456 428 OFFCURVE",
"464 451 CURVE SMOOTH",
"472 474 OFFCURVE",
"477 498 OFFCURVE",
"477 525 CURVE SMOOTH",
"477 557 OFFCURVE",
"471 585 OFFCURVE",
"460 609 CURVE SMOOTH",
"449 633 OFFCURVE",
"435 652 OFFCURVE",
"416 668 CURVE SMOOTH",
"397 684 OFFCURVE",
"375 696 OFFCURVE",
"351 704 CURVE SMOOTH",
"326 712 OFFCURVE",
"301 715 OFFCURVE",
"274 715 CURVE SMOOTH",
"245 715 OFFCURVE",
"218 712 OFFCURVE",
"193 703 CURVE SMOOTH",
"168 694 OFFCURVE",
"146 681 OFFCURVE",
"127 665 CURVE SMOOTH",
"108 649 OFFCURVE",
"91 629 OFFCURVE",
"79 605 CURVE SMOOTH",
"67 581 OFFCURVE",
"59 554 OFFCURVE",
"55 524 CURVE",
"79 520 LINE",
"81 520 LINE",
"84 520 LINE SMOOTH",
"94 520 OFFCURVE",
"101 525 OFFCURVE",
"104 537 CURVE",
"108 557 OFFCURVE",
"113 576 OFFCURVE",
"123 593 CURVE",
"132 610 OFFCURVE",
"145 624 OFFCURVE",
"159 636 CURVE SMOOTH",
"173 648 OFFCURVE",
"190 658 OFFCURVE",
"209 665 CURVE SMOOTH",
"228 672 OFFCURVE",
"249 675 OFFCURVE",
"271 675 CURVE SMOOTH",
"292 675 OFFCURVE",
"311 672 OFFCURVE",
"330 666 CURVE SMOOTH",
"349 660 OFFCURVE",
"365 650 OFFCURVE",
"380 638 CURVE SMOOTH",
"394 626 OFFCURVE",
"406 610 OFFCURVE",
"415 591 CURVE SMOOTH",
"424 572 OFFCURVE",
"428 549 OFFCURVE",
"428 523 CURVE SMOOTH",
"428 500 OFFCURVE",
"424 478 OFFCURVE",
"417 458 CURVE SMOOTH",
"410 438 OFFCURVE",
"400 418 OFFCURVE",
"388 399 CURVE SMOOTH",
"376 380 OFFCURVE",
"360 360 OFFCURVE",
"343 341 CURVE SMOOTH",
"326 322 OFFCURVE",
"308 302 OFFCURVE",
"288 282 CURVE SMOOTH",
"46 38 LINE SMOOTH",
"43 35 OFFCURVE",
"42 32 OFFCURVE",
"40 28 CURVE SMOOTH",
"38 24 OFFCURVE",
"37 21 OFFCURVE",
"37 17 CURVE SMOOTH",
"37 0 LINE",
"493 0 LINE",
"493 21 LINE",
"493 28 LINE",
"493 134 LINE",
"488 134 LINE"
);
}
);
width = 543;
}
);
note = two;
unicode = 0032;
},
{
glyphname = three;
layers = (
{
layerId = "3F211455-7DB7-4737-9D97-BF0B219628E9";
name = Light;
paths = (
{
closed = 1;
nodes = (
"247 716 OFFCURVE",
"219 711 OFFCURVE",
"194 703 CURVE SMOOTH",
"169 695 OFFCURVE",
"147 682 OFFCURVE",
"128 666 CURVE SMOOTH",
"109 650 OFFCURVE",
"94 630 OFFCURVE",
"82 606 CURVE SMOOTH",
"70 582 OFFCURVE",
"60 554 OFFCURVE",
"56 524 CURVE",
"81 520 LINE",
"86 520 LINE SMOOTH",
"96 520 OFFCURVE",
"102 526 OFFCURVE",
"105 538 CURVE SMOOTH",
"110 559 OFFCURVE",
"116 577 OFFCURVE",
"126 594 CURVE SMOOTH",
"136 611 OFFCURVE",
"148 625 OFFCURVE",
"162 637 CURVE SMOOTH",
"176 649 OFFCURVE",
"193 658 OFFCURVE",
"212 665 CURVE SMOOTH",
"231 672 OFFCURVE",
"252 675 OFFCURVE",
"274 675 CURVE SMOOTH",
"294 675 OFFCURVE",
"313 672 OFFCURVE",
"332 666 CURVE SMOOTH",
"351 660 OFFCURVE",
"367 652 OFFCURVE",
"381 640 CURVE SMOOTH",
"395 628 OFFCURVE",
"406 612 OFFCURVE",
"414 594 CURVE SMOOTH",
"422 576 OFFCURVE",
"427 554 OFFCURVE",
"427 529 CURVE SMOOTH",
"427 507 OFFCURVE",
"423 488 OFFCURVE",
"415 470 CURVE SMOOTH",
"407 452 OFFCURVE",
"396 436 OFFCURVE",
"380 423 CURVE SMOOTH",
"364 410 OFFCURVE",
"344 401 OFFCURVE",
"321 393 CURVE SMOOTH",
"298 385 OFFCURVE",
"271 381 OFFCURVE",
"240 380 CURVE",
"240 346 LINE",
"278 346 OFFCURVE",
"311 342 OFFCURVE",
"337 334 CURVE SMOOTH",
"363 326 OFFCURVE",
"384 316 OFFCURVE",
"400 302 CURVE SMOOTH",
"416 288 OFFCURVE",
"427 273 OFFCURVE",
"434 254 CURVE SMOOTH",
"441 235 OFFCURVE",
"444 215 OFFCURVE",
"444 193 CURVE SMOOTH",
"444 175 OFFCURVE",
"441 157 OFFCURVE",
"433 138 CURVE SMOOTH",
"425 119 OFFCURVE",
"414 102 OFFCURVE",
"399 86 CURVE SMOOTH",
"384 70 OFFCURVE",
"365 57 OFFCURVE",
"343 47 CURVE SMOOTH",
"321 37 OFFCURVE",
"294 32 OFFCURVE",
"264 32 CURVE SMOOTH",
"242 32 OFFCURVE",
"223 34 OFFCURVE",
"206 39 CURVE SMOOTH",
"189 44 OFFCURVE",
"174 50 OFFCURVE",
"162 58 CURVE SMOOTH",
"150 66 OFFCURVE",
"139 73 OFFCURVE",
"130 83 CURVE SMOOTH",
"121 93 OFFCURVE",
"114 102 OFFCURVE",
"108 112 CURVE SMOOTH",
"102 122 OFFCURVE",
"98 130 OFFCURVE",
"94 139 CURVE SMOOTH",
"90 148 OFFCURVE",
"88 155 OFFCURVE",
"86 161 CURVE",
"82 171 LINE SMOOTH",
"80 176 OFFCURVE",
"77 179 OFFCURVE",
"74 181 CURVE SMOOTH",
"71 183 OFFCURVE",
"68 183 OFFCURVE",
"64 183 CURVE SMOOTH",
"60 183 OFFCURVE",
"56 183 OFFCURVE",
"52 181 CURVE",
"34 173 LINE",
"40 152 OFFCURVE",
"47 131 OFFCURVE",
"57 109 CURVE SMOOTH",
"67 87 OFFCURVE",
"81 67 OFFCURVE",
"98 50 CURVE SMOOTH",
"115 33 OFFCURVE",
"137 19 OFFCURVE",
"164 8 CURVE SMOOTH",
"191 -3 OFFCURVE",
"224 -8 OFFCURVE",
"264 -8 CURVE SMOOTH",
"296 -8 OFFCURVE",
"326 -3 OFFCURVE",
"354 7 CURVE SMOOTH",
"382 17 OFFCURVE",
"406 31 OFFCURVE",
"426 49 CURVE SMOOTH",
"446 67 OFFCURVE",
"462 89 OFFCURVE",
"474 114 CURVE SMOOTH",
"486 139 OFFCURVE",
"492 165 OFFCURVE",
"492 194 CURVE SMOOTH",
"492 240 OFFCURVE",
"479 279 OFFCURVE",
"452 309 CURVE SMOOTH",
"425 339 OFFCURVE",
"386 359 OFFCURVE",
"334 369 CURVE",
"354 374 OFFCURVE",
"373 381 OFFCURVE",
"390 391 CURVE SMOOTH",
"407 401 OFFCURVE",
"422 412 OFFCURVE",
"434 426 CURVE SMOOTH",
"446 440 OFFCURVE",
"456 457 OFFCURVE",
"463 475 CURVE SMOOTH",
"470 493 OFFCURVE",
"474 514 OFFCURVE",
"474 537 CURVE SMOOTH",
"474 566 OFFCURVE",
"468 592 OFFCURVE",
"458 614 CURVE SMOOTH",
"448 636 OFFCURVE",
"433 655 OFFCURVE",
"415 670 CURVE SMOOTH",
"397 685 OFFCURVE",
"376 696 OFFCURVE",
"352 704 CURVE SMOOTH",
"328 712 OFFCURVE",
"303 716 OFFCURVE",
"276 716 CURVE SMOOTH"
);
}
);
width = 541;
}
);
note = three;
unicode = 0033;
},
{
glyphname = four;
layers = (
{
layerId = "3F211455-7DB7-4737-9D97-BF0B219628E9";
name = Light;
paths = (
{
closed = 1;
nodes = (
"432 241 LINE",
"432 708 LINE",
"389 708 LINE",
"34 238 LINE",
"38 215 LINE",
"39 211 OFFCURVE",
"41 208 OFFCURVE",
"44 206 CURVE SMOOTH",
"47 204 OFFCURVE",
"50 203 OFFCURVE",
"55 203 CURVE SMOOTH",
"388 203 LINE",
"388 0 LINE",
"432 0 LINE",
"432 203 LINE",
"548 203 LINE SMOOTH",
"553 203 OFFCURVE",
"556 204 OFFCURVE",
"558 206 CURVE SMOOTH",
"560 208 OFFCURVE",
"561 211 OFFCURVE",
"561 215 CURVE SMOOTH",
"561 241 LINE"
);
},
{
closed = 1;
nodes = (
"388 241 LINE",
"86 241 LINE",
"391 649 LINE",
"390 642 OFFCURVE",
"389 636 OFFCURVE",
"389 630 CURVE SMOOTH",
"389 624 OFFCURVE",
"388 618 OFFCURVE",
"388 612 CURVE SMOOTH"
);
}
);
width = 589;
}
);
note = four;
unicode = 0034;
},
{
glyphname = five;
layers = (
{
layerId = "3F211455-7DB7-4737-9D97-BF0B219628E9";
name = Light;
paths = (
{
closed = 1;
nodes = (
"442 708 LINE",
"124 708 LINE",
"68 394 LINE",
"99 384 LINE",
"123 391 OFFCURVE",
"146 396 OFFCURVE",
"167 399 CURVE SMOOTH",
"188 402 OFFCURVE",
"208 404 OFFCURVE",
"227 404 CURVE SMOOTH",
"258 404 OFFCURVE",
"286 399 OFFCURVE",
"309 391 CURVE SMOOTH",
"332 383 OFFCURVE",
"352 370 OFFCURVE",
"367 355 CURVE SMOOTH",
"382 340 OFFCURVE",
"393 321 OFFCURVE",
"401 300 CURVE SMOOTH",
"409 279 OFFCURVE",
"412 255 OFFCURVE",
"412 230 CURVE SMOOTH",
"412 199 OFFCURVE",
"407 171 OFFCURVE",
"397 147 CURVE SMOOTH",
"387 123 OFFCURVE",
"374 103 OFFCURVE",
"356 86 CURVE SMOOTH",
"338 69 OFFCURVE",
"318 56 OFFCURVE",
"294 47 CURVE SMOOTH",
"270 38 OFFCURVE",
"245 34 OFFCURVE",
"218 34 CURVE SMOOTH",
"195 34 OFFCURVE",
"175 37 OFFCURVE",
"157 42 CURVE SMOOTH",
"139 47 OFFCURVE",
"124 52 OFFCURVE",
"111 58 CURVE SMOOTH",
"98 64 OFFCURVE",
"88 69 OFFCURVE",
"80 74 CURVE SMOOTH",
"72 79 OFFCURVE",
"65 82 OFFCURVE",
"61 82 CURVE SMOOTH",
"55 82 OFFCURVE",
"49 79 OFFCURVE",
"46 74 CURVE",
"32 55 LINE",
"42 47 OFFCURVE",
"54 40 OFFCURVE",
"67 32 CURVE SMOOTH",
"80 24 OFFCURVE",
"94 17 OFFCURVE",
"110 11 CURVE SMOOTH",
"126 5 OFFCURVE",
"142 1 OFFCURVE",
"160 -3 CURVE SMOOTH",
"178 -7 OFFCURVE",
"196 -8 OFFCURVE",
"216 -8 CURVE SMOOTH",
"249 -8 OFFCURVE",
"280 -3 OFFCURVE",
"310 8 CURVE SMOOTH",
"340 19 OFFCURVE",
"366 35 OFFCURVE",
"388 56 CURVE SMOOTH",
"410 77 OFFCURVE",
"428 101 OFFCURVE",
"441 131 CURVE SMOOTH",
"454 161 OFFCURVE",
"460 195 OFFCURVE",
"460 232 CURVE SMOOTH",
"460 263 OFFCURVE",
"456 290 OFFCURVE",
"446 316 CURVE SMOOTH",
"436 342 OFFCURVE",
"422 365 OFFCURVE",
"403 384 CURVE SMOOTH",
"384 403 OFFCURVE",
"361 418 OFFCURVE",
"333 428 CURVE SMOOTH",
"305 438 OFFCURVE",
"273 444 OFFCURVE",
"236 444 CURVE SMOOTH",
"218 444 OFFCURVE",
"198 442 OFFCURVE",
"178 440 CURVE SMOOTH",
"158 438 OFFCURVE",
"137 434 OFFCURVE",
"115 428 CURVE",
"158 664 LINE",
"414 664 LINE SMOOTH",
"424 664 OFFCURVE",
"430 666 OFFCURVE",
"435 670 CURVE",
"439 674 OFFCURVE",
"442 680 OFFCURVE",
"442 687 CURVE SMOOTH"
);
}
);
width = 508;
}
);
note = five;
unicode = 0035;
},
{
glyphname = six;
layers = (
{
layerId = "3F211455-7DB7-4737-9D97-BF0B219628E9";
name = Light;
paths = (
{
closed = 1;
nodes = (
"258 423 OFFCURVE",
"228 418 OFFCURVE",
"201 406 CURVE SMOOTH",
"174 394 OFFCURVE",
"151 378 OFFCURVE",
"131 358 CURVE",
"138 370 OFFCURVE",
"145 382 OFFCURVE",
"154 394 CURVE SMOOTH",
"163 406 OFFCURVE",
"173 418 OFFCURVE",
"183 432 CURVE SMOOTH",
"394 708 LINE",
"352 708 LINE SMOOTH",
"341 708 OFFCURVE",
"332 704 OFFCURVE",
"326 696 CURVE SMOOTH",
"134 436 LINE SMOOTH",
"102 393 OFFCURVE",
"78 354 OFFCURVE",
"64 319 CURVE SMOOTH",
"50 284 OFFCURVE",
"44 253 OFFCURVE",
"44 225 CURVE SMOOTH",
"44 189 OFFCURVE",
"49 156 OFFCURVE",
"60 127 CURVE SMOOTH",
"71 98 OFFCURVE",
"85 74 OFFCURVE",
"105 54 CURVE SMOOTH",
"125 34 OFFCURVE",
"148 19 OFFCURVE",
"175 8 CURVE SMOOTH",
"202 -3 OFFCURVE",
"233 -8 OFFCURVE",
"266 -8 CURVE SMOOTH",
"300 -8 OFFCURVE",
"331 -3 OFFCURVE",
"360 8 CURVE SMOOTH",
"389 19 OFFCURVE",
"414 34 OFFCURVE",
"434 54 CURVE SMOOTH",
"454 74 OFFCURVE",
"470 97 OFFCURVE",
"482 124 CURVE SMOOTH",
"494 151 OFFCURVE",
"499 181 OFFCURVE",
"499 213 CURVE SMOOTH",
"499 245 OFFCURVE",
"493 274 OFFCURVE",
"483 300 CURVE SMOOTH",
"473 326 OFFCURVE",
"458 348 OFFCURVE",
"440 366 CURVE SMOOTH",
"422 384 OFFCURVE",
"400 398 OFFCURVE",
"374 408 CURVE SMOOTH",
"348 418 OFFCURVE",
"320 423 OFFCURVE",
"290 423 CURVE SMOOTH"
);
},
{
closed = 1;
nodes = (
"90 235 OFFCURVE",
"94 255 OFFCURVE",
"102 276 CURVE SMOOTH",
"110 297 OFFCURVE",
"123 315 OFFCURVE",
"139 331 CURVE SMOOTH",
"155 347 OFFCURVE",
"175 361 OFFCURVE",
"198 371 CURVE SMOOTH",
"221 381 OFFCURVE",
"247 386 OFFCURVE",
"276 386 CURVE SMOOTH",
"302 386 OFFCURVE",
"327 382 OFFCURVE",
"348 374 CURVE SMOOTH",
"369 366 OFFCURVE",
"387 354 OFFCURVE",
"403 339 CURVE SMOOTH",
"419 324 OFFCURVE",
"431 305 OFFCURVE",
"439 283 CURVE SMOOTH",
"447 261 OFFCURVE",
"452 237 OFFCURVE",
"452 210 CURVE SMOOTH",
"452 184 OFFCURVE",
"447 161 OFFCURVE",
"438 139 CURVE SMOOTH",
"429 117 OFFCURVE",
"417 98 OFFCURVE",
"401 82 CURVE SMOOTH",
"385 66 OFFCURVE",
"365 54 OFFCURVE",
"342 45 CURVE SMOOTH",
"319 36 OFFCURVE",
"294 32 OFFCURVE",
"265 32 CURVE SMOOTH",
"238 32 OFFCURVE",
"214 36 OFFCURVE",
"192 45 CURVE SMOOTH",
"170 54 OFFCURVE",
"152 67 OFFCURVE",
"137 83 CURVE SMOOTH",
"122 99 OFFCURVE",
"110 118 OFFCURVE",
"102 140 CURVE SMOOTH",
"94 162 OFFCURVE",
"90 188 OFFCURVE",
"90 214 CURVE SMOOTH"
);
}
);
width = 539;
}
);
note = six;
unicode = 0036;
},
{
glyphname = seven;
layers = (
{
layerId = "3F211455-7DB7-4737-9D97-BF0B219628E9";
name = Light;
paths = (
{
closed = 1;
nodes = (
"95 707 LINE",
"44 707 LINE",
"44 677 LINE",
"44 573 LINE",
"68 573 LINE SMOOTH",
"82 573 OFFCURVE",
"88 581 OFFCURVE",
"89 597 CURVE",
"89 603 OFFCURVE",
"91 626 OFFCURVE",
"93 664 CURVE",
"464 664 LINE",
"458 657 OFFCURVE",
"453 649 OFFCURVE",
"449 640 CURVE",
"123 0 LINE",
"155 0 LINE SMOOTH",
"162 0 OFFCURVE",
"169 2 OFFCURVE",
"173 5 CURVE SMOOTH",
"177 8 OFFCURVE",
"181 13 OFFCURVE",
"184 18 CURVE",
"508 661 LINE",
"510 664 OFFCURVE",
"511 667 OFFCURVE",
"512 671 CURVE SMOOTH",
"513 675 OFFCURVE",
"514 680 OFFCURVE",
"514 686 CURVE SMOOTH",
"514 708 LINE"
);
}
);
width = 550;
}
);
note = seven;
unicode = 0037;
},
{
glyphname = eight;
layers = (
{
layerId = "3F211455-7DB7-4737-9D97-BF0B219628E9";
name = Light;
paths = (
{
closed = 1;
nodes = (
"311 -8 OFFCURVE",
"343 -3 OFFCURVE",
"371 6 CURVE SMOOTH",
"399 15 OFFCURVE",
"423 27 OFFCURVE",
"443 44 CURVE SMOOTH",
"463 61 OFFCURVE",
"479 82 OFFCURVE",
"490 106 CURVE SMOOTH",
"501 130 OFFCURVE",
"507 157 OFFCURVE",
"507 187 CURVE SMOOTH",
"507 213 OFFCURVE",
"504 236 OFFCURVE",
"496 256 CURVE SMOOTH",
"488 276 OFFCURVE",
"478 295 OFFCURVE",
"464 310 CURVE SMOOTH",
"450 325 OFFCURVE",
"434 337 OFFCURVE",
"415 347 CURVE SMOOTH",
"396 357 OFFCURVE",
"376 365 OFFCURVE",
"353 370 CURVE",
"374 376 OFFCURVE",
"392 384 OFFCURVE",
"408 394 CURVE SMOOTH",
"424 404 OFFCURVE",
"437 417 OFFCURVE",
"448 431 CURVE SMOOTH",
"459 445 OFFCURVE",
"467 461 OFFCURVE",
"473 479 CURVE SMOOTH",
"479 497 OFFCURVE",
"482 515 OFFCURVE",
"482 535 CURVE SMOOTH",
"482 560 OFFCURVE",
"478 584 OFFCURVE",
"468 606 CURVE SMOOTH",
"458 628 OFFCURVE",
"445 647 OFFCURVE",
"427 663 CURVE SMOOTH",
"409 679 OFFCURVE",
"387 693 OFFCURVE",
"362 702 CURVE SMOOTH",
"337 711 OFFCURVE",
"309 716 OFFCURVE",
"278 716 CURVE SMOOTH",
"246 716 OFFCURVE",
"217 711 OFFCURVE",
"192 702 CURVE SMOOTH",
"167 693 OFFCURVE",
"146 679 OFFCURVE",
"128 663 CURVE SMOOTH",
"110 647 OFFCURVE",
"97 628 OFFCURVE",
"87 606 CURVE SMOOTH",
"77 584 OFFCURVE",
"73 560 OFFCURVE",
"73 535 CURVE SMOOTH",
"73 515 OFFCURVE",
"76 497 OFFCURVE",
"82 479 CURVE SMOOTH",
"88 461 OFFCURVE",
"95 445 OFFCURVE",
"106 431 CURVE SMOOTH",
"117 417 OFFCURVE",
"130 404 OFFCURVE",
"146 394 CURVE SMOOTH",
"162 384 OFFCURVE",
"181 376 OFFCURVE",
"202 370 CURVE",
"179 365 OFFCURVE",
"158 357 OFFCURVE",
"139 347 CURVE SMOOTH",
"120 337 OFFCURVE",
"104 325 OFFCURVE",
"90 310 CURVE SMOOTH",
"76 295 OFFCURVE",
"67 276 OFFCURVE",
"59 256 CURVE SMOOTH",
"51 236 OFFCURVE",
"48 213 OFFCURVE",
"48 187 CURVE SMOOTH",
"48 157 OFFCURVE",
"53 130 OFFCURVE",
"64 106 CURVE SMOOTH",
"75 82 OFFCURVE",
"92 61 OFFCURVE",
"112 44 CURVE SMOOTH",
"132 27 OFFCURVE",
"156 15 OFFCURVE",
"184 6 CURVE SMOOTH",
"212 -3 OFFCURVE",
"243 -8 OFFCURVE",
"277 -8 CURVE SMOOTH"
);
},
{
closed = 1;
nodes = (
"251 30 OFFCURVE",
"226 33 OFFCURVE",
"204 41 CURVE SMOOTH",
"182 49 OFFCURVE",
"162 59 OFFCURVE",
"146 73 CURVE SMOOTH",
"130 87 OFFCURVE",
"118 104 OFFCURVE",
"109 123 CURVE SMOOTH",
"100 142 OFFCURVE",
"96 164 OFFCURVE",
"96 188 CURVE SMOOTH",
"96 219 OFFCURVE",
"102 244 OFFCURVE",
"113 265 CURVE SMOOTH",
"124 286 OFFCURVE",
"139 302 OFFCURVE",
"157 314 CURVE SMOOTH",
"175 326 OFFCURVE",
"194 336 OFFCURVE",
"215 341 CURVE SMOOTH",
"236 346 OFFCURVE",
"257 348 OFFCURVE",
"277 348 CURVE SMOOTH",
"297 348 OFFCURVE",
"318 346 OFFCURVE",
"339 341 CURVE SMOOTH",
"360 336 OFFCURVE",
"380 326 OFFCURVE",
"398 314 CURVE SMOOTH",
"416 302 OFFCURVE",
"430 286 OFFCURVE",
"441 265 CURVE SMOOTH",
"452 244 OFFCURVE",
"458 219 OFFCURVE",
"458 188 CURVE SMOOTH",
"458 164 OFFCURVE",
"454 142 OFFCURVE",
"445 123 CURVE SMOOTH",
"436 104 OFFCURVE",
"424 87 OFFCURVE",
"408 73 CURVE SMOOTH",
"392 59 OFFCURVE",
"373 49 OFFCURVE",
"351 41 CURVE SMOOTH",
"329 33 OFFCURVE",
"305 30 OFFCURVE",
"278 30 CURVE SMOOTH"
);
},
{
closed = 1;
nodes = (
"250 387 OFFCURVE",
"227 391 OFFCURVE",
"207 399 CURVE SMOOTH",
"187 407 OFFCURVE",
"170 418 OFFCURVE",
"157 432 CURVE SMOOTH",
"144 446 OFFCURVE",
"135 462 OFFCURVE",
"129 480 CURVE SMOOTH",
"123 498 OFFCURVE",
"119 515 OFFCURVE",
"119 534 CURVE SMOOTH",
"119 554 OFFCURVE",
"123 573 OFFCURVE",
"130 591 CURVE SMOOTH",
"137 609 OFFCURVE",
"147 624 OFFCURVE",
"161 637 CURVE SMOOTH",
"175 650 OFFCURVE",
"190 660 OFFCURVE",
"210 667 CURVE SMOOTH",
"230 674 OFFCURVE",
"252 678 OFFCURVE",
"277 678 CURVE SMOOTH",
"302 678 OFFCURVE",
"324 674 OFFCURVE",
"344 667 CURVE SMOOTH",
"364 660 OFFCURVE",
"380 650 OFFCURVE",
"394 637 CURVE SMOOTH",
"408 624 OFFCURVE",
"417 609 OFFCURVE",
"424 591 CURVE SMOOTH",
"431 573 OFFCURVE",
"435 554 OFFCURVE",
"435 534 CURVE SMOOTH",
"435 515 OFFCURVE",
"432 497 OFFCURVE",
"426 479 CURVE SMOOTH",
"420 461 OFFCURVE",
"410 446 OFFCURVE",
"397 432 CURVE SMOOTH",
"384 418 OFFCURVE",
"368 407 OFFCURVE",
"348 399 CURVE SMOOTH",
"328 391 OFFCURVE",
"304 387 OFFCURVE",
"277 387 CURVE SMOOTH"
);
}
);
width = 553;
}
);
note = eight;
unicode = 0038;
},
{
glyphname = nine;
layers = (
{
layerId = "3F211455-7DB7-4737-9D97-BF0B219628E9";
name = Light;
paths = (
{
closed = 1;
nodes = (
"276 301 OFFCURVE",
"305 306 OFFCURVE",
"333 318 CURVE SMOOTH",
"361 330 OFFCURVE",
"385 347 OFFCURVE",
"404 368 CURVE",
"397 356 OFFCURVE",
"388 344 OFFCURVE",
"380 332 CURVE SMOOTH",
"372 320 OFFCURVE",
"362 306 OFFCURVE",
"352 292 CURVE SMOOTH",
"144 0 LINE",
"186 0 LINE SMOOTH",
"197 0 OFFCURVE",
"206 4 OFFCURVE",
"211 12 CURVE",
"396 284 LINE SMOOTH",
"410 304 OFFCURVE",
"422 322 OFFCURVE",
"433 340 CURVE SMOOTH",
"444 358 OFFCURVE",
"452 374 OFFCURVE",
"460 391 CURVE",
"467 408 OFFCURVE",
"473 424 OFFCURVE",
"477 441 CURVE SMOOTH",
"481 458 OFFCURVE",
"483 476 OFFCURVE",
"483 494 CURVE SMOOTH",
"483 527 OFFCURVE",
"477 557 OFFCURVE",
"467 584 CURVE SMOOTH",
"457 611 OFFCURVE",
"442 634 OFFCURVE",
"423 654 CURVE SMOOTH",
"404 674 OFFCURVE",
"382 689 OFFCURVE",
"356 700 CURVE SMOOTH",
"330 711 OFFCURVE",
"301 716 OFFCURVE",
"270 716 CURVE SMOOTH",
"237 716 OFFCURVE",
"207 710 OFFCURVE",
"179 699 CURVE SMOOTH",
"151 688 OFFCURVE",
"128 673 OFFCURVE",
"108 654 CURVE SMOOTH",
"88 635 OFFCURVE",
"72 613 OFFCURVE",
"61 587 CURVE SMOOTH",
"50 561 OFFCURVE",
"44 533 OFFCURVE",
"44 503 CURVE SMOOTH",
"44 472 OFFCURVE",
"50 445 OFFCURVE",
"60 420 CURVE SMOOTH",
"70 395 OFFCURVE",
"83 374 OFFCURVE",
"101 356 CURVE SMOOTH",
"119 338 OFFCURVE",
"141 325 OFFCURVE",
"165 315 CURVE SMOOTH",
"189 305 OFFCURVE",
"216 301 OFFCURVE",
"245 301 CURVE SMOOTH"
);
},
{
closed = 1;
nodes = (
"437 482 OFFCURVE",
"433 463 OFFCURVE",
"425 443 CURVE SMOOTH",
"417 423 OFFCURVE",
"405 406 OFFCURVE",
"390 390 CURVE SMOOTH",
"375 374 OFFCURVE",
"356 362 OFFCURVE",
"334 352 CURVE SMOOTH",
"312 342 OFFCURVE",
"286 338 OFFCURVE",
"258 338 CURVE SMOOTH",
"233 338 OFFCURVE",
"210 342 OFFCURVE",
"190 350 CURVE SMOOTH",
"170 358 OFFCURVE",
"152 369 OFFCURVE",
"138 383 CURVE SMOOTH",
"124 397 OFFCURVE",
"112 415 OFFCURVE",
"104 436 CURVE SMOOTH",
"96 457 OFFCURVE",
"92 480 OFFCURVE",
"92 506 CURVE SMOOTH",
"92 531 OFFCURVE",
"96 554 OFFCURVE",
"105 575 CURVE SMOOTH",
"114 596 OFFCURVE",
"125 613 OFFCURVE",
"141 628 CURVE SMOOTH",
"157 643 OFFCURVE",
"175 656 OFFCURVE",
"197 664 CURVE SMOOTH",
"219 672 OFFCURVE",
"243 676 OFFCURVE",
"269 676 CURVE SMOOTH",
"293 676 OFFCURVE",
"316 671 OFFCURVE",
"336 663 CURVE SMOOTH",
"356 655 OFFCURVE",
"375 643 OFFCURVE",
"390 628 CURVE SMOOTH",
"405 613 OFFCURVE",
"416 594 OFFCURVE",
"424 573 CURVE SMOOTH",
"432 552 OFFCURVE",
"437 528 OFFCURVE",
"437 502 CURVE SMOOTH"
);
}
);
width = 531;
}
);
note = nine;
unicode = 0039;
},
{
glyphname = colon;
layers = (
{
layerId = "3F211455-7DB7-4737-9D97-BF0B219628E9";
name = Light;
paths = (
{
closed = 1;
nodes = (
"68 25 OFFCURVE",
"73 15 OFFCURVE",
"82 6 CURVE SMOOTH",
"91 -3 OFFCURVE",
"101 -8 OFFCURVE",
"114 -8 CURVE SMOOTH",
"120 -8 OFFCURVE",
"126 -6 OFFCURVE",
"132 -4 CURVE SMOOTH",
"138 -2 OFFCURVE",
"143 2 OFFCURVE",
"147 6 CURVE SMOOTH",
"151 10 OFFCURVE",
"155 14 OFFCURVE",
"157 20 CURVE SMOOTH",
"159 26 OFFCURVE",
"161 31 OFFCURVE",
"161 38 CURVE SMOOTH",
"161 44 OFFCURVE",
"159 50 OFFCURVE",
"157 56 CURVE SMOOTH",
"155 62 OFFCURVE",
"151 67 OFFCURVE",
"147 71 CURVE SMOOTH",
"143 75 OFFCURVE",
"138 79 OFFCURVE",
"132 81 CURVE SMOOTH",
"126 83 OFFCURVE",
"120 85 OFFCURVE",
"114 85 CURVE SMOOTH",
"107 85 OFFCURVE",
"102 83 OFFCURVE",
"96 81 CURVE SMOOTH",
"90 79 OFFCURVE",
"86 75 OFFCURVE",
"82 71 CURVE SMOOTH",
"78 67 OFFCURVE",
"74 62 OFFCURVE",
"72 56 CURVE SMOOTH",
"70 50 OFFCURVE",
"68 44 OFFCURVE",
"68 38 CURVE SMOOTH"
);
},
{
closed = 1;
nodes = (
"68 424 OFFCURVE",
"73 413 OFFCURVE",
"82 404 CURVE SMOOTH",
"91 395 OFFCURVE",
"101 391 OFFCURVE",
"114 391 CURVE SMOOTH",
"120 391 OFFCURVE",
"126 392 OFFCURVE",
"132 394 CURVE SMOOTH",
"138 396 OFFCURVE",
"143 400 OFFCURVE",
"147 404 CURVE SMOOTH",
"151 408 OFFCURVE",
"155 413 OFFCURVE",
"157 419 CURVE",
"159 424 OFFCURVE",
"161 430 OFFCURVE",
"161 437 CURVE SMOOTH",
"161 443 OFFCURVE",
"159 449 OFFCURVE",
"157 455 CURVE SMOOTH",
"155 461 OFFCURVE",
"151 466 OFFCURVE",
"147 470 CURVE SMOOTH",
"143 474 OFFCURVE",
"138 477 OFFCURVE",
"132 480 CURVE",
"126 482 OFFCURVE",
"120 484 OFFCURVE",
"114 484 CURVE SMOOTH",
"107 484 OFFCURVE",
"102 482 OFFCURVE",
"96 480 CURVE SMOOTH",
"90 478 OFFCURVE",
"86 474 OFFCURVE",
"82 470 CURVE SMOOTH",
"78 466 OFFCURVE",
"74 461 OFFCURVE",
"72 455 CURVE SMOOTH",
"70 449 OFFCURVE",
"68 443 OFFCURVE",
"68 437 CURVE SMOOTH"
);
}
);
width = 228;
}
);
note = colon;
unicode = 003A;
},
{
glyphname = semicolon;
layers = (
{
layerId = "3F211455-7DB7-4737-9D97-BF0B219628E9";
name = Light;
paths = (
{
closed = 1;
nodes = (
"70 424 OFFCURVE",
"74 413 OFFCURVE",
"83 404 CURVE SMOOTH",
"92 395 OFFCURVE",
"103 391 OFFCURVE",
"116 391 CURVE SMOOTH",
"122 391 OFFCURVE",
"128 392 OFFCURVE",
"134 394 CURVE SMOOTH",
"140 396 OFFCURVE",
"145 400 OFFCURVE",
"149 404 CURVE SMOOTH",
"153 408 OFFCURVE",
"157 413 OFFCURVE",
"159 419 CURVE",
"161 424 OFFCURVE",
"162 430 OFFCURVE",
"162 437 CURVE SMOOTH",
"162 443 OFFCURVE",
"161 449 OFFCURVE",
"159 455 CURVE SMOOTH",
"157 461 OFFCURVE",
"153 466 OFFCURVE",
"149 470 CURVE SMOOTH",
"145 474 OFFCURVE",
"140 477 OFFCURVE",
"134 480 CURVE",
"128 482 OFFCURVE",
"122 484 OFFCURVE",
"116 484 CURVE SMOOTH",
"109 484 OFFCURVE",
"104 482 OFFCURVE",
"98 480 CURVE SMOOTH",
"92 478 OFFCURVE",
"87 474 OFFCURVE",
"83 470 CURVE SMOOTH",
"79 466 OFFCURVE",
"76 461 OFFCURVE",
"74 455 CURVE SMOOTH",
"72 449 OFFCURVE",
"70 443 OFFCURVE",
"70 437 CURVE SMOOTH"
);
},
{
closed = 1;
nodes = (
"72 30 OFFCURVE",
"76 19 OFFCURVE",
"84 11 CURVE SMOOTH",
"92 3 OFFCURVE",
"102 -2 OFFCURVE",
"114 -2 CURVE SMOOTH",
"117 -2 OFFCURVE",
"121 -1 OFFCURVE",
"123 -1 CURVE SMOOTH",
"125 -1 OFFCURVE",
"128 -1 OFFCURVE",
"130 0 CURVE",
"129 -12 OFFCURVE",
"125 -23 OFFCURVE",
"121 -34 CURVE SMOOTH",
"117 -45 OFFCURVE",
"112 -54 OFFCURVE",
"107 -63 CURVE SMOOTH",
"102 -72 OFFCURVE",
"97 -80 OFFCURVE",
"92 -86 CURVE SMOOTH",
"87 -92 OFFCURVE",
"82 -98 OFFCURVE",
"79 -101 CURVE SMOOTH",
"78 -102 OFFCURVE",
"77 -103 OFFCURVE",
"76 -105 CURVE SMOOTH",
"75 -107 OFFCURVE",
"74 -108 OFFCURVE",
"74 -110 CURVE SMOOTH",
"74 -113 OFFCURVE",
"75 -116 OFFCURVE",
"78 -119 CURVE",
"86 -126 LINE",
"97 -115 OFFCURVE",
"108 -104 OFFCURVE",
"117 -91 CURVE SMOOTH",
"126 -78 OFFCURVE",
"134 -66 OFFCURVE",
"141 -52 CURVE SMOOTH",
"148 -38 OFFCURVE",
"152 -24 OFFCURVE",
"156 -10 CURVE SMOOTH",
"160 4 OFFCURVE",
"161 18 OFFCURVE",
"161 32 CURVE SMOOTH",
"161 48 OFFCURVE",
"157 60 OFFCURVE",
"149 70 CURVE SMOOTH",
"141 80 OFFCURVE",
"130 85 OFFCURVE",
"116 85 CURVE SMOOTH",
"103 85 OFFCURVE",
"93 80 OFFCURVE",
"85 72 CURVE SMOOTH",
"77 64 OFFCURVE",
"72 55 OFFCURVE",
"72 43 CURVE SMOOTH"
);
}
);
width = 229;
}
);
note = semicolon;
unicode = 003B;
},
{
glyphname = less;
layers = (
{
layerId = "3F211455-7DB7-4737-9D97-BF0B219628E9";
name = Light;
paths = (
{
closed = 1;
nodes = (
"46 346 LINE",
"46 326 LINE",
"422 132 LINE",
"422 165 LINE SMOOTH",
"422 169 OFFCURVE",
"420 171 OFFCURVE",
"418 174 CURVE SMOOTH",
"416 177 OFFCURVE",
"413 179 OFFCURVE",
"408 182 CURVE",
"132 323 LINE SMOOTH",
"122 328 OFFCURVE",
"110 332 OFFCURVE",
"96 335 CURVE",
"109 338 OFFCURVE",
"121 342 OFFCURVE",
"132 348 CURVE SMOOTH",
"408 488 LINE",
"413 491 OFFCURVE",
"416 493 OFFCURVE",
"418 496 CURVE SMOOTH",
"420 499 OFFCURVE",
"422 502 OFFCURVE",
"422 506 CURVE SMOOTH",
"422 538 LINE"
);
}
);
width = 475;
}
);
note = less;
unicode = 003C;
},
{
glyphname = equal;
layers = (
{
layerId = "3F211455-7DB7-4737-9D97-BF0B219628E9";
name = Light;
paths = (
{
closed = 1;
nodes = (
"70 278 LINE",
"70 241 LINE",
"483 241 LINE",
"483 278 LINE"
);
},
{
closed = 1;
nodes = (
"70 434 LINE",
"70 398 LINE",
"483 398 LINE",
"483 434 LINE"
);
}
);
width = 551;
}
);
note = equal;
unicode = 003D;
},
{
glyphname = greater;
layers = (
{
layerId = "3F211455-7DB7-4737-9D97-BF0B219628E9";
name = Light;
paths = (
{
closed = 1;
nodes = (
"54 132 LINE",
"428 326 LINE",
"428 346 LINE",
"54 538 LINE",
"54 506 LINE SMOOTH",
"54 499 OFFCURVE",
"57 493 OFFCURVE",
"66 488 CURVE",
"344 348 LINE SMOOTH",
"350 345 OFFCURVE",
"354 343 OFFCURVE",
"360 341 CURVE SMOOTH",
"366 339 OFFCURVE",
"372 338 OFFCURVE",
"379 336 CURVE",
"366 333 OFFCURVE",
"354 328 OFFCURVE",
"344 323 CURVE SMOOTH",
"66 183 LINE",
"61 181 OFFCURVE",
"58 178 OFFCURVE",
"56 175 CURVE SMOOTH",
"54 172 OFFCURVE",
"54 169 OFFCURVE",
"54 165 CURVE SMOOTH"
);
}
);
width = 475;
}
);
note = greater;
unicode = 003E;
},
{
glyphname = question;
layers = (
{
layerId = "3F211455-7DB7-4737-9D97-BF0B219628E9";
name = Light;
paths = (
{
closed = 1;
nodes = (
"44 626 LINE",
"46 622 OFFCURVE",
"51 620 OFFCURVE",
"56 620 CURVE SMOOTH",
"58 620 OFFCURVE",
"62 623 OFFCURVE",
"68 629 CURVE SMOOTH",
"74 635 OFFCURVE",
"83 641 OFFCURVE",
"94 648 CURVE SMOOTH",
"105 655 OFFCURVE",
"119 662 OFFCURVE",
"135 668 CURVE SMOOTH",
"151 674 OFFCURVE",
"170 676 OFFCURVE",
"192 676 CURVE SMOOTH",
"209 676 OFFCURVE",
"226 674 OFFCURVE",
"242 669 CURVE SMOOTH",
"258 664 OFFCURVE",
"271 656 OFFCURVE",
"283 646 CURVE SMOOTH",
"295 636 OFFCURVE",
"305 624 OFFCURVE",
"312 610 CURVE SMOOTH",
"319 596 OFFCURVE",
"322 580 OFFCURVE",
"322 562 CURVE SMOOTH",
"322 540 OFFCURVE",
"318 520 OFFCURVE",
"310 504 CURVE SMOOTH",
"302 488 OFFCURVE",
"292 474 OFFCURVE",
"280 461 CURVE",
"268 449 OFFCURVE",
"256 437 OFFCURVE",
"242 427 CURVE SMOOTH",
"228 417 OFFCURVE",
"215 407 OFFCURVE",
"203 397 CURVE SMOOTH",
"191 387 OFFCURVE",
"182 377 OFFCURVE",
"174 367 CURVE SMOOTH",
"166 357 OFFCURVE",
"162 345 OFFCURVE",
"162 331 CURVE SMOOTH",
"162 329 LINE",
"164 243 LINE",
"196 243 LINE",
"202 325 LINE SMOOTH",
"203 336 OFFCURVE",
"208 347 OFFCURVE",
"216 356 CURVE SMOOTH",
"224 365 OFFCURVE",
"235 375 OFFCURVE",
"247 384 CURVE SMOOTH",
"259 393 OFFCURVE",
"272 403 OFFCURVE",
"286 414 CURVE",
"300 424 OFFCURVE",
"314 436 OFFCURVE",
"326 450 CURVE SMOOTH",
"338 464 OFFCURVE",
"347 480 OFFCURVE",
"355 498 CURVE SMOOTH",
"363 516 OFFCURVE",
"367 539 OFFCURVE",
"367 564 CURVE SMOOTH",
"367 587 OFFCURVE",
"362 608 OFFCURVE",
"353 627 CURVE SMOOTH",
"344 646 OFFCURVE",
"332 662 OFFCURVE",
"316 675 CURVE SMOOTH",
"300 688 OFFCURVE",
"283 698 OFFCURVE",
"262 705 CURVE SMOOTH",
"241 712 OFFCURVE",
"219 716 OFFCURVE",
"196 716 CURVE SMOOTH",
"177 716 OFFCURVE",
"160 714 OFFCURVE",
"144 710 CURVE SMOOTH",
"128 706 OFFCURVE",
"114 700 OFFCURVE",
"100 694 CURVE SMOOTH",
"86 688 OFFCURVE",
"73 680 OFFCURVE",
"62 672 CURVE SMOOTH",
"51 664 OFFCURVE",
"41 655 OFFCURVE",
"32 646 CURVE"
);
},
{
closed = 1;
nodes = (
"133 25 OFFCURVE",
"137 15 OFFCURVE",
"146 6 CURVE SMOOTH",
"155 -3 OFFCURVE",
"166 -8 OFFCURVE",
"179 -8 CURVE SMOOTH",
"185 -8 OFFCURVE",
"191 -6 OFFCURVE",
"197 -4 CURVE SMOOTH",
"203 -2 OFFCURVE",
"208 2 OFFCURVE",
"212 6 CURVE SMOOTH",
"216 10 OFFCURVE",
"220 14 OFFCURVE",
"222 20 CURVE SMOOTH",
"224 26 OFFCURVE",
"225 31 OFFCURVE",
"225 38 CURVE SMOOTH",
"225 44 OFFCURVE",
"224 50 OFFCURVE",
"222 56 CURVE SMOOTH",
"220 62 OFFCURVE",
"216 67 OFFCURVE",
"212 71 CURVE SMOOTH",
"208 75 OFFCURVE",
"203 79 OFFCURVE",
"197 81 CURVE SMOOTH",
"191 83 OFFCURVE",
"185 85 OFFCURVE",
"179 85 CURVE SMOOTH",
"172 85 OFFCURVE",
"167 83 OFFCURVE",
"161 81 CURVE",
"156 79 OFFCURVE",
"150 75 OFFCURVE",
"146 71 CURVE SMOOTH",
"142 67 OFFCURVE",
"138 62 OFFCURVE",
"136 56 CURVE SMOOTH",
"134 50 OFFCURVE",
"133 44 OFFCURVE",
"133 38 CURVE SMOOTH"
);
}
);
width = 411;
}
);
note = question;
unicode = 003F;
},
{
glyphname = at;
layers = (
{
layerId = "3F211455-7DB7-4737-9D97-BF0B219628E9";
name = Light;
paths = (
{
closed = 1;
nodes = (
"603 94 OFFCURVE",
"627 100 OFFCURVE",
"650 112 CURVE SMOOTH",
"673 124 OFFCURVE",
"692 140 OFFCURVE",
"709 162 CURVE SMOOTH",
"726 184 OFFCURVE",
"738 210 OFFCURVE",
"748 240 CURVE SMOOTH",
"758 270 OFFCURVE",
"763 303 OFFCURVE",
"763 339 CURVE SMOOTH",
"763 393 OFFCURVE",
"754 439 OFFCURVE",
"735 480 CURVE SMOOTH",
"716 521 OFFCURVE",
"691 555 OFFCURVE",
"659 583 CURVE SMOOTH",
"627 610 OFFCURVE",
"591 631 OFFCURVE",
"550 645 CURVE SMOOTH",
"509 659 OFFCURVE",
"467 666 OFFCURVE",
"422 666 CURVE SMOOTH",
"370 666 OFFCURVE",
"321 656 OFFCURVE",
"276 636 CURVE SMOOTH",
"231 616 OFFCURVE",
"192 589 OFFCURVE",
"158 554 CURVE SMOOTH",
"124 519 OFFCURVE",
"97 478 OFFCURVE",
"77 430 CURVE SMOOTH",
"57 382 OFFCURVE",
"48 330 OFFCURVE",
"48 274 CURVE SMOOTH",
"48 211 OFFCURVE",
"58 156 OFFCURVE",
"78 107 CURVE SMOOTH",
"98 58 OFFCURVE",
"127 18 OFFCURVE",
"162 -16 CURVE SMOOTH",
"197 -50 OFFCURVE",
"238 -75 OFFCURVE",
"286 -93 CURVE SMOOTH",
"334 -111 OFFCURVE",
"385 -119 OFFCURVE",
"440 -119 CURVE SMOOTH",
"495 -119 OFFCURVE",
"544 -112 OFFCURVE",
"589 -99 CURVE SMOOTH",
"634 -86 OFFCURVE",
"675 -67 OFFCURVE",
"712 -42 CURVE",
"705 -24 LINE SMOOTH",
"703 -19 OFFCURVE",
"700 -16 OFFCURVE",
"695 -16 CURVE SMOOTH",
"692 -16 OFFCURVE",
"688 -17 OFFCURVE",
"686 -19 CURVE",
"653 -41 OFFCURVE",
"616 -57 OFFCURVE",
"575 -68 CURVE SMOOTH",
"534 -79 OFFCURVE",
"489 -86 OFFCURVE",
"440 -86 CURVE SMOOTH",
"391 -86 OFFCURVE",
"345 -78 OFFCURVE",
"302 -62 CURVE SMOOTH",
"259 -46 OFFCURVE",
"221 -24 OFFCURVE",
"189 6 CURVE SMOOTH",
"157 36 OFFCURVE",
"131 74 OFFCURVE",
"112 119 CURVE SMOOTH",
"93 164 OFFCURVE",
"84 215 OFFCURVE",
"84 274 CURVE SMOOTH",
"84 326 OFFCURVE",
"93 375 OFFCURVE",
"111 419 CURVE SMOOTH",
"129 463 OFFCURVE",
"154 500 OFFCURVE",
"185 532 CURVE SMOOTH",
"216 564 OFFCURVE",
"251 588 OFFCURVE",
"292 606 CURVE SMOOTH",
"333 624 OFFCURVE",
"376 632 OFFCURVE",
"422 632 CURVE SMOOTH",
"464 632 OFFCURVE",
"503 626 OFFCURVE",
"540 614 CURVE SMOOTH",
"577 602 OFFCURVE",
"609 584 OFFCURVE",
"637 560 CURVE SMOOTH",
"665 536 OFFCURVE",
"687 505 OFFCURVE",
"703 468 CURVE SMOOTH",
"719 431 OFFCURVE",
"728 388 OFFCURVE",
"728 339 CURVE SMOOTH",
"728 306 OFFCURVE",
"724 276 OFFCURVE",
"716 250 CURVE SMOOTH",
"708 224 OFFCURVE",
"697 201 OFFCURVE",
"684 183 CURVE SMOOTH",
"671 165 OFFCURVE",
"655 150 OFFCURVE",
"638 140 CURVE SMOOTH",
"621 130 OFFCURVE",
"602 126 OFFCURVE",
"583 126 CURVE SMOOTH",
"574 126 OFFCURVE",
"566 126 OFFCURVE",
"558 128 CURVE SMOOTH",
"550 130 OFFCURVE",
"543 134 OFFCURVE",
"537 139 CURVE SMOOTH",
"531 144 OFFCURVE",
"526 152 OFFCURVE",
"522 161 CURVE SMOOTH",
"518 170 OFFCURVE",
"517 181 OFFCURVE",
"517 196 CURVE SMOOTH",
"517 206 OFFCURVE",
"518 217 OFFCURVE",
"520 229 CURVE SMOOTH",
"522 241 OFFCURVE",
"524 255 OFFCURVE",
"528 270 CURVE SMOOTH",
"574 444 LINE",
"562 450 OFFCURVE",
"548 454 OFFCURVE",
"532 457 CURVE SMOOTH",
"516 460 OFFCURVE",
"500 462 OFFCURVE",
"482 462 CURVE SMOOTH",
"443 462 OFFCURVE",
"409 454 OFFCURVE",
"379 440 CURVE SMOOTH",
"349 426 OFFCURVE",
"323 407 OFFCURVE",
"302 384 CURVE SMOOTH",
"281 361 OFFCURVE",
"266 335 OFFCURVE",
"255 307 CURVE SMOOTH",
"244 279 OFFCURVE",
"238 250 OFFCURVE",
"238 222 CURVE SMOOTH",
"238 204 OFFCURVE",
"241 187 OFFCURVE",
"245 172 CURVE SMOOTH",
"249 157 OFFCURVE",
"256 143 OFFCURVE",
"265 132 CURVE SMOOTH",
"274 121 OFFCURVE",
"285 112 OFFCURVE",
"299 106 CURVE SMOOTH",
"313 100 OFFCURVE",
"329 96 OFFCURVE",
"348 96 CURVE SMOOTH",
"375 96 OFFCURVE",
"400 103 OFFCURVE",
"424 117 CURVE SMOOTH",
"447 131 OFFCURVE",
"468 153 OFFCURVE",
"487 184 CURVE",
"488 155 OFFCURVE",
"496 133 OFFCURVE",
"511 117 CURVE SMOOTH",
"526 101 OFFCURVE",
"548 94 OFFCURVE",
"577 94 CURVE SMOOTH"
);
},
{
closed = 1;
nodes = (
"344 129 OFFCURVE",
"332 131 OFFCURVE",
"322 136 CURVE SMOOTH",
"312 141 OFFCURVE",
"304 148 OFFCURVE",
"297 156 CURVE SMOOTH",
"290 164 OFFCURVE",
"285 174 OFFCURVE",
"282 186 CURVE SMOOTH",
"279 198 OFFCURVE",
"277 210 OFFCURVE",
"277 223 CURVE SMOOTH",
"277 248 OFFCURVE",
"282 273 OFFCURVE",
"292 297 CURVE SMOOTH",
"302 321 OFFCURVE",
"315 344 OFFCURVE",
"332 364 CURVE SMOOTH",
"349 384 OFFCURVE",
"370 399 OFFCURVE",
"394 411 CURVE SMOOTH",
"418 423 OFFCURVE",
"446 430 OFFCURVE",
"476 430 CURVE SMOOTH",
"487 430 OFFCURVE",
"498 429 OFFCURVE",
"506 428 CURVE SMOOTH",
"514 427 OFFCURVE",
"522 424 OFFCURVE",
"530 422 CURVE",
"490 268 LINE SMOOTH",
"483 240 OFFCURVE",
"474 217 OFFCURVE",
"464 199 CURVE SMOOTH",
"454 181 OFFCURVE",
"443 167 OFFCURVE",
"431 157 CURVE SMOOTH",
"419 147 OFFCURVE",
"407 139 OFFCURVE",
"394 135 CURVE SMOOTH",
"381 131 OFFCURVE",
"369 129 OFFCURVE",
"357 129 CURVE SMOOTH"
);
}
);
width = 811;
}
);
note = at;
unicode = 0040;
},
{
glyphname = A;
layers = (
{
layerId = "3F211455-7DB7-4737-9D97-BF0B219628E9";
name = Light;
paths = (
{
closed = 1;
nodes = (
"681 46 LINE",
"411 708 LINE",
"360 708 LINE",
"89 46 LINE",
"57 43 LINE SMOOTH",
"44 42 OFFCURVE",
"38 35 OFFCURVE",
"38 23 CURVE SMOOTH",
"38 0 LINE",
"70 0 LINE",
"91 0 LINE",
"109 0 LINE",
"116 0 LINE",
"210 0 LINE",
"210 23 LINE SMOOTH",
"210 36 OFFCURVE",
"202 42 OFFCURVE",
"187 43 CURVE",
"186 43 OFFCURVE",
"184 44 OFFCURVE",
"181 44 CURVE SMOOTH",
"178 44 OFFCURVE",
"174 45 OFFCURVE",
"167 45 CURVE SMOOTH",
"160 45 OFFCURVE",
"151 45 OFFCURVE",
"141 46 CURVE",
"211 219 LINE",
"216 232 LINE",
"554 232 LINE",
"559 219 LINE",
"629 46 LINE",
"619 45 OFFCURVE",
"611 45 OFFCURVE",
"604 45 CURVE SMOOTH",
"597 45 OFFCURVE",
"592 44 OFFCURVE",
"589 44 CURVE SMOOTH",
"586 44 OFFCURVE",
"584 43 OFFCURVE",
"583 43 CURVE",
"568 42 OFFCURVE",
"560 36 OFFCURVE",
"560 23 CURVE SMOOTH",
"560 0 LINE",
"654 0 LINE",
"661 0 LINE",
"680 0 LINE",
"700 0 LINE",
"733 0 LINE",
"733 23 LINE SMOOTH",
"733 35 OFFCURVE",
"727 42 OFFCURVE",
"714 43 CURVE SMOOTH"
);
},
{
closed = 1;
nodes = (
"371 614 LINE",
"373 620 OFFCURVE",
"376 627 OFFCURVE",
"378 634 CURVE SMOOTH",
"380 641 OFFCURVE",
"383 648 OFFCURVE",
"385 656 CURVE",
"387 648 OFFCURVE",
"390 641 OFFCURVE",
"392 634 CURVE SMOOTH",
"394 627 OFFCURVE",
"397 621 OFFCURVE",
"399 615 CURVE",
"539 270 LINE",
"232 270 LINE"
);
}
);
width = 771;
}
);
leftKerningGroup = A;
note = A;
rightKerningGroup = A;
unicode = 0041;
},
{
glyphname = B;
layers = (
{
layerId = "3F211455-7DB7-4737-9D97-BF0B219628E9";
name = Light;
paths = (
{
closed = 1;
nodes = (
"528 336 OFFCURVE",
"485 354 OFFCURVE",
"429 362 CURVE",
"452 368 OFFCURVE",
"472 376 OFFCURVE",
"490 387 CURVE SMOOTH",
"508 398 OFFCURVE",
"524 410 OFFCURVE",
"536 425 CURVE SMOOTH",
"548 440 OFFCURVE",
"558 456 OFFCURVE",
"564 473 CURVE SMOOTH",
"570 490 OFFCURVE",
"574 508 OFFCURVE",
"574 527 CURVE SMOOTH",
"574 555 OFFCURVE",
"568 581 OFFCURVE",
"559 603 CURVE SMOOTH",
"550 625 OFFCURVE",
"535 644 OFFCURVE",
"516 660 CURVE SMOOTH",
"497 675 OFFCURVE",
"473 687 OFFCURVE",
"443 695 CURVE SMOOTH",
"413 703 OFFCURVE",
"378 707 OFFCURVE",
"338 707 CURVE SMOOTH",
"135 707 LINE",
"50 707 LINE",
"50 688 LINE SMOOTH",
"50 677 OFFCURVE",
"57 671 OFFCURVE",
"70 670 CURVE",
"80 670 LINE SMOOTH",
"85 670 OFFCURVE",
"92 669 OFFCURVE",
"102 669 CURVE SMOOTH",
"112 669 OFFCURVE",
"123 668 OFFCURVE",
"135 668 CURVE",
"135 40 LINE",
"123 40 OFFCURVE",
"112 39 OFFCURVE",
"102 39 CURVE SMOOTH",
"92 39 OFFCURVE",
"85 38 OFFCURVE",
"80 38 CURVE SMOOTH",
"70 38 LINE",
"57 37 OFFCURVE",
"51 31 OFFCURVE",
"51 20 CURVE SMOOTH",
"51 0 LINE",
"135 0 LINE",
"364 0 LINE SMOOTH",
"402 0 OFFCURVE",
"435 4 OFFCURVE",
"465 13 CURVE SMOOTH",
"495 22 OFFCURVE",
"520 34 OFFCURVE",
"540 51 CURVE SMOOTH",
"560 68 OFFCURVE",
"576 88 OFFCURVE",
"587 112 CURVE SMOOTH",
"598 136 OFFCURVE",
"603 163 OFFCURVE",
"603 193 CURVE SMOOTH",
"603 240 OFFCURVE",
"588 278 OFFCURVE",
"558 307 CURVE SMOOTH"
);
},
{
closed = 1;
nodes = (
"186 667 LINE",
"338 667 LINE SMOOTH",
"401 667 OFFCURVE",
"448 654 OFFCURVE",
"478 630 CURVE SMOOTH",
"508 605 OFFCURVE",
"523 570 OFFCURVE",
"523 522 CURVE SMOOTH",
"523 504 OFFCURVE",
"520 485 OFFCURVE",
"513 468 CURVE SMOOTH",
"506 451 OFFCURVE",
"495 436 OFFCURVE",
"480 422 CURVE SMOOTH",
"465 408 OFFCURVE",
"446 397 OFFCURVE",
"423 389 CURVE SMOOTH",
"400 381 OFFCURVE",
"372 376 OFFCURVE",
"339 376 CURVE SMOOTH",
"186 376 LINE"
);
},
{
closed = 1;
nodes = (
"472 54 OFFCURVE",
"425 41 OFFCURVE",
"363 41 CURVE SMOOTH",
"186 41 LINE",
"186 339 LINE",
"364 339 LINE SMOOTH",
"394 339 OFFCURVE",
"420 336 OFFCURVE",
"443 329 CURVE SMOOTH",
"466 322 OFFCURVE",
"486 312 OFFCURVE",
"502 300 CURVE",
"518 287 OFFCURVE",
"530 273 OFFCURVE",
"539 255 CURVE",
"547 237 OFFCURVE",
"552 216 OFFCURVE",
"552 194 CURVE SMOOTH",
"552 145 OFFCURVE",
"536 108 OFFCURVE",
"504 81 CURVE SMOOTH"
);
}
);
width = 638;
}
);
note = B;
unicode = 0042;
},
{
glyphname = C;
layers = (
{
layerId = "3F211455-7DB7-4737-9D97-BF0B219628E9";
name = Light;
paths = (
{
closed = 1;
nodes = (
"602 115 LINE SMOOTH",
"600 117 OFFCURVE",
"597 119 OFFCURVE",
"594 119 CURVE SMOOTH",
"592 119 OFFCURVE",
"591 119 OFFCURVE",
"589 118 CURVE",
"588 117 OFFCURVE",
"586 115 OFFCURVE",
"584 114 CURVE",
"570 101 OFFCURVE",
"555 90 OFFCURVE",
"541 80 CURVE SMOOTH",
"527 70 OFFCURVE",
"512 63 OFFCURVE",
"495 56 CURVE SMOOTH",
"478 49 OFFCURVE",
"460 44 OFFCURVE",
"440 41 CURVE SMOOTH",
"420 38 OFFCURVE",
"398 36 OFFCURVE",
"373 36 CURVE SMOOTH",
"333 36 OFFCURVE",
"294 43 OFFCURVE",
"260 58 CURVE",
"225 72 OFFCURVE",
"196 93 OFFCURVE",
"171 120 CURVE SMOOTH",
"146 147 OFFCURVE",
"125 181 OFFCURVE",
"111 220 CURVE SMOOTH",
"97 259 OFFCURVE",
"90 304 OFFCURVE",
"90 354 CURVE SMOOTH",
"90 403 OFFCURVE",
"97 447 OFFCURVE",
"111 486 CURVE SMOOTH",
"126 525 OFFCURVE",
"146 558 OFFCURVE",
"172 586 CURVE SMOOTH",
"198 613 OFFCURVE",
"229 634 OFFCURVE",
"265 649 CURVE SMOOTH",
"301 664 OFFCURVE",
"340 671 OFFCURVE",
"383 671 CURVE SMOOTH",
"447 671 OFFCURVE",
"506 661 OFFCURVE",
"558 638 CURVE",
"561 574 OFFCURVE",
"564 537 OFFCURVE",
"564 529 CURVE",
"565 513 OFFCURVE",
"571 505 OFFCURVE",
"585 505 CURVE SMOOTH",
"609 505 LINE",
"609 665 LINE",
"525 699 OFFCURVE",
"449 715 OFFCURVE",
"383 715 CURVE SMOOTH",
"332 715 OFFCURVE",
"286 707 OFFCURVE",
"243 689 CURVE SMOOTH",
"201 671 OFFCURVE",
"163 647 OFFCURVE",
"133 615 CURVE SMOOTH",
"102 583 OFFCURVE",
"79 545 OFFCURVE",
"62 501 CURVE SMOOTH",
"45 457 OFFCURVE",
"37 408 OFFCURVE",
"37 354 CURVE SMOOTH",
"37 299 OFFCURVE",
"46 250 OFFCURVE",
"62 205 CURVE SMOOTH",
"78 160 OFFCURVE",
"101 123 OFFCURVE",
"130 91 CURVE SMOOTH",
"159 59 OFFCURVE",
"194 35 OFFCURVE",
"235 18 CURVE SMOOTH",
"276 1 OFFCURVE",
"320 -8 OFFCURVE",
"369 -8 CURVE SMOOTH",
"398 -8 OFFCURVE",
"425 -6 OFFCURVE",
"450 -1 CURVE SMOOTH",
"474 4 OFFCURVE",
"497 11 OFFCURVE",
"518 20 CURVE SMOOTH",
"538 29 OFFCURVE",
"557 40 OFFCURVE",
"574 52 CURVE",
"591 65 OFFCURVE",
"607 78 OFFCURVE",
"622 94 CURVE"
);
}
);
width = 644;
}
);
note = C;
unicode = 0043;
},
{
glyphname = D;
layers = (
{
layerId = "3F211455-7DB7-4737-9D97-BF0B219628E9";
name = Light;
paths = (
{
closed = 1;
nodes = (
"677 545 OFFCURVE",
"654 581 OFFCURVE",
"624 612 CURVE SMOOTH",
"594 643 OFFCURVE",
"559 667 OFFCURVE",
"518 683 CURVE SMOOTH",
"477 699 OFFCURVE",
"430 707 OFFCURVE",
"380 707 CURVE SMOOTH",
"135 707 LINE",
"50 707 LINE",
"50 688 LINE SMOOTH",
"50 677 OFFCURVE",
"57 671 OFFCURVE",
"70 670 CURVE",
"80 670 LINE SMOOTH",
"85 670 OFFCURVE",
"92 669 OFFCURVE",
"102 669 CURVE SMOOTH",
"112 669 OFFCURVE",
"123 668 OFFCURVE",
"135 668 CURVE",
"135 40 LINE",
"123 40 OFFCURVE",
"112 39 OFFCURVE",
"102 39 CURVE SMOOTH",
"92 39 OFFCURVE",
"85 38 OFFCURVE",
"80 38 CURVE SMOOTH",
"70 38 LINE",
"57 37 OFFCURVE",
"50 31 OFFCURVE",
"50 20 CURVE SMOOTH",
"50 0 LINE",
"135 0 LINE",
"380 0 LINE SMOOTH",
"430 0 OFFCURVE",
"477 8 OFFCURVE",
"518 24 CURVE SMOOTH",
"559 40 OFFCURVE",
"594 64 OFFCURVE",
"624 95 CURVE SMOOTH",
"654 126 OFFCURVE",
"677 163 OFFCURVE",
"693 207 CURVE SMOOTH",
"709 251 OFFCURVE",
"718 299 OFFCURVE",
"718 354 CURVE SMOOTH",
"718 408 OFFCURVE",
"709 457 OFFCURVE",
"693 501 CURVE SMOOTH"
);
},
{
closed = 1;
nodes = (
"630 182 OFFCURVE",
"612 150 OFFCURVE",
"587 123 CURVE SMOOTH",
"562 96 OFFCURVE",
"532 76 OFFCURVE",
"497 62 CURVE SMOOTH",
"462 48 OFFCURVE",
"423 41 OFFCURVE",
"380 41 CURVE SMOOTH",
"186 41 LINE",
"186 666 LINE",
"380 666 LINE SMOOTH",
"423 666 OFFCURVE",
"462 659 OFFCURVE",
"497 645 CURVE SMOOTH",
"532 631 OFFCURVE",
"562 611 OFFCURVE",
"587 584 CURVE SMOOTH",
"612 557 OFFCURVE",
"630 525 OFFCURVE",
"644 486 CURVE SMOOTH",
"658 447 OFFCURVE",
"665 403 OFFCURVE",
"665 354 CURVE SMOOTH",
"665 304 OFFCURVE",
"658 260 OFFCURVE",
"644 221 CURVE SMOOTH"
);
}
);
width = 760;
}
);
note = D;
unicode = 0044;
},
{
glyphname = E;
layers = (
{
layerId = "3F211455-7DB7-4737-9D97-BF0B219628E9";
name = Light;
paths = (
{
closed = 1;
nodes = (
"135 707 LINE",
"50 707 LINE",
"50 688 LINE SMOOTH",
"50 677 OFFCURVE",
"57 671 OFFCURVE",
"70 670 CURVE",
"80 670 LINE SMOOTH",
"85 670 OFFCURVE",
"92 669 OFFCURVE",
"102 669 CURVE SMOOTH",
"112 669 OFFCURVE",
"123 668 OFFCURVE",
"135 668 CURVE",
"135 40 LINE",
"123 40 OFFCURVE",
"112 39 OFFCURVE",
"102 39 CURVE SMOOTH",
"92 39 OFFCURVE",
"85 38 OFFCURVE",
"80 38 CURVE SMOOTH",
"70 38 LINE",
"57 37 OFFCURVE",
"51 31 OFFCURVE",
"51 20 CURVE SMOOTH",
"51 0 LINE",
"135 0 LINE",
"559 0 LINE",
"559 43 LINE",
"559 147 LINE",
"534 147 LINE SMOOTH",
"520 147 OFFCURVE",
"514 138 OFFCURVE",
"513 122 CURVE",
"513 120 OFFCURVE",
"512 116 OFFCURVE",
"512 109 CURVE SMOOTH",
"512 102 OFFCURVE",
"512 92 OFFCURVE",
"511 77 CURVE SMOOTH",
"510 62 OFFCURVE",
"509 52 OFFCURVE",
"509 43 CURVE",
"186 43 LINE",
"186 338 LINE",
"468 338 LINE",
"468 379 LINE",
"186 379 LINE",
"186 665 LINE",
"509 665 LINE",
"511 621 OFFCURVE",
"513 594 OFFCURVE",
"513 585 CURVE",
"514 569 OFFCURVE",
"520 561 OFFCURVE",
"534 561 CURVE SMOOTH",
"559 561 LINE",
"559 665 LINE",
"559 707 LINE"
);
}
);
width = 622;
}
);
note = E;
unicode = 0045;
},
{
glyphname = F;
layers = (
{
layerId = "3F211455-7DB7-4737-9D97-BF0B219628E9";
name = Light;
paths = (
{
closed = 1;
nodes = (
"559 707 LINE",
"534 707 LINE",
"135 707 LINE",
"50 707 LINE",
"50 688 LINE SMOOTH",
"50 677 OFFCURVE",
"57 671 OFFCURVE",
"70 670 CURVE",
"80 670 LINE SMOOTH",
"85 670 OFFCURVE",
"92 669 OFFCURVE",
"102 669 CURVE SMOOTH",
"112 669 OFFCURVE",
"123 668 OFFCURVE",
"135 668 CURVE",
"135 40 LINE",
"123 40 OFFCURVE",
"112 39 OFFCURVE",
"102 39 CURVE SMOOTH",
"92 39 OFFCURVE",
"85 38 OFFCURVE",
"80 38 CURVE SMOOTH",
"70 38 LINE",
"57 37 OFFCURVE",
"50 31 OFFCURVE",
"50 20 CURVE SMOOTH",
"50 0 LINE",
"135 0 LINE",
"186 0 LINE",
"270 0 LINE",
"270 20 LINE SMOOTH",
"270 31 OFFCURVE",
"264 37 OFFCURVE",
"251 38 CURVE",
"241 38 LINE SMOOTH",
"236 38 OFFCURVE",
"229 39 OFFCURVE",
"219 39 CURVE SMOOTH",
"209 39 OFFCURVE",
"198 40 OFFCURVE",
"186 40 CURVE",
"186 325 LINE",
"450 325 LINE",
"450 368 LINE",
"186 368 LINE",
"186 665 LINE",
"515 665 LINE",
"517 617 OFFCURVE",
"519 590 OFFCURVE",
"519 585 CURVE",
"520 569 OFFCURVE",
"527 561 OFFCURVE",
"541 561 CURVE SMOOTH",
"565 561 LINE",
"565 707 LINE"
);
}
);
width = 595;
}
);
note = F;
unicode = 0046;
},
{
glyphname = G;
layers = (
{
layerId = "3F211455-7DB7-4737-9D97-BF0B219628E9";
name = Light;
paths = (
{
closed = 1;
nodes = (
"453 321 LINE",
"453 293 LINE SMOOTH",
"453 290 OFFCURVE",
"455 287 OFFCURVE",
"457 285 CURVE SMOOTH",
"459 283 OFFCURVE",
"462 282 OFFCURVE",
"466 282 CURVE SMOOTH",
"602 282 LINE",
"602 91 LINE",
"586 82 OFFCURVE",
"570 74 OFFCURVE",
"555 67 CURVE SMOOTH",
"540 60 OFFCURVE",
"523 53 OFFCURVE",
"506 48 CURVE SMOOTH",
"489 43 OFFCURVE",
"470 39 OFFCURVE",
"450 37 CURVE SMOOTH",
"430 35 OFFCURVE",
"408 34 OFFCURVE",
"384 34 CURVE SMOOTH",
"340 34 OFFCURVE",
"300 41 OFFCURVE",
"264 56 CURVE SMOOTH",
"228 71 OFFCURVE",
"197 92 OFFCURVE",
"171 119 CURVE SMOOTH",
"145 146 OFFCURVE",
"125 180 OFFCURVE",
"111 220 CURVE SMOOTH",
"97 260 OFFCURVE",
"89 304 OFFCURVE",
"89 354 CURVE SMOOTH",
"89 403 OFFCURVE",
"97 447 OFFCURVE",
"111 486 CURVE SMOOTH",
"125 525 OFFCURVE",
"145 559 OFFCURVE",
"171 586 CURVE SMOOTH",
"197 613 OFFCURVE",
"229 634 OFFCURVE",
"266 649 CURVE SMOOTH",
"303 664 OFFCURVE",
"344 671 OFFCURVE",
"390 671 CURVE SMOOTH",
"474 671 OFFCURVE",
"541 660 OFFCURVE",
"590 637 CURVE",
"593 572 OFFCURVE",
"595 536 OFFCURVE",
"595 529 CURVE",
"596 513 OFFCURVE",
"603 505 OFFCURVE",
"617 505 CURVE SMOOTH",
"641 505 LINE",
"641 665 LINE",
"610 679 OFFCURVE",
"570 691 OFFCURVE",
"520 701 CURVE SMOOTH",
"470 711 OFFCURVE",
"428 715 OFFCURVE",
"392 715 CURVE SMOOTH",
"338 715 OFFCURVE",
"289 707 OFFCURVE",
"245 690 CURVE SMOOTH",
"201 673 OFFCURVE",
"164 648 OFFCURVE",
"133 617 CURVE SMOOTH",
"102 586 OFFCURVE",
"79 548 OFFCURVE",
"62 503 CURVE SMOOTH",
"45 459 OFFCURVE",
"37 409 OFFCURVE",
"37 354 CURVE SMOOTH",
"37 299 OFFCURVE",
"45 250 OFFCURVE",
"62 205 CURVE SMOOTH",
"79 160 OFFCURVE",
"102 123 OFFCURVE",
"132 91 CURVE SMOOTH",
"162 59 OFFCURVE",
"199 35 OFFCURVE",
"241 18 CURVE SMOOTH",
"283 1 OFFCURVE",
"329 -8 OFFCURVE",
"380 -8 CURVE SMOOTH",
"410 -8 OFFCURVE",
"437 -6 OFFCURVE",
"462 -3 CURVE",
"487 1 OFFCURVE",
"510 6 OFFCURVE",
"532 12 CURVE",
"554 19 OFFCURVE",
"574 27 OFFCURVE",
"593 37 CURVE SMOOTH",
"612 47 OFFCURVE",
"630 58 OFFCURVE",
"648 70 CURVE",
"648 321 LINE"
);
}
);
width = 698;
}
);
note = G;
unicode = 0047;
},
{
glyphname = H;
layers = (
{
layerId = "3F211455-7DB7-4737-9D97-BF0B219628E9";
name = Light;
paths = (
{
closed = 1;
nodes = (
"745 670 LINE",
"758 671 OFFCURVE",
"765 677 OFFCURVE",
"765 688 CURVE SMOOTH",
"765 707 LINE",
"681 707 LINE",
"629 707 LINE",
"545 707 LINE",
"545 688 LINE SMOOTH",
"545 677 OFFCURVE",
"552 671 OFFCURVE",
"565 670 CURVE",
"574 670 LINE SMOOTH",
"579 670 OFFCURVE",
"587 669 OFFCURVE",
"597 669 CURVE SMOOTH",
"607 669 OFFCURVE",
"617 668 OFFCURVE",
"629 668 CURVE",
"629 378 LINE",
"186 378 LINE",
"186 668 LINE",
"198 668 OFFCURVE",
"209 669 OFFCURVE",
"219 669 CURVE SMOOTH",
"229 669 OFFCURVE",
"236 670 OFFCURVE",
"241 670 CURVE SMOOTH",
"251 670 LINE",
"264 671 OFFCURVE",
"270 677 OFFCURVE",
"270 688 CURVE SMOOTH",
"270 707 LINE",
"186 707 LINE",
"135 707 LINE",
"50 707 LINE",
"50 688 LINE SMOOTH",
"50 677 OFFCURVE",
"57 671 OFFCURVE",
"70 670 CURVE",
"80 670 LINE SMOOTH",
"85 670 OFFCURVE",
"92 669 OFFCURVE",
"102 669 CURVE SMOOTH",
"112 669 OFFCURVE",
"123 668 OFFCURVE",
"135 668 CURVE",
"135 40 LINE",
"123 40 OFFCURVE",
"112 39 OFFCURVE",
"102 39 CURVE SMOOTH",
"92 39 OFFCURVE",
"85 38 OFFCURVE",
"80 38 CURVE SMOOTH",
"70 38 LINE",
"57 37 OFFCURVE",
"50 31 OFFCURVE",
"50 20 CURVE SMOOTH",
"50 0 LINE",
"135 0 LINE",
"186 0 LINE",
"270 0 LINE",
"270 20 LINE SMOOTH",
"270 31 OFFCURVE",
"264 37 OFFCURVE",
"251 38 CURVE",
"241 38 LINE SMOOTH",
"236 38 OFFCURVE",
"229 39 OFFCURVE",
"219 39 CURVE SMOOTH",
"209 39 OFFCURVE",
"198 40 OFFCURVE",
"186 40 CURVE",
"186 339 LINE",
"629 339 LINE",
"629 40 LINE",
"617 40 OFFCURVE",
"607 39 OFFCURVE",
"597 39 CURVE SMOOTH",
"587 39 OFFCURVE",
"579 38 OFFCURVE",
"574 38 CURVE SMOOTH",
"565 38 LINE",
"552 37 OFFCURVE",
"545 31 OFFCURVE",
"545 20 CURVE SMOOTH",
"545 0 LINE",
"629 0 LINE",
"681 0 LINE",
"765 0 LINE",
"765 20 LINE SMOOTH",
"765 31 OFFCURVE",
"758 37 OFFCURVE",
"745 38 CURVE",
"736 38 LINE SMOOTH",
"731 38 OFFCURVE",
"723 39 OFFCURVE",
"713 39 CURVE SMOOTH",
"703 39 OFFCURVE",
"693 40 OFFCURVE",
"681 40 CURVE",
"681 668 LINE",
"693 668 OFFCURVE",
"703 669 OFFCURVE",
"713 669 CURVE SMOOTH",
"723 669 OFFCURVE",
"731 670 OFFCURVE",
"736 670 CURVE SMOOTH"
);
}
);
width = 811;
}
);
note = H;
unicode = 0048;
},
{
glyphname = I;
layers = (
{
layerId = "3F211455-7DB7-4737-9D97-BF0B219628E9";
name = Light;
paths = (
{
closed = 1;
nodes = (
"251 670 LINE",
"264 671 OFFCURVE",
"270 677 OFFCURVE",
"270 688 CURVE SMOOTH",
"270 708 LINE",
"186 708 LINE",
"135 708 LINE",
"50 708 LINE",
"50 688 LINE SMOOTH",
"50 677 OFFCURVE",
"57 671 OFFCURVE",
"70 670 CURVE",
"80 670 LINE SMOOTH",
"85 670 OFFCURVE",
"92 669 OFFCURVE",
"102 669 CURVE SMOOTH",
"112 669 OFFCURVE",
"123 668 OFFCURVE",
"135 668 CURVE",
"135 40 LINE",
"123 40 OFFCURVE",
"112 39 OFFCURVE",
"102 39 CURVE SMOOTH",
"92 39 OFFCURVE",
"85 38 OFFCURVE",
"80 38 CURVE SMOOTH",
"70 38 LINE",
"57 37 OFFCURVE",
"50 31 OFFCURVE",
"50 20 CURVE SMOOTH",
"50 0 LINE",
"135 0 LINE",
"186 0 LINE",
"270 0 LINE",
"270 20 LINE SMOOTH",
"270 31 OFFCURVE",
"264 37 OFFCURVE",
"251 38 CURVE",
"241 38 LINE SMOOTH",
"236 38 OFFCURVE",
"229 39 OFFCURVE",
"219 39 CURVE SMOOTH",
"209 39 OFFCURVE",
"198 40 OFFCURVE",
"186 40 CURVE",
"186 668 LINE",
"198 668 OFFCURVE",
"209 669 OFFCURVE",
"219 669 CURVE SMOOTH",
"229 669 OFFCURVE",
"236 670 OFFCURVE",
"241 670 CURVE SMOOTH"
);
}
);
width = 316;
}
);
note = I;
unicode = 0049;
},
{
glyphname = J;
layers = (
{
layerId = "3F211455-7DB7-4737-9D97-BF0B219628E9";
name = Light;
paths = (
{
closed = 1;
nodes = (
"342 708 LINE",
"291 708 LINE",
"199 708 LINE",
"199 688 LINE SMOOTH",
"199 677 OFFCURVE",
"206 671 OFFCURVE",
"219 670 CURVE",
"231 670 LINE SMOOTH",
"237 670 OFFCURVE",
"245 669 OFFCURVE",
"256 669 CURVE SMOOTH",
"267 669 OFFCURVE",
"279 668 OFFCURVE",
"291 668 CURVE",
"291 235 LINE SMOOTH",
"291 201 OFFCURVE",
"287 171 OFFCURVE",
"280 146 CURVE",
"272 121 OFFCURVE",
"261 100 OFFCURVE",
"247 84 CURVE SMOOTH",
"233 68 OFFCURVE",
"215 55 OFFCURVE",
"195 47 CURVE SMOOTH",
"175 39 OFFCURVE",
"152 35 OFFCURVE",
"127 35 CURVE SMOOTH",
"117 35 OFFCURVE",
"107 36 OFFCURVE",
"100 37 CURVE SMOOTH",
"93 38 OFFCURVE",
"86 40 OFFCURVE",
"80 41 CURVE SMOOTH",
"74 42 OFFCURVE",
"69 43 OFFCURVE",
"65 44 CURVE SMOOTH",
"61 45 OFFCURVE",
"57 46 OFFCURVE",
"54 46 CURVE SMOOTH",
"49 46 OFFCURVE",
"47 45 OFFCURVE",
"45 43 CURVE SMOOTH",
"43 41 OFFCURVE",
"42 38 OFFCURVE",
"41 35 CURVE",
"41 30 OFFCURVE",
"41 26 OFFCURVE",
"40 21 CURVE",
"40 16 OFFCURVE",
"39 12 OFFCURVE",
"38 7 CURVE",
"54 2 OFFCURVE",
"70 -2 OFFCURVE",
"85 -4 CURVE SMOOTH",
"100 -6 OFFCURVE",
"116 -8 OFFCURVE",
"131 -8 CURVE SMOOTH",
"164 -8 OFFCURVE",
"193 -2 OFFCURVE",
"219 8 CURVE SMOOTH",
"245 19 OFFCURVE",
"268 34 OFFCURVE",
"286 55 CURVE SMOOTH",
"304 76 OFFCURVE",
"318 101 OFFCURVE",
"328 131 CURVE SMOOTH",
"338 161 OFFCURVE",
"342 196 OFFCURVE",
"342 236 CURVE SMOOTH",
"342 668 LINE",
"354 668 OFFCURVE",
"365 669 OFFCURVE",
"375 669 CURVE SMOOTH",
"385 669 OFFCURVE",
"392 670 OFFCURVE",
"397 670 CURVE SMOOTH",
"407 670 LINE",
"420 671 OFFCURVE",
"427 677 OFFCURVE",
"427 688 CURVE SMOOTH",
"427 708 LINE"
);
}
);
width = 450;
}
);
note = J;
unicode = 004A;
},
{
glyphname = K;
layers = (
{
layerId = "3F211455-7DB7-4737-9D97-BF0B219628E9";
name = Light;
paths = (
{
closed = 1;
nodes = (
"651 38 LINE",
"638 38 LINE SMOOTH",
"632 38 OFFCURVE",
"625 39 OFFCURVE",
"618 39 CURVE",
"330 340 LINE",
"324 347 OFFCURVE",
"319 352 OFFCURVE",
"313 356 CURVE SMOOTH",
"307 360 OFFCURVE",
"301 363 OFFCURVE",
"294 365 CURVE",
"300 367 OFFCURVE",
"305 370 OFFCURVE",
"310 374 CURVE SMOOTH",
"315 378 OFFCURVE",
"321 383 OFFCURVE",
"327 390 CURVE",
"598 669 LINE",
"617 669 LINE SMOOTH",
"623 669 OFFCURVE",
"627 670 OFFCURVE",
"630 670 CURVE SMOOTH",
"636 670 LINE",
"649 671 OFFCURVE",
"656 677 OFFCURVE",
"656 688 CURVE SMOOTH",
"656 708 LINE",
"586 708 LINE",
"577 708 LINE",
"448 708 LINE",
"448 688 LINE SMOOTH",
"448 677 OFFCURVE",
"455 671 OFFCURVE",
"468 670 CURVE",
"480 670 LINE SMOOTH",
"487 670 OFFCURVE",
"496 669 OFFCURVE",
"508 669 CURVE SMOOTH",
"540 669 LINE",
"278 400 LINE SMOOTH",
"274 396 OFFCURVE",
"270 392 OFFCURVE",
"267 390 CURVE SMOOTH",
"264 388 OFFCURVE",
"260 387 OFFCURVE",
"256 385 CURVE",
"252 384 OFFCURVE",
"249 382 OFFCURVE",
"244 382 CURVE",
"239 381 OFFCURVE",
"233 381 OFFCURVE",
"227 381 CURVE SMOOTH",
"185 381 LINE",
"185 669 LINE",
"197 669 OFFCURVE",
"208 670 OFFCURVE",
"218 670 CURVE SMOOTH",
"228 670 OFFCURVE",
"235 671 OFFCURVE",
"240 671 CURVE SMOOTH",
"250 671 LINE",
"263 672 OFFCURVE",
"269 678 OFFCURVE",
"269 689 CURVE SMOOTH",
"269 708 LINE",
"185 708 LINE",
"134 708 LINE",
"50 708 LINE",
"50 689 LINE SMOOTH",
"50 678 OFFCURVE",
"57 672 OFFCURVE",
"70 671 CURVE",
"79 671 LINE SMOOTH",
"84 671 OFFCURVE",
"92 670 OFFCURVE",
"102 670 CURVE SMOOTH",
"112 670 OFFCURVE",
"122 669 OFFCURVE",
"134 669 CURVE",
"134 40 LINE",
"122 40 OFFCURVE",
"112 39 OFFCURVE",
"102 39 CURVE SMOOTH",
"92 39 OFFCURVE",
"84 38 OFFCURVE",
"79 38 CURVE SMOOTH",
"70 38 LINE",
"57 37 OFFCURVE",
"50 31 OFFCURVE",
"50 20 CURVE SMOOTH",
"50 0 LINE",
"134 0 LINE",
"185 0 LINE",
"269 0 LINE",
"269 20 LINE SMOOTH",
"269 31 OFFCURVE",
"263 37 OFFCURVE",
"250 38 CURVE",
"240 38 LINE SMOOTH",
"235 38 OFFCURVE",
"228 39 OFFCURVE",
"218 39 CURVE SMOOTH",
"208 39 OFFCURVE",
"197 40 OFFCURVE",
"185 40 CURVE",
"185 341 LINE",
"231 341 LINE SMOOTH",
"239 341 OFFCURVE",
"246 341 OFFCURVE",
"251 340 CURVE SMOOTH",
"256 339 OFFCURVE",
"260 338 OFFCURVE",
"264 336 CURVE SMOOTH",
"268 334 OFFCURVE",
"272 332 OFFCURVE",
"275 329 CURVE SMOOTH",
"278 326 OFFCURVE",
"281 324 OFFCURVE",
"285 320 CURVE SMOOTH",
"560 39 LINE",
"550 39 OFFCURVE",
"538 38 OFFCURVE",
"526 38 CURVE SMOOTH",
"497 38 LINE",
"484 38 LINE",
"471 37 OFFCURVE",
"464 31 OFFCURVE",
"464 20 CURVE SMOOTH",
"464 0 LINE",
"598 0 LINE",
"602 0 LINE",
"614 0 LINE",
"656 0 LINE",
"677 0 LINE",
"677 20 LINE SMOOTH",
"677 31 OFFCURVE",
"670 37 OFFCURVE",
"657 38 CURVE"
);
}
);
width = 718;
}
);
note = K;
unicode = 004B;
},
{
glyphname = L;
layers = (
{
layerId = "3F211455-7DB7-4737-9D97-BF0B219628E9";
name = Light;
paths = (
{
closed = 1;
nodes = (
"505 132 LINE SMOOTH",
"491 132 OFFCURVE",
"485 124 OFFCURVE",
"484 108 CURVE",
"484 107 OFFCURVE",
"484 103 OFFCURVE",
"483 99 CURVE SMOOTH",
"482 95 OFFCURVE",
"482 88 OFFCURVE",
"481 79 CURVE SMOOTH",
"480 70 OFFCURVE",
"479 58 OFFCURVE",
"478 44 CURVE",
"186 44 LINE",
"186 668 LINE",
"198 668 OFFCURVE",
"208 669 OFFCURVE",
"218 669 CURVE SMOOTH",
"228 669 OFFCURVE",
"236 670 OFFCURVE",
"241 670 CURVE SMOOTH",
"250 670 LINE",
"263 671 OFFCURVE",
"270 677 OFFCURVE",
"270 688 CURVE SMOOTH",
"270 707 LINE",
"186 707 LINE",
"135 707 LINE",
"50 707 LINE",
"50 688 LINE SMOOTH",
"50 677 OFFCURVE",
"57 671 OFFCURVE",
"70 670 CURVE",
"80 670 LINE SMOOTH",
"85 670 OFFCURVE",
"92 669 OFFCURVE",
"102 669 CURVE SMOOTH",
"112 669 OFFCURVE",
"123 668 OFFCURVE",
"135 668 CURVE",
"135 40 LINE",
"123 40 OFFCURVE",
"112 39 OFFCURVE",
"102 39 CURVE SMOOTH",
"92 39 OFFCURVE",
"85 38 OFFCURVE",
"80 38 CURVE SMOOTH",
"70 38 LINE",
"57 37 OFFCURVE",
"50 31 OFFCURVE",
"50 20 CURVE SMOOTH",
"50 0 LINE",
"135 0 LINE",
"512 0 LINE",
"521 0 LINE",
"530 0 LINE",
"530 19 LINE",
"530 59 LINE",
"530 132 LINE",
"510 132 LINE"
);
}
);
width = 582;
}
);
note = L;
unicode = 004C;
},
{
glyphname = M;
layers = (
{
layerId = "3F211455-7DB7-4737-9D97-BF0B219628E9";
name = Light;
paths = (
{
closed = 1;
nodes = (
"898 670 LINE",
"911 671 OFFCURVE",
"918 677 OFFCURVE",
"918 688 CURVE SMOOTH",
"918 707 LINE",
"834 707 LINE",
"798 707 LINE SMOOTH",
"793 707 OFFCURVE",
"790 707 OFFCURVE",
"787 706 CURVE SMOOTH",
"784 705 OFFCURVE",
"782 702 OFFCURVE",
"779 698 CURVE",
"501 207 LINE SMOOTH",
"498 202 OFFCURVE",
"496 197 OFFCURVE",
"494 192 CURVE SMOOTH",
"492 187 OFFCURVE",
"490 181 OFFCURVE",
"488 176 CURVE",
"484 187 OFFCURVE",
"480 197 OFFCURVE",
"475 206 CURVE SMOOTH",
"189 698 LINE",
"186 702 OFFCURVE",
"184 705 OFFCURVE",
"181 706 CURVE SMOOTH",
"178 707 OFFCURVE",
"175 707 OFFCURVE",
"170 707 CURVE SMOOTH",
"135 707 LINE",
"50 707 LINE",
"50 688 LINE SMOOTH",
"50 677 OFFCURVE",
"57 671 OFFCURVE",
"70 670 CURVE",
"80 670 LINE SMOOTH",
"85 670 OFFCURVE",
"92 669 OFFCURVE",
"102 669 CURVE SMOOTH",
"112 669 OFFCURVE",
"123 668 OFFCURVE",
"135 668 CURVE",
"135 40 LINE",
"123 40 OFFCURVE",
"112 39 OFFCURVE",
"102 39 CURVE SMOOTH",
"92 39 OFFCURVE",
"85 38 OFFCURVE",
"80 38 CURVE SMOOTH",
"70 38 LINE",
"57 37 OFFCURVE",
"50 31 OFFCURVE",
"50 20 CURVE SMOOTH",
"50 0 LINE",
"135 0 LINE",
"179 0 LINE",
"266 0 LINE",
"266 20 LINE SMOOTH",
"266 31 OFFCURVE",
"259 37 OFFCURVE",
"246 38 CURVE",
"236 38 LINE SMOOTH",
"231 38 OFFCURVE",
"223 39 OFFCURVE",
"213 39 CURVE SMOOTH",
"203 39 OFFCURVE",
"191 40 OFFCURVE",
"179 40 CURVE",
"179 603 LINE SMOOTH",
"179 612 OFFCURVE",
"179 621 OFFCURVE",
"178 631 CURVE",
"464 136 LINE SMOOTH",
"469 127 OFFCURVE",
"476 123 OFFCURVE",
"484 123 CURVE SMOOTH",
"492 123 LINE SMOOTH",
"501 123 OFFCURVE",
"507 127 OFFCURVE",
"512 136 CURVE SMOOTH",
"790 631 LINE",
"789 621 OFFCURVE",
"789 612 OFFCURVE",
"789 603 CURVE SMOOTH",
"789 40 LINE",
"777 40 OFFCURVE",
"765 39 OFFCURVE",
"755 39 CURVE SMOOTH",
"745 39 OFFCURVE",
"737 38 OFFCURVE",
"732 38 CURVE SMOOTH",
"722 38 LINE",
"709 37 OFFCURVE",
"702 31 OFFCURVE",
"702 20 CURVE SMOOTH",
"702 0 LINE",
"789 0 LINE",
"834 0 LINE",
"918 0 LINE",
"918 20 LINE SMOOTH",
"918 31 OFFCURVE",
"911 37 OFFCURVE",
"898 38 CURVE",
"889 38 LINE SMOOTH",
"884 38 OFFCURVE",
"876 39 OFFCURVE",
"866 39 CURVE SMOOTH",
"856 39 OFFCURVE",
"846 40 OFFCURVE",
"834 40 CURVE",
"834 668 LINE",
"846 668 OFFCURVE",
"856 669 OFFCURVE",
"866 669 CURVE SMOOTH",
"876 669 OFFCURVE",
"884 670 OFFCURVE",
"889 670 CURVE SMOOTH"
);
}
);
width = 964;
}
);
note = M;
unicode = 004D;
},
{
glyphname = N;
layers = (
{
layerId = "3F211455-7DB7-4737-9D97-BF0B219628E9";
name = Light;
paths = (
{
closed = 1;
nodes = (
"681 707 LINE",
"636 707 LINE",
"549 707 LINE",
"549 688 LINE SMOOTH",
"549 677 OFFCURVE",
"556 671 OFFCURVE",
"569 670 CURVE",
"579 670 LINE SMOOTH",
"584 670 OFFCURVE",
"592 669 OFFCURVE",
"602 669 CURVE SMOOTH",
"612 669 OFFCURVE",
"624 668 OFFCURVE",
"636 668 CURVE",
"636 114 LINE SMOOTH",
"636 105 OFFCURVE",
"636 95 OFFCURVE",
"637 85 CURVE",
"179 698 LINE SMOOTH",
"176 702 OFFCURVE",
"174 705 OFFCURVE",
"171 706 CURVE SMOOTH",
"168 707 OFFCURVE",
"165 708 OFFCURVE",
"160 708 CURVE SMOOTH",
"135 708 LINE",
"50 708 LINE",
"50 688 LINE SMOOTH",
"50 677 OFFCURVE",
"57 671 OFFCURVE",
"70 670 CURVE",
"80 670 LINE SMOOTH",
"85 670 OFFCURVE",
"92 669 OFFCURVE",
"102 669 CURVE SMOOTH",
"112 669 OFFCURVE",
"123 668 OFFCURVE",
"135 668 CURVE",
"135 40 LINE",
"123 40 OFFCURVE",
"112 39 OFFCURVE",
"102 39 CURVE SMOOTH",
"92 39 OFFCURVE",
"85 38 OFFCURVE",
"80 38 CURVE SMOOTH",
"70 38 LINE",
"57 37 OFFCURVE",
"50 31 OFFCURVE",
"50 20 CURVE SMOOTH",
"50 0 LINE",
"135 0 LINE",
"179 0 LINE",
"266 0 LINE",
"266 20 LINE SMOOTH",
"266 31 OFFCURVE",
"259 37 OFFCURVE",
"246 38 CURVE",
"236 38 LINE SMOOTH",
"231 38 OFFCURVE",
"222 39 OFFCURVE",
"212 39 CURVE SMOOTH",
"202 39 OFFCURVE",
"191 40 OFFCURVE",
"179 40 CURVE",
"179 595 LINE SMOOTH",
"179 604 OFFCURVE",
"179 614 OFFCURVE",
"178 624 CURVE",
"638 10 LINE SMOOTH",
"643 3 OFFCURVE",
"648 0 OFFCURVE",
"656 0 CURVE SMOOTH",
"681 0 LINE",
"681 668 LINE",
"693 668 OFFCURVE",
"703 669 OFFCURVE",
"713 669 CURVE SMOOTH",
"723 669 OFFCURVE",
"731 670 OFFCURVE",
"736 670 CURVE SMOOTH",
"745 670 LINE",
"758 671 OFFCURVE",
"765 677 OFFCURVE",
"765 688 CURVE SMOOTH",
"765 707 LINE"
);
}
);
width = 789;
}
);
note = N;
unicode = 004E;
},
{
glyphname = O;
layers = (
{
layerId = "3F211455-7DB7-4737-9D97-BF0B219628E9";
name = Light;
paths = (
{
closed = 1;
nodes = (
"712 408 OFFCURVE",
"703 458 OFFCURVE",
"687 502 CURVE SMOOTH",
"671 546 OFFCURVE",
"648 584 OFFCURVE",
"618 616 CURVE SMOOTH",
"588 648 OFFCURVE",
"553 673 OFFCURVE",
"512 690 CURVE SMOOTH",
"471 707 OFFCURVE",
"424 716 OFFCURVE",
"374 716 CURVE SMOOTH",
"324 716 OFFCURVE",
"279 707 OFFCURVE",
"238 690 CURVE SMOOTH",
"197 673 OFFCURVE",
"161 648 OFFCURVE",
"131 616 CURVE SMOOTH",
"101 584 OFFCURVE",
"78 546 OFFCURVE",
"62 502 CURVE SMOOTH",
"46 458 OFFCURVE",
"37 408 OFFCURVE",
"37 354 CURVE SMOOTH",
"37 299 OFFCURVE",
"46 249 OFFCURVE",
"62 205 CURVE SMOOTH",
"78 161 OFFCURVE",
"101 123 OFFCURVE",
"131 91 CURVE SMOOTH",
"161 59 OFFCURVE",
"197 35 OFFCURVE",
"238 18 CURVE SMOOTH",
"279 1 OFFCURVE",
"324 -8 OFFCURVE",
"374 -8 CURVE SMOOTH",
"424 -8 OFFCURVE",
"471 1 OFFCURVE",
"512 18 CURVE SMOOTH",
"553 35 OFFCURVE",
"588 59 OFFCURVE",
"618 91 CURVE SMOOTH",
"648 123 OFFCURVE",
"671 161 OFFCURVE",
"687 205 CURVE SMOOTH",
"703 249 OFFCURVE",
"712 299 OFFCURVE",
"712 354 CURVE SMOOTH"
);
},
{
closed = 1;
nodes = (
"658 304 OFFCURVE",
"652 260 OFFCURVE",
"638 221 CURVE SMOOTH",
"624 182 OFFCURVE",
"605 148 OFFCURVE",
"580 121 CURVE SMOOTH",
"555 94 OFFCURVE",
"525 72 OFFCURVE",
"490 58 CURVE SMOOTH",
"455 44 OFFCURVE",
"417 37 OFFCURVE",
"374 37 CURVE SMOOTH",
"332 37 OFFCURVE",
"294 44 OFFCURVE",
"259 58 CURVE SMOOTH",
"224 72 OFFCURVE",
"194 94 OFFCURVE",
"169 121 CURVE SMOOTH",
"144 148 OFFCURVE",
"124 182 OFFCURVE",
"110 221 CURVE SMOOTH",
"96 260 OFFCURVE",
"90 304 OFFCURVE",
"90 354 CURVE SMOOTH",
"90 403 OFFCURVE",
"96 448 OFFCURVE",
"110 487 CURVE SMOOTH",
"124 526 OFFCURVE",
"144 560 OFFCURVE",
"169 587 CURVE SMOOTH",
"194 614 OFFCURVE",
"224 636 OFFCURVE",
"259 650 CURVE SMOOTH",
"294 664 OFFCURVE",
"332 672 OFFCURVE",
"374 672 CURVE SMOOTH",
"417 672 OFFCURVE",
"455 664 OFFCURVE",
"490 650 CURVE SMOOTH",
"525 636 OFFCURVE",
"555 614 OFFCURVE",
"580 587 CURVE SMOOTH",
"605 560 OFFCURVE",
"624 526 OFFCURVE",
"638 487 CURVE SMOOTH",
"652 448 OFFCURVE",
"658 403 OFFCURVE",
"658 354 CURVE SMOOTH"
);
}
);
width = 753;
}
);
note = O;
unicode = 004F;
},
{
glyphname = P;
layers = (
{
layerId = "3F211455-7DB7-4737-9D97-BF0B219628E9";
name = Light;
paths = (
{
closed = 1;
nodes = (
"453 689 OFFCURVE",
"390 707 OFFCURVE",
"307 707 CURVE SMOOTH",
"135 707 LINE",
"50 707 LINE",
"50 688 LINE SMOOTH",
"50 677 OFFCURVE",
"57 671 OFFCURVE",
"70 670 CURVE",
"80 670 LINE SMOOTH",
"85 670 OFFCURVE",
"92 669 OFFCURVE",
"102 669 CURVE SMOOTH",
"112 669 OFFCURVE",
"123 668 OFFCURVE",
"135 668 CURVE",
"135 40 LINE",
"123 40 OFFCURVE",
"112 39 OFFCURVE",
"102 39 CURVE SMOOTH",
"92 39 OFFCURVE",
"85 38 OFFCURVE",
"80 38 CURVE SMOOTH",
"70 38 LINE",
"57 37 OFFCURVE",
"50 31 OFFCURVE",
"50 20 CURVE SMOOTH",
"50 0 LINE",
"135 0 LINE",
"186 0 LINE",
"270 0 LINE",
"270 20 LINE SMOOTH",
"270 31 OFFCURVE",
"263 37 OFFCURVE",
"250 38 CURVE",
"241 38 LINE SMOOTH",
"236 38 OFFCURVE",
"228 39 OFFCURVE",
"218 39 CURVE SMOOTH",
"208 39 OFFCURVE",
"198 40 OFFCURVE",
"186 40 CURVE",
"186 285 LINE",
"307 285 LINE SMOOTH",
"346 285 OFFCURVE",
"381 291 OFFCURVE",
"412 301 CURVE SMOOTH",
"443 312 OFFCURVE",
"469 326 OFFCURVE",
"491 345 CURVE SMOOTH",
"513 364 OFFCURVE",
"530 386 OFFCURVE",
"541 412 CURVE SMOOTH",
"553 438 OFFCURVE",
"558 466 OFFCURVE",
"558 497 CURVE SMOOTH",
"558 564 OFFCURVE",
"537 617 OFFCURVE",
"495 653 CURVE SMOOTH"
);
},
{
closed = 1;
nodes = (
"484 408 OFFCURVE",
"471 390 OFFCURVE",
"454 375 CURVE SMOOTH",
"437 360 OFFCURVE",
"416 348 OFFCURVE",
"391 339 CURVE SMOOTH",
"366 330 OFFCURVE",
"338 326 OFFCURVE",
"307 326 CURVE SMOOTH",
"186 326 LINE",
"186 667 LINE",
"307 667 LINE SMOOTH",
"373 667 OFFCURVE",
"423 652 OFFCURVE",
"457 623 CURVE SMOOTH",
"490 594 OFFCURVE",
"507 552 OFFCURVE",
"507 498 CURVE SMOOTH",
"507 473 OFFCURVE",
"502 450 OFFCURVE",
"493 429 CURVE SMOOTH"
);
}
);
width = 593;
}
);
note = P;
unicode = 0050;
},
{
glyphname = Q;
layers = (
{
layerId = "3F211455-7DB7-4737-9D97-BF0B219628E9";
name = Light;
paths = (
{
closed = 1;
nodes = (
"711 408 OFFCURVE",
"702 458 OFFCURVE",
"686 502 CURVE SMOOTH",
"670 546 OFFCURVE",
"648 584 OFFCURVE",
"618 616 CURVE SMOOTH",
"588 648 OFFCURVE",
"552 673 OFFCURVE",
"511 690 CURVE SMOOTH",
"470 707 OFFCURVE",
"424 716 OFFCURVE",
"374 716 CURVE SMOOTH",
"324 716 OFFCURVE",
"278 707 OFFCURVE",
"237 690 CURVE SMOOTH",
"196 673 OFFCURVE",
"160 648 OFFCURVE",
"130 616 CURVE SMOOTH",
"100 584 OFFCURVE",
"77 546 OFFCURVE",
"61 502 CURVE SMOOTH",
"45 458 OFFCURVE",
"36 408 OFFCURVE",
"36 354 CURVE SMOOTH",
"36 299 OFFCURVE",
"45 249 OFFCURVE",
"61 205 CURVE SMOOTH",
"77 161 OFFCURVE",
"100 123 OFFCURVE",
"130 91 CURVE SMOOTH",
"160 59 OFFCURVE",
"196 35 OFFCURVE",
"237 18 CURVE SMOOTH",
"278 1 OFFCURVE",
"324 -8 OFFCURVE",
"374 -8 CURVE SMOOTH",
"400 -8 OFFCURVE",
"425 -5 OFFCURVE",
"448 0 CURVE SMOOTH",
"471 5 OFFCURVE",
"493 10 OFFCURVE",
"514 19 CURVE",
"665 -144 LINE",
"669 -149 OFFCURVE",
"674 -151 OFFCURVE",
"679 -153 CURVE SMOOTH",
"684 -155 OFFCURVE",
"690 -156 OFFCURVE",
"697 -156 CURVE SMOOTH",
"740 -156 LINE",
"556 41 LINE",
"580 56 OFFCURVE",
"602 74 OFFCURVE",
"621 95 CURVE SMOOTH",
"640 116 OFFCURVE",
"657 140 OFFCURVE",
"670 166 CURVE SMOOTH",
"683 192 OFFCURVE",
"693 221 OFFCURVE",
"700 253 CURVE SMOOTH",
"707 285 OFFCURVE",
"711 318 OFFCURVE",
"711 354 CURVE SMOOTH"
);
},
{
closed = 1;
nodes = (
"658 304 OFFCURVE",
"652 260 OFFCURVE",
"638 221 CURVE SMOOTH",
"624 182 OFFCURVE",
"605 148 OFFCURVE",
"580 121 CURVE SMOOTH",
"555 94 OFFCURVE",
"525 72 OFFCURVE",
"490 58 CURVE SMOOTH",
"455 44 OFFCURVE",
"417 37 OFFCURVE",
"374 37 CURVE SMOOTH",
"332 37 OFFCURVE",
"293 44 OFFCURVE",
"258 58 CURVE SMOOTH",
"223 72 OFFCURVE",
"193 94 OFFCURVE",
"168 121 CURVE SMOOTH",
"143 148 OFFCURVE",
"124 182 OFFCURVE",
"110 221 CURVE SMOOTH",
"96 260 OFFCURVE",
"89 304 OFFCURVE",
"89 354 CURVE SMOOTH",
"89 403 OFFCURVE",
"96 448 OFFCURVE",
"110 487 CURVE SMOOTH",
"124 526 OFFCURVE",
"143 560 OFFCURVE",
"168 587 CURVE SMOOTH",
"193 614 OFFCURVE",
"223 636 OFFCURVE",
"258 650 CURVE SMOOTH",
"293 664 OFFCURVE",
"332 672 OFFCURVE",
"374 672 CURVE SMOOTH",
"417 672 OFFCURVE",
"455 664 OFFCURVE",
"490 650 CURVE SMOOTH",
"525 636 OFFCURVE",
"555 614 OFFCURVE",
"580 587 CURVE SMOOTH",
"605 560 OFFCURVE",
"624 526 OFFCURVE",
"638 487 CURVE SMOOTH",
"652 448 OFFCURVE",
"658 403 OFFCURVE",
"658 354 CURVE SMOOTH"
);
}
);
width = 759;
}
);
note = Q;
unicode = 0051;
},
{
glyphname = R;
layers = (
{
layerId = "3F211455-7DB7-4737-9D97-BF0B219628E9";
name = Light;
paths = (
{
closed = 1;
nodes = (
"614 38 LINE",
"601 38 LINE SMOOTH",
"595 38 OFFCURVE",
"589 39 OFFCURVE",
"583 39 CURVE",
"371 306 LINE SMOOTH",
"365 314 OFFCURVE",
"357 321 OFFCURVE",
"349 326 CURVE",
"380 329 OFFCURVE",
"408 336 OFFCURVE",
"433 347 CURVE SMOOTH",
"458 358 OFFCURVE",
"478 372 OFFCURVE",
"496 389 CURVE SMOOTH",
"513 406 OFFCURVE",
"527 426 OFFCURVE",
"536 448 CURVE SMOOTH",
"545 470 OFFCURVE",
"550 495 OFFCURVE",
"550 522 CURVE SMOOTH",
"550 583 OFFCURVE",
"530 628 OFFCURVE",
"490 660 CURVE SMOOTH",
"450 691 OFFCURVE",
"389 707 OFFCURVE",
"307 707 CURVE SMOOTH",
"135 707 LINE",
"51 707 LINE",
"51 688 LINE SMOOTH",
"51 677 OFFCURVE",
"57 671 OFFCURVE",
"70 670 CURVE",
"80 670 LINE SMOOTH",
"85 670 OFFCURVE",
"92 669 OFFCURVE",
"102 669 CURVE SMOOTH",
"112 669 OFFCURVE",
"123 668 OFFCURVE",
"135 668 CURVE",
"135 40 LINE",
"123 40 OFFCURVE",
"112 39 OFFCURVE",
"102 39 CURVE SMOOTH",
"92 39 OFFCURVE",
"85 38 OFFCURVE",
"80 38 CURVE SMOOTH",
"70 38 LINE",
"57 37 OFFCURVE",
"50 31 OFFCURVE",
"50 20 CURVE SMOOTH",
"50 0 LINE",
"135 0 LINE",
"186 0 LINE",
"270 0 LINE",
"270 20 LINE SMOOTH",
"270 31 OFFCURVE",
"263 37 OFFCURVE",
"250 38 CURVE",
"240 38 LINE SMOOTH",
"235 38 OFFCURVE",
"228 39 OFFCURVE",
"218 39 CURVE SMOOTH",
"208 39 OFFCURVE",
"198 40 OFFCURVE",
"186 40 CURVE",
"186 320 LINE",
"270 320 LINE SMOOTH",
"284 320 OFFCURVE",
"294 319 OFFCURVE",
"300 316 CURVE SMOOTH",
"306 313 OFFCURVE",
"312 307 OFFCURVE",
"318 300 CURVE",
"545 13 LINE SMOOTH",
"549 8 OFFCURVE",
"552 5 OFFCURVE",
"556 3 CURVE SMOOTH",
"560 1 OFFCURVE",
"565 0 OFFCURVE",
"570 0 CURVE SMOOTH",
"575 0 LINE",
"614 0 LINE",
"640 0 LINE",
"640 20 LINE SMOOTH",
"640 31 OFFCURVE",
"634 37 OFFCURVE",
"621 38 CURVE"
);
},
{
closed = 1;
nodes = (
"186 358 LINE",
"186 667 LINE",
"307 667 LINE SMOOTH",
"370 667 OFFCURVE",
"418 654 OFFCURVE",
"451 630 CURVE SMOOTH",
"484 606 OFFCURVE",
"500 568 OFFCURVE",
"500 518 CURVE SMOOTH",
"500 493 OFFCURVE",
"496 472 OFFCURVE",
"487 452 CURVE SMOOTH",
"478 432 OFFCURVE",
"464 416 OFFCURVE",
"447 402 CURVE SMOOTH",
"430 388 OFFCURVE",
"409 376 OFFCURVE",
"384 369 CURVE SMOOTH",
"359 362 OFFCURVE",
"331 358 OFFCURVE",
"300 358 CURVE SMOOTH"
);
}
);
width = 676;
}
);
note = R;
unicode = 0052;
},
{
glyphname = S;
layers = (
{
layerId = "3F211455-7DB7-4737-9D97-BF0B219628E9";
name = Light;
paths = (
{
closed = 1;
nodes = (
"449 298 OFFCURVE",
"435 316 OFFCURVE",
"418 329 CURVE SMOOTH",
"401 342 OFFCURVE",
"383 353 OFFCURVE",
"362 362 CURVE SMOOTH",
"341 371 OFFCURVE",
"318 379 OFFCURVE",
"296 386 CURVE SMOOTH",
"274 393 OFFCURVE",
"252 401 OFFCURVE",
"231 408 CURVE",
"210 416 OFFCURVE",
"191 425 OFFCURVE",
"174 436 CURVE SMOOTH",
"157 447 OFFCURVE",
"144 460 OFFCURVE",
"134 476 CURVE SMOOTH",
"124 492 OFFCURVE",
"118 512 OFFCURVE",
"118 536 CURVE SMOOTH",
"118 554 OFFCURVE",
"122 571 OFFCURVE",
"129 588 CURVE SMOOTH",
"136 605 OFFCURVE",
"146 619 OFFCURVE",
"159 632 CURVE SMOOTH",
"172 645 OFFCURVE",
"188 655 OFFCURVE",
"208 662 CURVE SMOOTH",
"228 669 OFFCURVE",
"250 673 OFFCURVE",
"276 673 CURVE SMOOTH",
"324 673 OFFCURVE",
"368 665 OFFCURVE",
"408 648 CURVE",
"411 591 OFFCURVE",
"413 559 OFFCURVE",
"413 554 CURVE",
"414 538 OFFCURVE",
"420 529 OFFCURVE",
"434 529 CURVE SMOOTH",
"458 529 LINE",
"458 674 LINE",
"395 701 OFFCURVE",
"335 715 OFFCURVE",
"276 715 CURVE SMOOTH",
"243 715 OFFCURVE",
"214 710 OFFCURVE",
"188 700 CURVE SMOOTH",
"162 690 OFFCURVE",
"141 677 OFFCURVE",
"124 660 CURVE SMOOTH",
"107 643 OFFCURVE",
"93 624 OFFCURVE",
"84 602 CURVE SMOOTH",
"75 580 OFFCURVE",
"71 557 OFFCURVE",
"71 533 CURVE SMOOTH",
"71 503 OFFCURVE",
"76 477 OFFCURVE",
"86 457 CURVE SMOOTH",
"96 437 OFFCURVE",
"110 421 OFFCURVE",
"127 407 CURVE SMOOTH",
"144 393 OFFCURVE",
"162 383 OFFCURVE",
"183 374 CURVE SMOOTH",
"204 365 OFFCURVE",
"227 357 OFFCURVE",
"249 350 CURVE SMOOTH",
"271 343 OFFCURVE",
"292 336 OFFCURVE",
"314 329 CURVE SMOOTH",
"335 322 OFFCURVE",
"354 312 OFFCURVE",
"371 301 CURVE SMOOTH",
"388 290 OFFCURVE",
"401 277 OFFCURVE",
"411 261 CURVE SMOOTH",
"421 245 OFFCURVE",
"426 224 OFFCURVE",
"426 199 CURVE SMOOTH",
"426 176 OFFCURVE",
"422 154 OFFCURVE",
"414 134 CURVE SMOOTH",
"406 114 OFFCURVE",
"395 97 OFFCURVE",
"380 82 CURVE SMOOTH",
"365 67 OFFCURVE",
"346 55 OFFCURVE",
"324 47 CURVE",
"302 38 OFFCURVE",
"277 35 OFFCURVE",
"249 35 CURVE SMOOTH",
"193 35 OFFCURVE",
"146 44 OFFCURVE",
"108 62 CURVE",
"107 76 OFFCURVE",
"107 91 OFFCURVE",
"106 107 CURVE SMOOTH",
"105 123 OFFCURVE",
"105 136 OFFCURVE",
"104 147 CURVE SMOOTH",
"103 158 OFFCURVE",
"103 164 OFFCURVE",
"103 165 CURVE",
"102 181 OFFCURVE",
"95 189 OFFCURVE",
"81 189 CURVE SMOOTH",
"57 189 LINE",
"57 57 LINE",
"57 44 LINE",
"57 31 LINE",
"118 5 OFFCURVE",
"181 -8 OFFCURVE",
"247 -8 CURVE SMOOTH",
"283 -8 OFFCURVE",
"315 -2 OFFCURVE",
"343 9 CURVE SMOOTH",
"371 20 OFFCURVE",
"395 36 OFFCURVE",
"414 55 CURVE SMOOTH",
"433 74 OFFCURVE",
"449 97 OFFCURVE",
"459 123 CURVE SMOOTH",
"469 149 OFFCURVE",
"474 177 OFFCURVE",
"474 207 CURVE SMOOTH",
"474 236 OFFCURVE",
"469 260 OFFCURVE",
"459 279 CURVE SMOOTH"
);
}
);
width = 514;
}
);
note = S;
unicode = 0053;
},
{
glyphname = T;
layers = (
{
layerId = "3F211455-7DB7-4737-9D97-BF0B219628E9";
name = Light;
paths = (
{
closed = 1;
nodes = (
"587 707 LINE",
"573 707 LINE",
"52 707 LINE",
"37 707 LINE",
"30 707 LINE",
"30 561 LINE",
"55 561 LINE SMOOTH",
"69 561 OFFCURVE",
"75 569 OFFCURVE",
"76 585 CURVE",
"76 592 OFFCURVE",
"78 618 OFFCURVE",
"80 664 CURVE",
"287 664 LINE",
"287 40 LINE",
"275 40 OFFCURVE",
"265 39 OFFCURVE",
"255 39 CURVE SMOOTH",
"245 39 OFFCURVE",
"237 38 OFFCURVE",
"232 38 CURVE SMOOTH",
"223 38 LINE",
"210 37 OFFCURVE",
"203 31 OFFCURVE",
"203 20 CURVE SMOOTH",
"203 0 LINE",
"287 0 LINE",
"338 0 LINE",
"423 0 LINE",
"423 20 LINE SMOOTH",
"423 31 OFFCURVE",
"416 37 OFFCURVE",
"403 38 CURVE",
"393 38 LINE SMOOTH",
"388 38 OFFCURVE",
"381 39 OFFCURVE",
"371 39 CURVE SMOOTH",
"361 39 OFFCURVE",
"350 40 OFFCURVE",
"338 40 CURVE",
"338 664 LINE",
"544 664 LINE",
"547 613 OFFCURVE",
"548 587 OFFCURVE",
"548 585 CURVE",
"549 569 OFFCURVE",
"556 561 OFFCURVE",
"570 561 CURVE SMOOTH",
"594 561 LINE",
"594 707 LINE"
);
}
);
width = 623;
}
);
note = T;
unicode = 0054;
},
{
glyphname = U;
layers = (
{
layerId = "3F211455-7DB7-4737-9D97-BF0B219628E9";
name = Light;
paths = (
{
closed = 1;
nodes = (
"644 707 LINE",
"593 707 LINE",
"496 707 LINE",
"496 688 LINE SMOOTH",
"496 677 OFFCURVE",
"503 671 OFFCURVE",
"516 670 CURVE",
"528 670 LINE SMOOTH",
"535 670 OFFCURVE",
"545 669 OFFCURVE",
"557 669 CURVE SMOOTH",
"569 669 OFFCURVE",
"581 668 OFFCURVE",
"593 668 CURVE",
"593 270 LINE SMOOTH",
"593 237 OFFCURVE",
"588 207 OFFCURVE",
"578 178 CURVE SMOOTH",
"568 149 OFFCURVE",
"554 124 OFFCURVE",
"535 103 CURVE SMOOTH",
"516 82 OFFCURVE",
"494 66 OFFCURVE",
"467 54 CURVE SMOOTH",
"440 42 OFFCURVE",
"410 36 OFFCURVE",
"376 36 CURVE SMOOTH",
"342 36 OFFCURVE",
"311 42 OFFCURVE",
"284 54 CURVE SMOOTH",
"257 66 OFFCURVE",
"234 83 OFFCURVE",
"216 104 CURVE SMOOTH",
"197 125 OFFCURVE",
"184 150 OFFCURVE",
"174 178 CURVE SMOOTH",
"164 206 OFFCURVE",
"159 237 OFFCURVE",
"159 270 CURVE SMOOTH",
"159 668 LINE",
"171 668 OFFCURVE",
"183 669 OFFCURVE",
"195 669 CURVE SMOOTH",
"207 669 OFFCURVE",
"217 670 OFFCURVE",
"224 670 CURVE SMOOTH",
"236 670 LINE",
"249 671 OFFCURVE",
"256 677 OFFCURVE",
"256 688 CURVE SMOOTH",
"256 707 LINE",
"159 707 LINE",
"108 707 LINE",
"24 707 LINE",
"24 688 LINE SMOOTH",
"24 677 OFFCURVE",
"30 671 OFFCURVE",
"43 670 CURVE",
"53 670 LINE SMOOTH",
"58 670 OFFCURVE",
"65 669 OFFCURVE",
"75 669 CURVE SMOOTH",
"85 669 OFFCURVE",
"96 668 OFFCURVE",
"108 668 CURVE",
"108 270 LINE SMOOTH",
"108 231 OFFCURVE",
"114 195 OFFCURVE",
"126 161 CURVE SMOOTH",
"138 127 OFFCURVE",
"156 97 OFFCURVE",
"179 72 CURVE SMOOTH",
"202 47 OFFCURVE",
"231 27 OFFCURVE",
"264 13 CURVE SMOOTH",
"297 -1 OFFCURVE",
"335 -8 OFFCURVE",
"376 -8 CURVE SMOOTH",
"417 -8 OFFCURVE",
"454 -1 OFFCURVE",
"487 13 CURVE SMOOTH",
"520 27 OFFCURVE",
"549 47 OFFCURVE",
"572 72 CURVE SMOOTH",
"595 97 OFFCURVE",
"613 127 OFFCURVE",
"625 161 CURVE SMOOTH",
"637 195 OFFCURVE",
"644 231 OFFCURVE",
"644 270 CURVE SMOOTH",
"644 668 LINE",
"656 668 OFFCURVE",
"666 669 OFFCURVE",
"676 669 CURVE SMOOTH",
"686 669 OFFCURVE",
"694 670 OFFCURVE",
"699 670 CURVE SMOOTH",
"708 670 LINE",
"721 671 OFFCURVE",
"728 677 OFFCURVE",
"728 688 CURVE SMOOTH",
"728 707 LINE"
);
}
);
width = 751;
}
);
note = U;
unicode = 0055;
},
{
glyphname = V;
layers = (
{
layerId = "3F211455-7DB7-4737-9D97-BF0B219628E9";
name = Light;
paths = (
{
closed = 1;
nodes = (
"696 707 LINE",
"656 707 LINE",
"654 707 LINE",
"549 707 LINE",
"549 688 LINE SMOOTH",
"549 677 OFFCURVE",
"555 671 OFFCURVE",
"568 670 CURVE",
"577 670 LINE SMOOTH",
"581 670 OFFCURVE",
"587 669 OFFCURVE",
"596 669 CURVE SMOOTH",
"605 669 OFFCURVE",
"615 668 OFFCURVE",
"626 668 CURVE",
"397 107 LINE SMOOTH",
"391 92 OFFCURVE",
"386 76 OFFCURVE",
"382 58 CURVE",
"378 75 OFFCURVE",
"373 92 OFFCURVE",
"367 107 CURVE SMOOTH",
"136 668 LINE",
"147 668 OFFCURVE",
"158 669 OFFCURVE",
"167 669 CURVE SMOOTH",
"176 669 OFFCURVE",
"182 670 OFFCURVE",
"186 670 CURVE SMOOTH",
"194 670 LINE",
"207 671 OFFCURVE",
"214 677 OFFCURVE",
"214 688 CURVE SMOOTH",
"214 707 LINE",
"107 707 LINE",
"67 707 LINE",
"24 707 LINE",
"24 688 LINE SMOOTH",
"24 677 OFFCURVE",
"31 671 OFFCURVE",
"44 670 CURVE",
"51 670 LINE SMOOTH",
"54 670 OFFCURVE",
"59 669 OFFCURVE",
"64 669 CURVE SMOOTH",
"69 669 OFFCURVE",
"76 668 OFFCURVE",
"83 668 CURVE",
"359 0 LINE",
"404 0 LINE",
"680 668 LINE",
"687 668 OFFCURVE",
"694 669 OFFCURVE",
"699 669 CURVE SMOOTH",
"704 669 OFFCURVE",
"709 670 OFFCURVE",
"712 670 CURVE SMOOTH",
"718 670 LINE",
"731 671 OFFCURVE",
"738 677 OFFCURVE",
"738 688 CURVE SMOOTH",
"738 707 LINE"
);
}
);
width = 763;
}
);
leftKerningGroup = V;
note = V;
rightKerningGroup = V;
unicode = 0056;
},
{
glyphname = W;
layers = (
{
layerId = "3F211455-7DB7-4737-9D97-BF0B219628E9";
name = Light;
paths = (
{
closed = 1;
nodes = (
"1036 707 LINE",
"997 707 LINE",
"994 707 LINE",
"889 707 LINE",
"889 688 LINE SMOOTH",
"889 677 OFFCURVE",
"895 671 OFFCURVE",
"908 670 CURVE",
"917 670 LINE SMOOTH",
"921 670 OFFCURVE",
"928 669 OFFCURVE",
"938 669 CURVE SMOOTH",
"948 669 OFFCURVE",
"958 668 OFFCURVE",
"970 668 CURVE",
"800 113 LINE SMOOTH",
"798 106 OFFCURVE",
"796 99 OFFCURVE",
"795 91 CURVE SMOOTH",
"794 83 OFFCURVE",
"792 76 OFFCURVE",
"790 68 CURVE",
"788 76 OFFCURVE",
"787 85 OFFCURVE",
"785 92 CURVE SMOOTH",
"779 113 LINE",
"579 694 LINE",
"577 698 OFFCURVE",
"575 702 OFFCURVE",
"572 704 CURVE SMOOTH",
"569 706 OFFCURVE",
"565 707 OFFCURVE",
"560 707 CURVE SMOOTH",
"546 707 LINE SMOOTH",
"541 707 OFFCURVE",
"537 706 OFFCURVE",
"534 703 CURVE SMOOTH",
"531 700 OFFCURVE",
"528 698 OFFCURVE",
"527 694 CURVE",
"327 112 LINE",
"325 105 OFFCURVE",
"323 99 OFFCURVE",
"321 91 CURVE SMOOTH",
"319 84 OFFCURVE",
"318 76 OFFCURVE",
"316 67 CURVE",
"315 74 OFFCURVE",
"313 82 OFFCURVE",
"311 91 CURVE",
"310 99 OFFCURVE",
"308 106 OFFCURVE",
"306 113 CURVE SMOOTH",
"136 668 LINE",
"148 668 OFFCURVE",
"158 669 OFFCURVE",
"167 669 CURVE SMOOTH",
"176 669 OFFCURVE",
"182 670 OFFCURVE",
"186 670 CURVE SMOOTH",
"194 670 LINE",
"207 671 OFFCURVE",
"214 677 OFFCURVE",
"214 688 CURVE SMOOTH",
"214 707 LINE",
"109 707 LINE",
"67 707 LINE",
"24 707 LINE",
"24 688 LINE SMOOTH",
"24 677 OFFCURVE",
"31 671 OFFCURVE",
"44 670 CURVE",
"51 670 LINE SMOOTH",
"54 670 OFFCURVE",
"57 669 OFFCURVE",
"62 669 CURVE SMOOTH",
"67 669 OFFCURVE",
"73 668 OFFCURVE",
"79 668 CURVE",
"290 0 LINE",
"335 0 LINE",
"545 614 LINE SMOOTH",
"548 622 OFFCURVE",
"550 630 OFFCURVE",
"552 639 CURVE",
"554 630 OFFCURVE",
"556 622 OFFCURVE",
"559 614 CURVE SMOOTH",
"768 0 LINE",
"814 0 LINE",
"1024 668 LINE",
"1030 668 OFFCURVE",
"1035 669 OFFCURVE",
"1040 669 CURVE SMOOTH",
"1045 669 OFFCURVE",
"1049 670 OFFCURVE",
"1052 670 CURVE SMOOTH",
"1059 670 LINE",
"1072 671 OFFCURVE",
"1078 677 OFFCURVE",
"1078 688 CURVE SMOOTH",
"1078 707 LINE"
);
}
);
width = 1103;
}
);
leftKerningGroup = V;
note = W;
rightKerningGroup = W;
unicode = 0057;
},
{
glyphname = X;
layers = (
{
layerId = "3F211455-7DB7-4737-9D97-BF0B219628E9";
name = Light;
paths = (
{
closed = 1;
nodes = (
"662 38 LINE SMOOTH",
"659 38 OFFCURVE",
"654 39 OFFCURVE",
"649 39 CURVE SMOOTH",
"644 39 OFFCURVE",
"638 40 OFFCURVE",
"631 40 CURVE",
"404 366 LINE",
"621 668 LINE",
"629 668 OFFCURVE",
"634 669 OFFCURVE",
"640 669 CURVE SMOOTH",
"646 669 OFFCURVE",
"651 670 OFFCURVE",
"654 670 CURVE SMOOTH",
"661 670 LINE",
"674 671 OFFCURVE",
"681 677 OFFCURVE",
"681 688 CURVE SMOOTH",
"681 707 LINE",
"649 707 LINE",
"630 707 LINE",
"600 707 LINE",
"597 707 LINE",
"483 707 LINE",
"483 688 LINE SMOOTH",
"483 677 OFFCURVE",
"490 671 OFFCURVE",
"503 670 CURVE",
"511 670 LINE SMOOTH",
"515 670 OFFCURVE",
"522 669 OFFCURVE",
"532 669 CURVE SMOOTH",
"542 669 OFFCURVE",
"552 668 OFFCURVE",
"564 668 CURVE",
"377 403 LINE SMOOTH",
"375 400 OFFCURVE",
"374 398 OFFCURVE",
"373 395 CURVE",
"372 393 OFFCURVE",
"371 390 OFFCURVE",
"370 387 CURVE",
"176 668 LINE",
"187 668 OFFCURVE",
"196 669 OFFCURVE",
"205 669 CURVE SMOOTH",
"214 669 OFFCURVE",
"220 670 OFFCURVE",
"223 670 CURVE SMOOTH",
"231 670 LINE",
"244 671 OFFCURVE",
"250 677 OFFCURVE",
"250 688 CURVE SMOOTH",
"250 707 LINE",
"140 707 LINE",
"139 707 LINE",
"103 707 LINE",
"88 707 LINE",
"56 707 LINE",
"56 688 LINE SMOOTH",
"56 677 OFFCURVE",
"63 671 OFFCURVE",
"76 670 CURVE",
"83 670 LINE SMOOTH",
"86 670 OFFCURVE",
"91 669 OFFCURVE",
"97 669 CURVE SMOOTH",
"103 669 OFFCURVE",
"109 668 OFFCURVE",
"117 668 CURVE",
"332 363 LINE",
"105 40 LINE",
"97 40 OFFCURVE",
"91 39 OFFCURVE",
"85 39 CURVE SMOOTH",
"79 39 OFFCURVE",
"74 38 OFFCURVE",
"71 38 CURVE SMOOTH",
"64 38 LINE",
"51 37 OFFCURVE",
"44 31 OFFCURVE",
"44 20 CURVE SMOOTH",
"44 0 LINE",
"77 0 LINE",
"95 0 LINE",
"123 0 LINE",
"129 0 LINE",
"243 0 LINE",
"243 20 LINE SMOOTH",
"243 31 OFFCURVE",
"236 37 OFFCURVE",
"223 38 CURVE",
"214 38 LINE SMOOTH",
"210 38 OFFCURVE",
"202 39 OFFCURVE",
"193 39 CURVE SMOOTH",
"184 39 OFFCURVE",
"173 40 OFFCURVE",
"161 40 CURVE SMOOTH",
"161 40 LINE",
"361 324 LINE",
"364 329 OFFCURVE",
"367 333 OFFCURVE",
"368 338 CURVE",
"572 40 LINE",
"561 40 OFFCURVE",
"551 39 OFFCURVE",
"542 39 CURVE SMOOTH",
"533 39 OFFCURVE",
"526 38 OFFCURVE",
"523 38 CURVE SMOOTH",
"516 38 LINE",
"503 37 OFFCURVE",
"496 31 OFFCURVE",
"496 20 CURVE SMOOTH",
"496 0 LINE",
"604 0 LINE",
"608 0 LINE",
"644 0 LINE",
"659 0 LINE",
"688 0 LINE",
"688 20 LINE SMOOTH",
"688 31 OFFCURVE",
"681 37 OFFCURVE",
"668 38 CURVE"
);
}
);
width = 732;
}
);
note = X;
unicode = 0058;
},
{
glyphname = Y;
layers = (
{
layerId = "3F211455-7DB7-4737-9D97-BF0B219628E9";
name = Light;
paths = (
{
closed = 1;
nodes = (
"631 707 LINE",
"626 707 LINE",
"586 707 LINE",
"578 707 LINE",
"478 707 LINE",
"478 688 LINE SMOOTH",
"478 677 OFFCURVE",
"485 671 OFFCURVE",
"498 670 CURVE",
"506 670 LINE SMOOTH",
"510 670 OFFCURVE",
"515 669 OFFCURVE",
"523 669 CURVE SMOOTH",
"531 669 OFFCURVE",
"540 668 OFFCURVE",
"550 668 CURVE",
"365 370 LINE SMOOTH",
"360 362 OFFCURVE",
"356 355 OFFCURVE",
"353 348 CURVE SMOOTH",
"350 341 OFFCURVE",
"347 333 OFFCURVE",
"344 326 CURVE",
"341 333 OFFCURVE",
"338 341 OFFCURVE",
"335 348 CURVE SMOOTH",
"332 355 OFFCURVE",
"328 362 OFFCURVE",
"323 370 CURVE SMOOTH",
"137 668 LINE",
"147 668 OFFCURVE",
"156 669 OFFCURVE",
"164 669 CURVE SMOOTH",
"172 669 OFFCURVE",
"178 670 OFFCURVE",
"182 670 CURVE SMOOTH",
"189 670 LINE",
"202 671 OFFCURVE",
"209 677 OFFCURVE",
"209 688 CURVE SMOOTH",
"209 707 LINE",
"109 707 LINE",
"101 707 LINE",
"61 707 LINE",
"56 707 LINE",
"24 707 LINE",
"24 688 LINE SMOOTH",
"24 677 OFFCURVE",
"31 671 OFFCURVE",
"44 670 CURVE SMOOTH",
"61 669 OFFCURVE",
"74 668 OFFCURVE",
"81 668 CURVE",
"318 292 LINE",
"318 40 LINE",
"306 40 OFFCURVE",
"295 39 OFFCURVE",
"285 39 CURVE SMOOTH",
"275 39 OFFCURVE",
"268 38 OFFCURVE",
"263 38 CURVE SMOOTH",
"254 38 LINE",
"241 37 OFFCURVE",
"234 31 OFFCURVE",
"234 20 CURVE SMOOTH",
"234 0 LINE",
"318 0 LINE",
"369 0 LINE",
"453 0 LINE",
"453 20 LINE SMOOTH",
"453 31 OFFCURVE",
"447 37 OFFCURVE",
"434 38 CURVE",
"424 38 LINE SMOOTH",
"419 38 OFFCURVE",
"412 39 OFFCURVE",
"402 39 CURVE SMOOTH",
"392 39 OFFCURVE",
"381 40 OFFCURVE",
"369 40 CURVE",
"369 292 LINE",
"606 668 LINE",
"614 668 OFFCURVE",
"626 669 OFFCURVE",
"643 670 CURVE SMOOTH",
"656 671 OFFCURVE",
"663 677 OFFCURVE",
"663 688 CURVE SMOOTH",
"663 707 LINE"
);
}
);
width = 687;
}
);
leftKerningGroup = V;
note = Y;
rightKerningGroup = Y;
unicode = 0059;
},
{
glyphname = Z;
layers = (
{
layerId = "3F211455-7DB7-4737-9D97-BF0B219628E9";
name = Light;
paths = (
{
closed = 1;
nodes = (
"575 707 LINE",
"64 707 LINE",
"64 707 LINE",
"64 556 LINE",
"89 556 LINE SMOOTH",
"103 556 OFFCURVE",
"109 564 OFFCURVE",
"110 580 CURVE",
"110 581 OFFCURVE",
"111 586 OFFCURVE",
"112 593 CURVE SMOOTH",
"113 600 OFFCURVE",
"113 611 OFFCURVE",
"114 624 CURVE SMOOTH",
"115 637 OFFCURVE",
"116 650 OFFCURVE",
"117 665 CURVE",
"507 665 LINE",
"57 36 LINE SMOOTH",
"53 30 OFFCURVE",
"52 25 OFFCURVE",
"52 19 CURVE SMOOTH",
"52 0 LINE",
"571 0 LINE",
"571 0 LINE",
"571 152 LINE",
"547 152 LINE SMOOTH",
"533 152 OFFCURVE",
"527 143 OFFCURVE",
"526 127 CURVE",
"526 126 OFFCURVE",
"525 121 OFFCURVE",
"524 114 CURVE SMOOTH",
"523 107 OFFCURVE",
"523 97 OFFCURVE",
"522 84 CURVE SMOOTH",
"521 71 OFFCURVE",
"520 57 OFFCURVE",
"519 42 CURVE",
"119 42 LINE",
"568 669 LINE SMOOTH",
"573 676 OFFCURVE",
"575 683 OFFCURVE",
"575 690 CURVE SMOOTH"
);
}
);
width = 633;
}
);
note = Z;
unicode = 005A;
},
{
glyphname = bracketleft;
layers = (
{
layerId = "3F211455-7DB7-4737-9D97-BF0B219628E9";
name = Light;
paths = (
{
closed = 1;
nodes = (
"85 -132 LINE",
"244 -132 LINE",
"244 -114 LINE SMOOTH",
"244 -110 OFFCURVE",
"243 -107 OFFCURVE",
"240 -104 CURVE SMOOTH",
"237 -101 OFFCURVE",
"233 -100 OFFCURVE",
"228 -100 CURVE SMOOTH",
"126 -100 LINE",
"126 726 LINE",
"228 726 LINE SMOOTH",
"233 726 OFFCURVE",
"237 727 OFFCURVE",
"240 730 CURVE SMOOTH",
"243 733 OFFCURVE",
"244 736 OFFCURVE",
"244 740 CURVE SMOOTH",
"244 758 LINE",
"85 758 LINE"
);
}
);
width = 269;
}
);
note = bracketleft;
unicode = 005B;
},
{
glyphname = backslash;
layers = (
{
layerId = "3F211455-7DB7-4737-9D97-BF0B219628E9";
name = Light;
paths = (
{
closed = 1;
nodes = (
"32 728 LINE",
"343 -22 LINE SMOOTH",
"346 -29 OFFCURVE",
"350 -34 OFFCURVE",
"355 -37 CURVE SMOOTH",
"360 -40 OFFCURVE",
"366 -42 OFFCURVE",
"372 -42 CURVE SMOOTH",
"391 -42 LINE",
"80 709 LINE SMOOTH",
"75 721 OFFCURVE",
"66 728 OFFCURVE",
"53 728 CURVE SMOOTH"
);
}
);
width = 414;
}
);
note = backslash;
unicode = 005C;
},
{
glyphname = bracketright;
layers = (
{
layerId = "3F211455-7DB7-4737-9D97-BF0B219628E9";
name = Light;
paths = (
{
closed = 1;
nodes = (
"25 -132 LINE",
"184 -132 LINE",
"184 758 LINE",
"25 758 LINE",
"25 740 LINE SMOOTH",
"25 736 OFFCURVE",
"26 733 OFFCURVE",
"29 730 CURVE SMOOTH",
"32 727 OFFCURVE",
"35 726 OFFCURVE",
"40 726 CURVE SMOOTH",
"143 726 LINE",
"143 -100 LINE",
"40 -100 LINE SMOOTH",
"35 -100 OFFCURVE",
"32 -101 OFFCURVE",
"29 -104 CURVE SMOOTH",
"26 -107 OFFCURVE",
"25 -110 OFFCURVE",
"25 -114 CURVE SMOOTH"
);
}
);
width = 268;
}
);
note = bracketright;
unicode = 005D;
},
{
glyphname = asciicircum;
layers = (
{
layerId = "3F211455-7DB7-4737-9D97-BF0B219628E9";
name = Light;
paths = (
{
closed = 1;
nodes = (
"212 708 LINE",
"42 400 LINE",
"78 400 LINE SMOOTH",
"82 400 OFFCURVE",
"85 402 OFFCURVE",
"88 404 CURVE SMOOTH",
"91 406 OFFCURVE",
"92 409 OFFCURVE",
"94 412 CURVE",
"214 630 LINE",
"217 635 OFFCURVE",
"220 640 OFFCURVE",
"222 645 CURVE SMOOTH",
"224 650 OFFCURVE",
"226 656 OFFCURVE",
"228 661 CURVE",
"234 646 LINE SMOOTH",
"236 641 OFFCURVE",
"239 636 OFFCURVE",
"242 630 CURVE",
"362 412 LINE",
"364 409 OFFCURVE",
"366 405 OFFCURVE",
"369 403 CURVE SMOOTH",
"372 401 OFFCURVE",
"375 400 OFFCURVE",
"379 400 CURVE SMOOTH",
"413 400 LINE",
"242 708 LINE"
);
}
);
width = 455;
}
);
note = asciicircum;
unicode = 005E;
},
{
glyphname = underscore;
layers = (
{
layerId = "3F211455-7DB7-4737-9D97-BF0B219628E9";
name = Light;
paths = (
{
closed = 1;
nodes = (
"482 -102 LINE",
"88 -102 LINE",
"88 -136 LINE",
"482 -136 LINE"
);
}
);
width = 570;
}
);
note = underscore;
unicode = 005F;
},
{
glyphname = grave;
layers = (
{
layerId = "3F211455-7DB7-4737-9D97-BF0B219628E9";
name = Light;
paths = (
{
closed = 1;
nodes = (
"58 716 LINE",
"167 589 LINE",
"170 586 OFFCURVE",
"172 583 OFFCURVE",
"175 582 CURVE SMOOTH",
"178 581 OFFCURVE",
"182 580 OFFCURVE",
"186 580 CURVE SMOOTH",
"212 580 LINE",
"134 700 LINE SMOOTH",
"130 706 OFFCURVE",
"126 710 OFFCURVE",
"122 712 CURVE SMOOTH",
"118 714 OFFCURVE",
"112 716 OFFCURVE",
"104 716 CURVE SMOOTH"
);
}
);
width = 271;
}
);
note = grave;
unicode = 0060;
},
{
glyphname = a;
layers = (
{
layerId = "3F211455-7DB7-4737-9D97-BF0B219628E9";
name = Light;
paths = (
{
closed = 1;
nodes = (
"443 38 LINE",
"427 38 LINE SMOOTH",
"420 38 OFFCURVE",
"412 39 OFFCURVE",
"404 39 CURVE",
"404 324 LINE SMOOTH",
"404 352 OFFCURVE",
"401 376 OFFCURVE",
"394 399 CURVE SMOOTH",
"387 422 OFFCURVE",
"377 441 OFFCURVE",
"364 457 CURVE SMOOTH",
"351 473 OFFCURVE",
"334 485 OFFCURVE",
"314 493 CURVE",
"294 502 OFFCURVE",
"271 506 OFFCURVE",
"244 506 CURVE SMOOTH",
"208 506 OFFCURVE",
"176 499 OFFCURVE",
"147 486 CURVE SMOOTH",
"118 473 OFFCURVE",
"91 453 OFFCURVE",
"65 427 CURVE",
"73 412 LINE SMOOTH",
"76 406 OFFCURVE",
"81 403 OFFCURVE",
"88 403 CURVE SMOOTH",
"93 403 OFFCURVE",
"100 407 OFFCURVE",
"107 414 CURVE SMOOTH",
"114 421 OFFCURVE",
"124 427 OFFCURVE",
"136 435 CURVE SMOOTH",
"148 443 OFFCURVE",
"161 450 OFFCURVE",
"178 457 CURVE SMOOTH",
"195 464 OFFCURVE",
"215 467 OFFCURVE",
"239 467 CURVE SMOOTH",
"278 467 OFFCURVE",
"308 455 OFFCURVE",
"328 430 CURVE SMOOTH",
"348 405 OFFCURVE",
"357 370 OFFCURVE",
"357 324 CURVE SMOOTH",
"357 272 LINE",
"301 271 OFFCURVE",
"253 266 OFFCURVE",
"213 258 CURVE SMOOTH",
"173 250 OFFCURVE",
"140 239 OFFCURVE",
"114 226 CURVE SMOOTH",
"88 213 OFFCURVE",
"70 197 OFFCURVE",
"58 179 CURVE SMOOTH",
"46 161 OFFCURVE",
"40 142 OFFCURVE",
"40 121 CURVE SMOOTH",
"40 98 OFFCURVE",
"44 78 OFFCURVE",
"51 62 CURVE",
"59 46 OFFCURVE",
"69 33 OFFCURVE",
"81 23 CURVE SMOOTH",
"93 13 OFFCURVE",
"108 5 OFFCURVE",
"124 0 CURVE SMOOTH",
"140 -5 OFFCURVE",
"156 -8 OFFCURVE",
"173 -8 CURVE SMOOTH",
"193 -8 OFFCURVE",
"212 -6 OFFCURVE",
"229 -2 CURVE SMOOTH",
"246 2 OFFCURVE",
"261 8 OFFCURVE",
"276 15 CURVE SMOOTH",
"291 22 OFFCURVE",
"305 31 OFFCURVE",
"319 42 CURVE",
"332 53 OFFCURVE",
"345 65 OFFCURVE",
"359 78 CURVE",
"366 14 LINE",
"368 5 OFFCURVE",
"375 0 OFFCURVE",
"385 0 CURVE SMOOTH",
"386 0 LINE",
"404 0 LINE",
"470 0 LINE",
"470 20 LINE SMOOTH",
"470 31 OFFCURVE",
"463 37 OFFCURVE",
"450 38 CURVE"
);
},
{
closed = 1;
nodes = (
"357 111 LINE",
"345 99 OFFCURVE",
"334 87 OFFCURVE",
"322 77 CURVE SMOOTH",
"310 67 OFFCURVE",
"297 58 OFFCURVE",
"283 50 CURVE SMOOTH",
"269 42 OFFCURVE",
"254 37 OFFCURVE",
"238 33 CURVE SMOOTH",
"222 29 OFFCURVE",
"204 27 OFFCURVE",
"185 27 CURVE SMOOTH",
"172 27 OFFCURVE",
"159 28 OFFCURVE",
"147 32 CURVE SMOOTH",
"135 36 OFFCURVE",
"125 41 OFFCURVE",
"116 49 CURVE SMOOTH",
"107 57 OFFCURVE",
"99 67 OFFCURVE",
"94 79 CURVE",
"88 91 OFFCURVE",
"86 105 OFFCURVE",
"86 122 CURVE SMOOTH",
"86 140 OFFCURVE",
"91 156 OFFCURVE",
"102 170 CURVE SMOOTH",
"113 184 OFFCURVE",
"129 195 OFFCURVE",
"151 205 CURVE SMOOTH",
"173 215 OFFCURVE",
"201 223 OFFCURVE",
"235 229 CURVE SMOOTH",
"269 235 OFFCURVE",
"310 239 OFFCURVE",
"357 240 CURVE"
);
}
);
width = 513;
}
);
note = a;
unicode = 0061;
},
{
glyphname = b;
layers = (
{
layerId = "3F211455-7DB7-4737-9D97-BF0B219628E9";
name = Light;
paths = (
{
closed = 1;
nodes = (
"425 484 OFFCURVE",
"377 506 OFFCURVE",
"316 506 CURVE SMOOTH",
"280 506 OFFCURVE",
"247 497 OFFCURVE",
"218 480 CURVE SMOOTH",
"189 463 OFFCURVE",
"164 440 OFFCURVE",
"142 411 CURVE",
"141 728 LINE",
"94 728 LINE",
"22 728 LINE",
"22 708 LINE SMOOTH",
"22 697 OFFCURVE",
"28 691 OFFCURVE",
"41 690 CURVE",
"47 690 LINE SMOOTH",
"49 690 OFFCURVE",
"51 689 OFFCURVE",
"54 689 CURVE SMOOTH",
"69 689 LINE SMOOTH",
"76 689 OFFCURVE",
"85 688 OFFCURVE",
"94 688 CURVE",
"94 47 LINE",
"94 22 LINE",
"182 3 OFFCURVE",
"248 -6 OFFCURVE",
"293 -6 CURVE SMOOTH",
"328 -6 OFFCURVE",
"359 1 OFFCURVE",
"386 14 CURVE SMOOTH",
"413 27 OFFCURVE",
"435 45 OFFCURVE",
"454 68 CURVE SMOOTH",
"473 91 OFFCURVE",
"486 119 OFFCURVE",
"496 150 CURVE SMOOTH",
"506 181 OFFCURVE",
"510 216 OFFCURVE",
"510 252 CURVE SMOOTH",
"510 337 OFFCURVE",
"493 400 OFFCURVE",
"459 442 CURVE SMOOTH"
);
},
{
closed = 1;
nodes = (
"442 135 OFFCURVE",
"431 111 OFFCURVE",
"416 92 CURVE SMOOTH",
"401 72 OFFCURVE",
"383 58 OFFCURVE",
"361 47 CURVE SMOOTH",
"339 36 OFFCURVE",
"313 31 OFFCURVE",
"284 31 CURVE SMOOTH",
"258 31 OFFCURVE",
"210 38 OFFCURVE",
"141 52 CURVE",
"141 371 LINE",
"162 401 OFFCURVE",
"186 425 OFFCURVE",
"213 442 CURVE SMOOTH",
"240 459 OFFCURVE",
"269 468 OFFCURVE",
"302 468 CURVE SMOOTH",
"353 468 OFFCURVE",
"393 450 OFFCURVE",
"420 415 CURVE SMOOTH",
"447 380 OFFCURVE",
"461 326 OFFCURVE",
"461 252 CURVE SMOOTH",
"461 219 OFFCURVE",
"458 189 OFFCURVE",
"450 162 CURVE SMOOTH"
);
}
);
width = 547;
}
);
note = b;
unicode = 0062;
},
{
glyphname = c;
layers = (
{
layerId = "3F211455-7DB7-4737-9D97-BF0B219628E9";
name = Light;
paths = (
{
closed = 1;
nodes = (
"409 80 LINE",
"407 83 OFFCURVE",
"403 85 OFFCURVE",
"399 85 CURVE SMOOTH",
"395 85 OFFCURVE",
"391 83 OFFCURVE",
"385 77 CURVE SMOOTH",
"379 71 OFFCURVE",
"370 65 OFFCURVE",
"360 58 CURVE SMOOTH",
"350 51 OFFCURVE",
"336 46 OFFCURVE",
"320 40 CURVE SMOOTH",
"304 34 OFFCURVE",
"283 31 OFFCURVE",
"259 31 CURVE SMOOTH",
"233 31 OFFCURVE",
"209 36 OFFCURVE",
"188 46 CURVE SMOOTH",
"167 56 OFFCURVE",
"149 69 OFFCURVE",
"134 88 CURVE SMOOTH",
"119 106 OFFCURVE",
"107 129 OFFCURVE",
"99 156 CURVE SMOOTH",
"91 183 OFFCURVE",
"87 214 OFFCURVE",
"87 249 CURVE SMOOTH",
"87 283 OFFCURVE",
"91 313 OFFCURVE",
"99 340 CURVE SMOOTH",
"107 367 OFFCURVE",
"119 390 OFFCURVE",
"134 409 CURVE SMOOTH",
"149 428 OFFCURVE",
"168 443 OFFCURVE",
"190 453 CURVE SMOOTH",
"212 463 OFFCURVE",
"237 468 OFFCURVE",
"266 468 CURVE SMOOTH",
"291 468 OFFCURVE",
"319 462 OFFCURVE",
"351 451 CURVE",
"352 438 OFFCURVE",
"352 425 OFFCURVE",
"353 413 CURVE SMOOTH",
"354 401 OFFCURVE",
"355 392 OFFCURVE",
"356 385 CURVE SMOOTH",
"357 378 OFFCURVE",
"357 374 OFFCURVE",
"357 373 CURVE",
"358 357 OFFCURVE",
"365 349 OFFCURVE",
"379 349 CURVE SMOOTH",
"403 349 LINE",
"403 474 LINE",
"377 482 LINE SMOOTH",
"360 487 OFFCURVE",
"339 493 OFFCURVE",
"316 498 CURVE SMOOTH",
"293 503 OFFCURVE",
"275 505 OFFCURVE",
"263 505 CURVE SMOOTH",
"227 505 OFFCURVE",
"196 500 OFFCURVE",
"168 487 CURVE SMOOTH",
"140 474 OFFCURVE",
"116 457 OFFCURVE",
"97 434 CURVE SMOOTH",
"78 411 OFFCURVE",
"64 384 OFFCURVE",
"54 353 CURVE SMOOTH",
"44 322 OFFCURVE",
"38 287 OFFCURVE",
"38 249 CURVE SMOOTH",
"38 209 OFFCURVE",
"43 173 OFFCURVE",
"54 141 CURVE SMOOTH",
"64 109 OFFCURVE",
"79 83 OFFCURVE",
"98 61 CURVE SMOOTH",
"117 39 OFFCURVE",
"140 22 OFFCURVE",
"166 11 CURVE SMOOTH",
"192 -1 OFFCURVE",
"220 -7 OFFCURVE",
"252 -7 CURVE SMOOTH",
"271 -7 OFFCURVE",
"289 -5 OFFCURVE",
"306 -1 CURVE SMOOTH",
"323 3 OFFCURVE",
"339 7 OFFCURVE",
"354 13 CURVE SMOOTH",
"369 19 OFFCURVE",
"381 27 OFFCURVE",
"393 36 CURVE SMOOTH",
"405 45 OFFCURVE",
"414 54 OFFCURVE",
"422 64 CURVE"
);
}
);
width = 459;
}
);
note = c;
unicode = 0063;
},
{
glyphname = d;
layers = (
{
layerId = "3F211455-7DB7-4737-9D97-BF0B219628E9";
name = Light;
paths = (
{
closed = 1;
nodes = (
"521 20 LINE SMOOTH",
"521 31 OFFCURVE",
"515 37 OFFCURVE",
"502 38 CURVE",
"497 38 LINE",
"490 38 LINE SMOOTH",
"487 38 OFFCURVE",
"482 39 OFFCURVE",
"476 39 CURVE SMOOTH",
"454 39 LINE",
"454 728 LINE",
"407 728 LINE",
"335 728 LINE",
"335 708 LINE SMOOTH",
"335 697 OFFCURVE",
"342 691 OFFCURVE",
"355 690 CURVE",
"360 690 LINE SMOOTH",
"362 690 OFFCURVE",
"364 689 OFFCURVE",
"367 689 CURVE SMOOTH",
"383 689 LINE SMOOTH",
"390 689 OFFCURVE",
"398 688 OFFCURVE",
"407 688 CURVE",
"407 433 LINE",
"389 457 OFFCURVE",
"368 475 OFFCURVE",
"343 487 CURVE SMOOTH",
"318 500 OFFCURVE",
"289 506 OFFCURVE",
"255 506 CURVE SMOOTH",
"220 506 OFFCURVE",
"189 499 OFFCURVE",
"162 486 CURVE SMOOTH",
"135 473 OFFCURVE",
"113 454 OFFCURVE",
"94 431 CURVE SMOOTH",
"75 408 OFFCURVE",
"62 380 OFFCURVE",
"52 349 CURVE SMOOTH",
"42 318 OFFCURVE",
"38 284 OFFCURVE",
"38 248 CURVE SMOOTH",
"38 163 OFFCURVE",
"55 99 OFFCURVE",
"89 57 CURVE SMOOTH",
"123 15 OFFCURVE",
"171 -6 OFFCURVE",
"232 -6 CURVE SMOOTH",
"269 -6 OFFCURVE",
"302 2 OFFCURVE",
"332 20 CURVE SMOOTH",
"362 38 OFFCURVE",
"387 62 OFFCURVE",
"409 92 CURVE",
"414 13 LINE",
"415 4 OFFCURVE",
"420 0 OFFCURVE",
"428 0 CURVE SMOOTH",
"454 0 LINE",
"521 0 LINE",
"521 15 LINE"
);
},
{
closed = 1;
nodes = (
"407 129 LINE",
"386 99 OFFCURVE",
"362 75 OFFCURVE",
"335 58 CURVE SMOOTH",
"308 41 OFFCURVE",
"279 32 OFFCURVE",
"246 32 CURVE SMOOTH",
"195 32 OFFCURVE",
"155 49 OFFCURVE",
"128 84 CURVE SMOOTH",
"101 119 OFFCURVE",
"87 174 OFFCURVE",
"87 248 CURVE SMOOTH",
"87 281 OFFCURVE",
"90 310 OFFCURVE",
"98 337 CURVE SMOOTH",
"106 364 OFFCURVE",
"117 388 OFFCURVE",
"132 407 CURVE SMOOTH",
"147 426 OFFCURVE",
"165 442 OFFCURVE",
"187 453 CURVE SMOOTH",
"209 464 OFFCURVE",
"235 469 OFFCURVE",
"264 469 CURVE SMOOTH",
"293 469 OFFCURVE",
"320 463 OFFCURVE",
"343 451 CURVE SMOOTH",
"366 439 OFFCURVE",
"388 419 OFFCURVE",
"407 391 CURVE"
);
}
);
width = 560;
}
);
note = d;
unicode = 0064;
},
{
glyphname = e;
layers = (
{
layerId = "3F211455-7DB7-4737-9D97-BF0B219628E9";
name = Light;
paths = (
{
closed = 1;
nodes = (
"228 506 OFFCURVE",
"196 499 OFFCURVE",
"168 487 CURVE SMOOTH",
"140 475 OFFCURVE",
"117 458 OFFCURVE",
"98 436 CURVE SMOOTH",
"79 414 OFFCURVE",
"64 388 OFFCURVE",
"54 358 CURVE SMOOTH",
"44 328 OFFCURVE",
"38 295 OFFCURVE",
"38 259 CURVE SMOOTH",
"38 217 OFFCURVE",
"44 179 OFFCURVE",
"55 146 CURVE SMOOTH",
"66 113 OFFCURVE",
"81 86 OFFCURVE",
"101 63 CURVE SMOOTH",
"121 40 OFFCURVE",
"145 23 OFFCURVE",
"173 11 CURVE SMOOTH",
"201 -1 OFFCURVE",
"232 -6 OFFCURVE",
"266 -6 CURVE SMOOTH",
"285 -6 OFFCURVE",
"304 -5 OFFCURVE",
"322 -1 CURVE SMOOTH",
"340 3 OFFCURVE",
"358 8 OFFCURVE",
"374 14 CURVE SMOOTH",
"390 20 OFFCURVE",
"405 27 OFFCURVE",
"418 36 CURVE SMOOTH",
"431 45 OFFCURVE",
"442 54 OFFCURVE",
"450 64 CURVE",
"437 80 LINE",
"435 83 OFFCURVE",
"431 85 OFFCURVE",
"427 85 CURVE SMOOTH",
"424 85 OFFCURVE",
"418 83 OFFCURVE",
"411 77 CURVE SMOOTH",
"404 71 OFFCURVE",
"394 65 OFFCURVE",
"381 58 CURVE SMOOTH",
"369 51 OFFCURVE",
"353 46 OFFCURVE",
"335 40 CURVE SMOOTH",
"317 34 OFFCURVE",
"295 31 OFFCURVE",
"270 31 CURVE SMOOTH",
"242 31 OFFCURVE",
"217 36 OFFCURVE",
"194 46 CURVE SMOOTH",
"171 56 OFFCURVE",
"152 70 OFFCURVE",
"136 89 CURVE SMOOTH",
"120 108 OFFCURVE",
"108 132 OFFCURVE",
"99 160 CURVE SMOOTH",
"90 188 OFFCURVE",
"86 222 OFFCURVE",
"86 259 CURVE SMOOTH",
"86 268 LINE",
"445 268 LINE SMOOTH",
"450 268 OFFCURVE",
"453 269 OFFCURVE",
"455 272 CURVE SMOOTH",
"457 275 OFFCURVE",
"459 280 OFFCURVE",
"459 287 CURVE SMOOTH",
"459 322 OFFCURVE",
"454 353 OFFCURVE",
"444 380 CURVE SMOOTH",
"434 407 OFFCURVE",
"421 431 OFFCURVE",
"403 449 CURVE SMOOTH",
"386 467 OFFCURVE",
"365 481 OFFCURVE",
"341 491 CURVE SMOOTH",
"317 501 OFFCURVE",
"291 506 OFFCURVE",
"263 506 CURVE SMOOTH"
);
},
{
closed = 1;
nodes = (
"287 470 OFFCURVE",
"307 466 OFFCURVE",
"326 458 CURVE SMOOTH",
"345 450 OFFCURVE",
"361 439 OFFCURVE",
"374 424 CURVE SMOOTH",
"387 409 OFFCURVE",
"398 392 OFFCURVE",
"405 371 CURVE SMOOTH",
"412 350 OFFCURVE",
"416 326 OFFCURVE",
"416 299 CURVE",
"88 299 LINE",
"91 325 OFFCURVE",
"97 349 OFFCURVE",
"106 370 CURVE SMOOTH",
"115 391 OFFCURVE",
"127 409 OFFCURVE",
"142 424 CURVE SMOOTH",
"157 439 OFFCURVE",
"175 450 OFFCURVE",
"195 458 CURVE SMOOTH",
"215 466 OFFCURVE",
"238 470 OFFCURVE",
"264 470 CURVE SMOOTH"
);
}
);
width = 497;
}
);
note = e;
unicode = 0065;
},
{
glyphname = f;
layers = (
{
layerId = "3F211455-7DB7-4737-9D97-BF0B219628E9";
name = Light;
paths = (
{
closed = 1;
nodes = (
"190 624 OFFCURVE",
"197 637 OFFCURVE",
"207 648 CURVE SMOOTH",
"217 659 OFFCURVE",
"229 667 OFFCURVE",
"243 672 CURVE SMOOTH",
"257 677 OFFCURVE",
"272 679 OFFCURVE",
"288 679 CURVE SMOOTH",
"298 679 OFFCURVE",
"307 678 OFFCURVE",
"314 677 CURVE SMOOTH",
"321 676 OFFCURVE",
"326 676 OFFCURVE",
"330 676 CURVE SMOOTH",
"336 676 OFFCURVE",
"340 678 OFFCURVE",
"340 683 CURVE",
"341 706 LINE",
"333 709 OFFCURVE",
"323 712 OFFCURVE",
"313 714 CURVE SMOOTH",
"302 716 OFFCURVE",
"292 716 OFFCURVE",
"282 716 CURVE SMOOTH",
"259 716 OFFCURVE",
"239 713 OFFCURVE",
"220 706 CURVE SMOOTH",
"201 699 OFFCURVE",
"185 687 OFFCURVE",
"172 673 CURVE SMOOTH",
"159 659 OFFCURVE",
"148 641 OFFCURVE",
"141 620 CURVE SMOOTH",
"134 599 OFFCURVE",
"130 573 OFFCURVE",
"130 545 CURVE SMOOTH",
"130 482 LINE",
"45 482 LINE",
"45 462 LINE SMOOTH",
"45 454 OFFCURVE",
"49 451 OFFCURVE",
"59 450 CURVE SMOOTH",
"130 445 LINE",
"130 40 LINE",
"118 40 OFFCURVE",
"108 39 OFFCURVE",
"98 39 CURVE SMOOTH",
"88 39 OFFCURVE",
"81 38 OFFCURVE",
"76 38 CURVE SMOOTH",
"67 38 LINE",
"54 37 OFFCURVE",
"47 31 OFFCURVE",
"47 20 CURVE SMOOTH",
"47 0 LINE",
"131 0 LINE",
"177 0 LINE",
"261 0 LINE",
"261 20 LINE SMOOTH",
"261 31 OFFCURVE",
"254 37 OFFCURVE",
"241 38 CURVE",
"232 38 LINE SMOOTH",
"227 38 OFFCURVE",
"220 39 OFFCURVE",
"210 39 CURVE SMOOTH",
"200 39 OFFCURVE",
"189 40 OFFCURVE",
"177 40 CURVE",
"177 446 LINE",
"337 446 LINE",
"337 482 LINE",
"176 482 LINE",
"176 543 LINE SMOOTH",
"176 568 OFFCURVE",
"178 590 OFFCURVE",
"184 607 CURVE SMOOTH"
);
}
);
width = 383;
}
);
note = f;
unicode = 0066;
},
{
glyphname = g;
layers = (
{
layerId = "3F211455-7DB7-4737-9D97-BF0B219628E9";
name = Light;
paths = (
{
closed = 1;
nodes = (
"211 506 OFFCURVE",
"187 502 OFFCURVE",
"165 494 CURVE SMOOTH",
"143 486 OFFCURVE",
"125 476 OFFCURVE",
"109 462 CURVE SMOOTH",
"93 448 OFFCURVE",
"81 432 OFFCURVE",
"73 412 CURVE SMOOTH",
"65 392 OFFCURVE",
"60 370 OFFCURVE",
"60 346 CURVE SMOOTH",
"60 316 OFFCURVE",
"67 290 OFFCURVE",
"80 267 CURVE SMOOTH",
"93 244 OFFCURVE",
"111 226 OFFCURVE",
"135 212 CURVE",
"125 207 OFFCURVE",
"117 201 OFFCURVE",
"109 194 CURVE SMOOTH",
"101 187 OFFCURVE",
"95 181 OFFCURVE",
"90 173 CURVE SMOOTH",
"85 165 OFFCURVE",
"81 158 OFFCURVE",
"78 150 CURVE SMOOTH",
"75 142 OFFCURVE",
"74 135 OFFCURVE",
"74 128 CURVE SMOOTH",
"74 109 OFFCURVE",
"78 95 OFFCURVE",
"88 84 CURVE SMOOTH",
"98 73 OFFCURVE",
"111 66 OFFCURVE",
"128 60 CURVE",
"98 50 OFFCURVE",
"73 35 OFFCURVE",
"56 16 CURVE SMOOTH",
"39 -3 OFFCURVE",
"30 -26 OFFCURVE",
"30 -52 CURVE SMOOTH",
"30 -70 OFFCURVE",
"35 -88 OFFCURVE",
"44 -104 CURVE SMOOTH",
"53 -120 OFFCURVE",
"66 -134 OFFCURVE",
"84 -146 CURVE SMOOTH",
"102 -158 OFFCURVE",
"124 -168 OFFCURVE",
"150 -175 CURVE SMOOTH",
"176 -182 OFFCURVE",
"207 -186 OFFCURVE",
"242 -186 CURVE SMOOTH",
"276 -186 OFFCURVE",
"308 -181 OFFCURVE",
"336 -172 CURVE SMOOTH",
"364 -163 OFFCURVE",
"386 -152 OFFCURVE",
"406 -137 CURVE SMOOTH",
"426 -122 OFFCURVE",
"441 -105 OFFCURVE",
"451 -86 CURVE SMOOTH",
"461 -67 OFFCURVE",
"466 -48 OFFCURVE",
"466 -27 CURVE SMOOTH",
"466 -5 OFFCURVE",
"462 13 OFFCURVE",
"452 27 CURVE SMOOTH",
"442 41 OFFCURVE",
"428 50 OFFCURVE",
"412 58 CURVE SMOOTH",
"396 66 OFFCURVE",
"376 71 OFFCURVE",
"355 74 CURVE SMOOTH",
"334 77 OFFCURVE",
"313 79 OFFCURVE",
"291 80 CURVE SMOOTH",
"269 81 OFFCURVE",
"247 83 OFFCURVE",
"226 84 CURVE SMOOTH",
"205 85 OFFCURVE",
"186 86 OFFCURVE",
"170 90 CURVE SMOOTH",
"154 94 OFFCURVE",
"140 99 OFFCURVE",
"130 107 CURVE SMOOTH",
"120 115 OFFCURVE",
"115 126 OFFCURVE",
"115 140 CURVE SMOOTH",
"115 150 OFFCURVE",
"119 161 OFFCURVE",
"127 172 CURVE SMOOTH",
"135 183 OFFCURVE",
"146 192 OFFCURVE",
"160 200 CURVE",
"183 191 OFFCURVE",
"209 188 OFFCURVE",
"238 188 CURVE SMOOTH",
"264 188 OFFCURVE",
"288 191 OFFCURVE",
"310 199 CURVE SMOOTH",
"332 207 OFFCURVE",
"350 217 OFFCURVE",
"366 231 CURVE SMOOTH",
"382 245 OFFCURVE",
"393 261 OFFCURVE",
"402 281 CURVE SMOOTH",
"411 301 OFFCURVE",
"415 322 OFFCURVE",
"415 346 CURVE SMOOTH",
"415 364 OFFCURVE",
"413 381 OFFCURVE",
"408 397 CURVE SMOOTH",
"403 413 OFFCURVE",
"395 427 OFFCURVE",
"386 440 CURVE",
"462 446 LINE SMOOTH",
"471 447 OFFCURVE",
"476 451 OFFCURVE",
"476 459 CURVE SMOOTH",
"476 476 LINE",
"348 476 LINE",
"333 486 OFFCURVE",
"316 493 OFFCURVE",
"298 498 CURVE SMOOTH",
"280 503 OFFCURVE",
"260 506 OFFCURVE",
"238 506 CURVE SMOOTH"
);
},
{
closed = 1;
nodes = (
"423 -51 OFFCURVE",
"418 -66 OFFCURVE",
"409 -80 CURVE SMOOTH",
"400 -94 OFFCURVE",
"387 -108 OFFCURVE",
"371 -118 CURVE SMOOTH",
"355 -128 OFFCURVE",
"336 -136 OFFCURVE",
"314 -142 CURVE SMOOTH",
"292 -148 OFFCURVE",
"268 -150 OFFCURVE",
"243 -150 CURVE SMOOTH",
"216 -150 OFFCURVE",
"192 -147 OFFCURVE",
"171 -142 CURVE SMOOTH",
"150 -137 OFFCURVE",
"131 -129 OFFCURVE",
"117 -120 CURVE SMOOTH",
"103 -111 OFFCURVE",
"92 -100 OFFCURVE",
"84 -88 CURVE SMOOTH",
"76 -76 OFFCURVE",
"73 -62 OFFCURVE",
"73 -47 CURVE SMOOTH",
"73 -35 OFFCURVE",
"76 -25 OFFCURVE",
"80 -15 CURVE SMOOTH",
"84 -5 OFFCURVE",
"90 4 OFFCURVE",
"98 12 CURVE SMOOTH",
"106 20 OFFCURVE",
"114 28 OFFCURVE",
"125 34 CURVE SMOOTH",
"136 40 OFFCURVE",
"148 46 OFFCURVE",
"161 51 CURVE",
"178 48 OFFCURVE",
"196 46 OFFCURVE",
"216 45 CURVE SMOOTH",
"236 44 OFFCURVE",
"254 43 OFFCURVE",
"274 42 CURVE SMOOTH",
"294 41 OFFCURVE",
"312 40 OFFCURVE",
"330 38 CURVE SMOOTH",
"348 36 OFFCURVE",
"364 31 OFFCURVE",
"378 26 CURVE SMOOTH",
"392 21 OFFCURVE",
"402 14 OFFCURVE",
"410 4 CURVE SMOOTH",
"418 -6 OFFCURVE",
"423 -18 OFFCURVE",
"423 -34 CURVE SMOOTH"
);
},
{
closed = 1;
nodes = (
"217 220 OFFCURVE",
"199 223 OFFCURVE",
"182 229 CURVE SMOOTH",
"165 235 OFFCURVE",
"151 244 OFFCURVE",
"139 255 CURVE SMOOTH",
"127 266 OFFCURVE",
"119 279 OFFCURVE",
"113 294 CURVE SMOOTH",
"107 309 OFFCURVE",
"104 326 OFFCURVE",
"104 345 CURVE SMOOTH",
"104 364 OFFCURVE",
"107 381 OFFCURVE",
"113 397 CURVE SMOOTH",
"119 413 OFFCURVE",
"127 425 OFFCURVE",
"139 436 CURVE SMOOTH",
"151 447 OFFCURVE",
"165 456 OFFCURVE",
"182 462 CURVE SMOOTH",
"199 468 OFFCURVE",
"217 471 OFFCURVE",
"238 471 CURVE SMOOTH",
"259 471 OFFCURVE",
"278 468 OFFCURVE",
"294 462 CURVE SMOOTH",
"310 456 OFFCURVE",
"324 447 OFFCURVE",
"336 436 CURVE SMOOTH",
"348 425 OFFCURVE",
"357 413 OFFCURVE",
"363 397 CURVE SMOOTH",
"369 381 OFFCURVE",
"372 365 OFFCURVE",
"372 346 CURVE SMOOTH",
"372 327 OFFCURVE",
"369 309 OFFCURVE",
"363 294 CURVE SMOOTH",
"357 279 OFFCURVE",
"348 266 OFFCURVE",
"337 255 CURVE SMOOTH",
"326 244 OFFCURVE",
"312 235 OFFCURVE",
"295 229 CURVE SMOOTH",
"278 223 OFFCURVE",
"259 220 OFFCURVE",
"238 220 CURVE SMOOTH"
);
}
);
width = 516;
}
);
note = g;
unicode = 0067;
},
{
glyphname = h;
layers = (
{
layerId = "3F211455-7DB7-4737-9D97-BF0B219628E9";
name = Light;
paths = (
{
closed = 1;
nodes = (
"559 38 LINE",
"552 38 LINE SMOOTH",
"549 38 OFFCURVE",
"544 39 OFFCURVE",
"537 39 CURVE SMOOTH",
"530 39 OFFCURVE",
"521 40 OFFCURVE",
"512 40 CURVE",
"512 318 LINE SMOOTH",
"512 347 OFFCURVE",
"509 373 OFFCURVE",
"502 396 CURVE SMOOTH",
"495 419 OFFCURVE",
"485 439 OFFCURVE",
"471 455 CURVE SMOOTH",
"457 471 OFFCURVE",
"440 483 OFFCURVE",
"419 492 CURVE SMOOTH",
"398 501 OFFCURVE",
"374 505 OFFCURVE",
"347 505 CURVE SMOOTH",
"310 505 OFFCURVE",
"277 497 OFFCURVE",
"247 480 CURVE SMOOTH",
"218 463 OFFCURVE",
"192 440 OFFCURVE",
"169 412 CURVE",
"169 727 LINE",
"121 727 LINE",
"49 727 LINE",
"49 708 LINE SMOOTH",
"49 697 OFFCURVE",
"56 691 OFFCURVE",
"69 690 CURVE",
"74 690 LINE SMOOTH",
"76 690 OFFCURVE",
"79 689 OFFCURVE",
"82 689 CURVE SMOOTH",
"97 689 LINE SMOOTH",
"104 689 OFFCURVE",
"112 688 OFFCURVE",
"121 688 CURVE",
"121 40 LINE",
"110 40 OFFCURVE",
"100 38 OFFCURVE",
"92 38 CURVE SMOOTH",
"75 38 LINE",
"69 38 LINE",
"56 37 OFFCURVE",
"49 31 OFFCURVE",
"49 20 CURVE SMOOTH",
"49 0 LINE",
"121 0 LINE",
"169 0 LINE",
"241 0 LINE",
"241 20 LINE SMOOTH",
"241 31 OFFCURVE",
"234 37 OFFCURVE",
"221 38 CURVE",
"216 38 LINE",
"208 38 LINE SMOOTH",
"205 38 OFFCURVE",
"200 39 OFFCURVE",
"193 39 CURVE SMOOTH",
"186 39 OFFCURVE",
"178 40 OFFCURVE",
"169 40 CURVE",
"169 373 LINE",
"191 402 OFFCURVE",
"216 425 OFFCURVE",
"244 442 CURVE SMOOTH",
"272 459 OFFCURVE",
"302 467 OFFCURVE",
"335 467 CURVE SMOOTH",
"379 467 OFFCURVE",
"412 454 OFFCURVE",
"433 428 CURVE SMOOTH",
"454 401 OFFCURVE",
"465 365 OFFCURVE",
"465 318 CURVE SMOOTH",
"465 0 LINE",
"512 0 LINE",
"584 0 LINE",
"584 20 LINE SMOOTH",
"584 31 OFFCURVE",
"578 37 OFFCURVE",
"565 38 CURVE"
);
}
);
width = 624;
}
);
note = h;
unicode = 0068;
},
{
glyphname = i;
layers = (
{
layerId = "3F211455-7DB7-4737-9D97-BF0B219628E9";
name = Light;
paths = (
{
closed = 1;
nodes = (
"119 634 OFFCURVE",
"124 631 OFFCURVE",
"129 629 CURVE SMOOTH",
"134 627 OFFCURVE",
"140 625 OFFCURVE",
"146 625 CURVE SMOOTH",
"152 625 OFFCURVE",
"158 627 OFFCURVE",
"163 629 CURVE SMOOTH",
"168 631 OFFCURVE",
"173 634 OFFCURVE",
"177 638 CURVE SMOOTH",
"181 642 OFFCURVE",
"185 647 OFFCURVE",
"187 652 CURVE SMOOTH",
"189 657 OFFCURVE",
"191 663 OFFCURVE",
"191 669 CURVE SMOOTH",
"191 675 OFFCURVE",
"189 680 OFFCURVE",
"187 686 CURVE",
"185 691 OFFCURVE",
"181 696 OFFCURVE",
"177 700 CURVE SMOOTH",
"173 704 OFFCURVE",
"168 708 OFFCURVE",
"163 710 CURVE SMOOTH",
"158 712 OFFCURVE",
"152 713 OFFCURVE",
"146 713 CURVE SMOOTH",
"140 713 OFFCURVE",
"134 712 OFFCURVE",
"129 710 CURVE SMOOTH",
"124 708 OFFCURVE",
"119 704 OFFCURVE",
"115 700 CURVE SMOOTH",
"111 696 OFFCURVE",
"108 691 OFFCURVE",
"106 686 CURVE SMOOTH",
"104 681 OFFCURVE",
"102 675 OFFCURVE",
"102 669 CURVE SMOOTH",
"102 663 OFFCURVE",
"104 657 OFFCURVE",
"106 652 CURVE SMOOTH",
"108 647 OFFCURVE",
"111 642 OFFCURVE",
"115 638 CURVE SMOOTH"
);
},
{
closed = 1;
nodes = (
"217 38 LINE",
"209 38 LINE SMOOTH",
"206 38 OFFCURVE",
"201 39 OFFCURVE",
"194 39 CURVE SMOOTH",
"187 39 OFFCURVE",
"179 40 OFFCURVE",
"170 40 CURVE",
"170 498 LINE",
"122 498 LINE",
"50 498 LINE",
"50 478 LINE SMOOTH",
"50 467 OFFCURVE",
"57 461 OFFCURVE",
"70 460 CURVE",
"75 460 LINE SMOOTH",
"77 460 OFFCURVE",
"80 459 OFFCURVE",
"83 459 CURVE SMOOTH",
"98 459 LINE SMOOTH",
"105 459 OFFCURVE",
"113 458 OFFCURVE",
"122 458 CURVE",
"122 40 LINE",
"111 40 OFFCURVE",
"101 38 OFFCURVE",
"93 38 CURVE SMOOTH",
"76 38 LINE",
"70 38 LINE",
"57 37 OFFCURVE",
"50 31 OFFCURVE",
"50 20 CURVE SMOOTH",
"50 0 LINE",
"122 0 LINE",
"170 0 LINE",
"242 0 LINE",
"242 20 LINE SMOOTH",
"242 31 OFFCURVE",
"235 37 OFFCURVE",
"222 38 CURVE"
);
}
);
width = 282;
}
);
note = i;
unicode = 0069;
},
{
glyphname = j;
layers = (
{
layerId = "3F211455-7DB7-4737-9D97-BF0B219628E9";
name = Light;
paths = (
{
closed = 1;
nodes = (
"186 691 OFFCURVE",
"182 696 OFFCURVE",
"178 700 CURVE SMOOTH",
"174 704 OFFCURVE",
"169 708 OFFCURVE",
"164 710 CURVE SMOOTH",
"159 712 OFFCURVE",
"153 713 OFFCURVE",
"147 713 CURVE SMOOTH",
"141 713 OFFCURVE",
"135 712 OFFCURVE",
"130 710 CURVE SMOOTH",
"125 708 OFFCURVE",
"121 704 OFFCURVE",
"117 700 CURVE SMOOTH",
"113 696 OFFCURVE",
"109 691 OFFCURVE",
"107 686 CURVE SMOOTH",
"105 681 OFFCURVE",
"104 675 OFFCURVE",
"104 669 CURVE SMOOTH",
"104 663 OFFCURVE",
"105 657 OFFCURVE",
"107 652 CURVE SMOOTH",
"109 647 OFFCURVE",
"113 642 OFFCURVE",
"117 638 CURVE SMOOTH",
"121 634 OFFCURVE",
"125 631 OFFCURVE",
"130 629 CURVE SMOOTH",
"135 627 OFFCURVE",
"141 625 OFFCURVE",
"147 625 CURVE SMOOTH",
"153 625 OFFCURVE",
"159 627 OFFCURVE",
"164 629 CURVE SMOOTH",
"169 631 OFFCURVE",
"174 634 OFFCURVE",
"178 638 CURVE SMOOTH",
"182 642 OFFCURVE",
"186 647 OFFCURVE",
"188 652 CURVE SMOOTH",
"190 657 OFFCURVE",
"192 663 OFFCURVE",
"192 669 CURVE SMOOTH",
"192 675 OFFCURVE",
"191 680 OFFCURVE",
"188 686 CURVE"
);
},
{
closed = 1;
nodes = (
"123 497 LINE",
"51 497 LINE",
"51 478 LINE SMOOTH",
"51 467 OFFCURVE",
"58 461 OFFCURVE",
"71 460 CURVE",
"77 460 LINE SMOOTH",
"79 460 OFFCURVE",
"81 459 OFFCURVE",
"84 459 CURVE SMOOTH",
"99 459 LINE SMOOTH",
"106 459 OFFCURVE",
"114 458 OFFCURVE",
"123 458 CURVE",
"123 -63 LINE SMOOTH",
"123 -90 OFFCURVE",
"117 -111 OFFCURVE",
"104 -126 CURVE SMOOTH",
"91 -141 OFFCURVE",
"71 -148 OFFCURVE",
"44 -148 CURVE SMOOTH",
"36 -148 OFFCURVE",
"29 -147 OFFCURVE",
"24 -146 CURVE SMOOTH",
"19 -145 OFFCURVE",
"16 -144 OFFCURVE",
"13 -144 CURVE SMOOTH",
"9 -144 OFFCURVE",
"6 -146 OFFCURVE",
"6 -150 CURVE",
"4 -174 LINE",
"11 -178 OFFCURVE",
"18 -180 OFFCURVE",
"26 -182 CURVE SMOOTH",
"34 -184 OFFCURVE",
"42 -184 OFFCURVE",
"52 -184 CURVE SMOOTH",
"72 -184 OFFCURVE",
"89 -181 OFFCURVE",
"104 -175 CURVE SMOOTH",
"119 -169 OFFCURVE",
"131 -161 OFFCURVE",
"141 -150 CURVE SMOOTH",
"151 -139 OFFCURVE",
"158 -126 OFFCURVE",
"163 -111 CURVE SMOOTH",
"168 -96 OFFCURVE",
"171 -80 OFFCURVE",
"171 -63 CURVE SMOOTH",
"171 497 LINE"
);
}
);
width = 252;
}
);
note = j;
unicode = 006A;
},
{
glyphname = k;
layers = (
{
layerId = "3F211455-7DB7-4737-9D97-BF0B219628E9";
name = Light;
paths = (
{
closed = 1;
nodes = (
"500 38 LINE",
"495 38 LINE",
"484 38 LINE SMOOTH",
"479 38 OFFCURVE",
"473 39 OFFCURVE",
"467 39 CURVE",
"272 251 LINE",
"268 255 OFFCURVE",
"265 259 OFFCURVE",
"261 263 CURVE SMOOTH",
"257 267 OFFCURVE",
"252 269 OFFCURVE",
"247 272 CURVE",
"251 274 OFFCURVE",
"254 277 OFFCURVE",
"257 280 CURVE SMOOTH",
"260 283 OFFCURVE",
"264 286 OFFCURVE",
"267 289 CURVE SMOOTH",
"445 458 LINE",
"451 458 OFFCURVE",
"456 459 OFFCURVE",
"461 459 CURVE SMOOTH",
"466 459 OFFCURVE",
"470 460 OFFCURVE",
"474 460 CURVE SMOOTH",
"481 460 LINE",
"494 461 OFFCURVE",
"500 467 OFFCURVE",
"500 478 CURVE SMOOTH",
"500 498 LINE",
"448 498 LINE",
"428 498 LINE",
"346 498 LINE",
"346 478 LINE SMOOTH",
"346 467 OFFCURVE",
"353 461 OFFCURVE",
"366 460 CURVE",
"367 460 OFFCURVE",
"375 460 OFFCURVE",
"391 459 CURVE",
"219 295 LINE SMOOTH",
"214 290 OFFCURVE",
"209 287 OFFCURVE",
"205 286 CURVE SMOOTH",
"201 285 OFFCURVE",
"197 284 OFFCURVE",
"192 284 CURVE SMOOTH",
"169 284 LINE",
"169 727 LINE",
"121 727 LINE",
"49 727 LINE",
"49 708 LINE SMOOTH",
"49 697 OFFCURVE",
"56 691 OFFCURVE",
"69 690 CURVE",
"74 690 LINE SMOOTH",
"76 690 OFFCURVE",
"79 689 OFFCURVE",
"82 689 CURVE SMOOTH",
"97 689 LINE SMOOTH",
"104 689 OFFCURVE",
"112 688 OFFCURVE",
"121 688 CURVE",
"121 40 LINE",
"110 40 OFFCURVE",
"100 38 OFFCURVE",
"92 38 CURVE SMOOTH",
"75 38 LINE",
"69 38 LINE",
"56 37 OFFCURVE",
"49 31 OFFCURVE",
"49 20 CURVE SMOOTH",
"49 0 LINE",
"121 0 LINE",
"169 0 LINE",
"241 0 LINE",
"241 20 LINE SMOOTH",
"241 31 OFFCURVE",
"234 37 OFFCURVE",
"221 38 CURVE",
"216 38 LINE",
"208 38 LINE SMOOTH",
"205 38 OFFCURVE",
"200 39 OFFCURVE",
"193 39 CURVE SMOOTH",
"186 39 OFFCURVE",
"178 40 OFFCURVE",
"169 40 CURVE",
"169 251 LINE",
"191 251 LINE SMOOTH",
"201 251 OFFCURVE",
"208 250 OFFCURVE",
"213 248 CURVE SMOOTH",
"218 246 OFFCURVE",
"223 241 OFFCURVE",
"229 235 CURVE SMOOTH",
"438 12 LINE SMOOTH",
"442 8 OFFCURVE",
"445 5 OFFCURVE",
"449 3 CURVE SMOOTH",
"453 1 OFFCURVE",
"456 0 OFFCURVE",
"461 0 CURVE SMOOTH",
"464 0 LINE",
"503 0 LINE",
"525 0 LINE",
"525 20 LINE SMOOTH",
"525 31 OFFCURVE",
"518 37 OFFCURVE",
"505 38 CURVE"
);
}
);
width = 564;
}
);
note = k;
unicode = 006B;
},
{
glyphname = l;
layers = (
{
layerId = "3F211455-7DB7-4737-9D97-BF0B219628E9";
name = Light;
paths = (
{
closed = 1;
nodes = (
"216 38 LINE",
"208 38 LINE SMOOTH",
"205 38 OFFCURVE",
"200 39 OFFCURVE",
"193 39 CURVE SMOOTH",
"186 39 OFFCURVE",
"178 40 OFFCURVE",
"169 40 CURVE",
"169 728 LINE",
"121 728 LINE",
"49 728 LINE",
"49 708 LINE SMOOTH",
"49 697 OFFCURVE",
"56 691 OFFCURVE",
"69 690 CURVE",
"74 690 LINE SMOOTH",
"76 690 OFFCURVE",
"79 689 OFFCURVE",
"82 689 CURVE SMOOTH",
"97 689 LINE SMOOTH",
"104 689 OFFCURVE",
"112 688 OFFCURVE",
"121 688 CURVE",
"121 40 LINE",
"110 40 OFFCURVE",
"100 38 OFFCURVE",
"92 38 CURVE SMOOTH",
"75 38 LINE",
"69 38 LINE",
"56 37 OFFCURVE",
"49 31 OFFCURVE",
"49 20 CURVE SMOOTH",
"49 0 LINE",
"121 0 LINE",
"169 0 LINE",
"241 0 LINE",
"241 20 LINE SMOOTH",
"241 31 OFFCURVE",
"234 37 OFFCURVE",
"221 38 CURVE"
);
}
);
width = 279;
}
);
note = l;
unicode = 006C;
},
{
glyphname = m;
layers = (
{
layerId = "3F211455-7DB7-4737-9D97-BF0B219628E9";
name = Light;
paths = (
{
closed = 1;
nodes = (
"816 38 LINE",
"809 38 LINE SMOOTH",
"806 38 OFFCURVE",
"801 39 OFFCURVE",
"794 39 CURVE SMOOTH",
"787 39 OFFCURVE",
"778 40 OFFCURVE",
"769 40 CURVE",
"769 318 LINE SMOOTH",
"769 348 OFFCURVE",
"765 375 OFFCURVE",
"758 398 CURVE SMOOTH",
"751 421 OFFCURVE",
"741 441 OFFCURVE",
"727 457 CURVE SMOOTH",
"713 473 OFFCURVE",
"696 485 OFFCURVE",
"676 493 CURVE SMOOTH",
"656 501 OFFCURVE",
"635 505 OFFCURVE",
"610 505 CURVE SMOOTH",
"593 505 OFFCURVE",
"575 503 OFFCURVE",
"559 498 CURVE SMOOTH",
"543 493 OFFCURVE",
"528 486 OFFCURVE",
"514 476 CURVE SMOOTH",
"500 466 OFFCURVE",
"487 454 OFFCURVE",
"476 439 CURVE SMOOTH",
"465 424 OFFCURVE",
"457 406 OFFCURVE",
"451 385 CURVE",
"443 423 OFFCURVE",
"429 453 OFFCURVE",
"407 474 CURVE SMOOTH",
"385 495 OFFCURVE",
"356 505 OFFCURVE",
"320 505 CURVE SMOOTH",
"304 505 OFFCURVE",
"289 504 OFFCURVE",
"275 499 CURVE",
"261 495 OFFCURVE",
"248 488 OFFCURVE",
"235 480 CURVE",
"223 472 OFFCURVE",
"211 461 OFFCURVE",
"200 450 CURVE SMOOTH",
"189 439 OFFCURVE",
"179 427 OFFCURVE",
"169 413 CURVE",
"165 485 LINE",
"164 493 OFFCURVE",
"159 497 OFFCURVE",
"150 497 CURVE SMOOTH",
"124 497 LINE",
"52 497 LINE",
"52 478 LINE SMOOTH",
"52 467 OFFCURVE",
"58 461 OFFCURVE",
"71 460 CURVE",
"77 460 LINE SMOOTH",
"79 460 OFFCURVE",
"81 459 OFFCURVE",
"84 459 CURVE SMOOTH",
"99 459 LINE SMOOTH",
"106 459 OFFCURVE",
"115 458 OFFCURVE",
"124 458 CURVE",
"124 40 LINE",
"112 40 OFFCURVE",
"102 38 OFFCURVE",
"94 38 CURVE SMOOTH",
"78 38 LINE",
"71 38 LINE",
"58 37 OFFCURVE",
"52 31 OFFCURVE",
"52 20 CURVE SMOOTH",
"52 0 LINE",
"124 0 LINE",
"171 0 LINE",
"243 0 LINE",
"243 20 LINE SMOOTH",
"243 31 OFFCURVE",
"237 37 OFFCURVE",
"224 38 CURVE",
"218 38 LINE",
"211 38 LINE SMOOTH",
"208 38 OFFCURVE",
"203 39 OFFCURVE",
"196 39 CURVE SMOOTH",
"189 39 OFFCURVE",
"180 40 OFFCURVE",
"171 40 CURVE",
"171 376 LINE",
"189 405 OFFCURVE",
"210 427 OFFCURVE",
"233 443 CURVE SMOOTH",
"256 459 OFFCURVE",
"281 467 OFFCURVE",
"308 467 CURVE SMOOTH",
"345 467 OFFCURVE",
"373 455 OFFCURVE",
"392 429 CURVE SMOOTH",
"411 403 OFFCURVE",
"421 366 OFFCURVE",
"421 318 CURVE SMOOTH",
"421 0 LINE",
"469 0 LINE",
"469 0 LINE",
"541 0 LINE",
"541 20 LINE SMOOTH",
"541 31 OFFCURVE",
"534 37 OFFCURVE",
"521 38 CURVE",
"516 38 LINE",
"508 38 LINE SMOOTH",
"505 38 OFFCURVE",
"500 39 OFFCURVE",
"493 39 CURVE SMOOTH",
"486 39 OFFCURVE",
"478 40 OFFCURVE",
"469 40 CURVE",
"469 318 LINE SMOOTH",
"469 343 OFFCURVE",
"472 364 OFFCURVE",
"479 383 CURVE SMOOTH",
"486 402 OFFCURVE",
"496 418 OFFCURVE",
"508 430 CURVE SMOOTH",
"520 442 OFFCURVE",
"534 452 OFFCURVE",
"550 458 CURVE SMOOTH",
"566 464 OFFCURVE",
"583 467 OFFCURVE",
"600 467 CURVE SMOOTH",
"639 467 OFFCURVE",
"669 454 OFFCURVE",
"690 429 CURVE SMOOTH",
"711 403 OFFCURVE",
"722 367 OFFCURVE",
"722 318 CURVE SMOOTH",
"722 0 LINE",
"769 0 LINE",
"841 0 LINE",
"841 20 LINE SMOOTH",
"841 31 OFFCURVE",
"835 37 OFFCURVE",
"822 38 CURVE"
);
}
);
width = 883;
}
);
note = m;
unicode = 006D;
},
{
glyphname = n;
layers = (
{
layerId = "3F211455-7DB7-4737-9D97-BF0B219628E9";
name = Light;
paths = (
{
closed = 1;
nodes = (
"562 38 LINE",
"554 38 LINE SMOOTH",
"551 38 OFFCURVE",
"546 39 OFFCURVE",
"539 39 CURVE SMOOTH",
"532 39 OFFCURVE",
"524 40 OFFCURVE",
"515 40 CURVE",
"515 318 LINE SMOOTH",
"515 347 OFFCURVE",
"511 373 OFFCURVE",
"504 396 CURVE SMOOTH",
"497 419 OFFCURVE",
"487 439 OFFCURVE",
"473 455 CURVE SMOOTH",
"459 471 OFFCURVE",
"442 483 OFFCURVE",
"421 492 CURVE SMOOTH",
"400 501 OFFCURVE",
"376 505 OFFCURVE",
"349 505 CURVE SMOOTH",
"312 505 OFFCURVE",
"278 496 OFFCURVE",
"248 479 CURVE SMOOTH",
"218 461 OFFCURVE",
"192 439 OFFCURVE",
"169 410 CURVE",
"165 485 LINE",
"164 493 OFFCURVE",
"159 497 OFFCURVE",
"150 497 CURVE SMOOTH",
"124 497 LINE",
"52 497 LINE",
"52 478 LINE SMOOTH",
"52 467 OFFCURVE",
"58 461 OFFCURVE",
"71 460 CURVE",
"77 460 LINE SMOOTH",
"79 460 OFFCURVE",
"81 459 OFFCURVE",
"84 459 CURVE SMOOTH",
"99 459 LINE SMOOTH",
"106 459 OFFCURVE",
"115 458 OFFCURVE",
"124 458 CURVE",
"124 40 LINE",
"112 40 OFFCURVE",
"102 38 OFFCURVE",
"94 38 CURVE SMOOTH",
"78 38 LINE",
"71 38 LINE",
"58 37 OFFCURVE",
"52 31 OFFCURVE",
"52 20 CURVE SMOOTH",
"52 0 LINE",
"124 0 LINE",
"171 0 LINE",
"243 0 LINE",
"243 20 LINE SMOOTH",
"243 31 OFFCURVE",
"237 37 OFFCURVE",
"224 38 CURVE",
"218 38 LINE",
"211 38 LINE SMOOTH",
"208 38 OFFCURVE",
"203 39 OFFCURVE",
"196 39 CURVE SMOOTH",
"189 39 OFFCURVE",
"180 40 OFFCURVE",
"171 40 CURVE",
"171 373 LINE",
"193 402 OFFCURVE",
"218 425 OFFCURVE",
"246 442 CURVE SMOOTH",
"274 459 OFFCURVE",
"304 467 OFFCURVE",
"337 467 CURVE SMOOTH",
"381 467 OFFCURVE",
"414 454 OFFCURVE",
"435 428 CURVE SMOOTH",
"456 401 OFFCURVE",
"467 365 OFFCURVE",
"467 318 CURVE SMOOTH",
"467 0 LINE",
"515 0 LINE",
"587 0 LINE",
"587 20 LINE SMOOTH",
"587 31 OFFCURVE",
"580 37 OFFCURVE",
"567 38 CURVE"
);
}
);
width = 629;
}
);
note = n;
unicode = 006E;
},
{
glyphname = o;
layers = (
{
layerId = "3F211455-7DB7-4737-9D97-BF0B219628E9";
name = Light;
paths = (
{
closed = 1;
nodes = (
"230 506 OFFCURVE",
"198 499 OFFCURVE",
"170 487 CURVE SMOOTH",
"142 475 OFFCURVE",
"118 458 OFFCURVE",
"98 436 CURVE SMOOTH",
"78 414 OFFCURVE",
"64 387 OFFCURVE",
"54 355 CURVE SMOOTH",
"44 323 OFFCURVE",
"38 288 OFFCURVE",
"38 249 CURVE SMOOTH",
"38 210 OFFCURVE",
"44 175 OFFCURVE",
"54 144 CURVE SMOOTH",
"64 113 OFFCURVE",
"78 85 OFFCURVE",
"98 63 CURVE SMOOTH",
"118 41 OFFCURVE",
"142 24 OFFCURVE",
"170 12 CURVE SMOOTH",
"198 0 OFFCURVE",
"230 -6 OFFCURVE",
"266 -6 CURVE SMOOTH",
"302 -6 OFFCURVE",
"333 0 OFFCURVE",
"361 12 CURVE SMOOTH",
"389 24 OFFCURVE",
"413 41 OFFCURVE",
"432 63 CURVE SMOOTH",
"451 85 OFFCURVE",
"467 113 OFFCURVE",
"477 144 CURVE SMOOTH",
"487 175 OFFCURVE",
"492 210 OFFCURVE",
"492 249 CURVE SMOOTH",
"492 288 OFFCURVE",
"487 323 OFFCURVE",
"477 355 CURVE SMOOTH",
"467 387 OFFCURVE",
"451 414 OFFCURVE",
"432 436 CURVE SMOOTH",
"413 458 OFFCURVE",
"389 475 OFFCURVE",
"361 487 CURVE SMOOTH",
"333 499 OFFCURVE",
"302 506 OFFCURVE",
"266 506 CURVE SMOOTH"
);
},
{
closed = 1;
nodes = (
"236 31 OFFCURVE",
"210 36 OFFCURVE",
"188 46 CURVE SMOOTH",
"166 56 OFFCURVE",
"147 71 OFFCURVE",
"132 90 CURVE SMOOTH",
"117 109 OFFCURVE",
"107 132 OFFCURVE",
"99 159 CURVE SMOOTH",
"91 186 OFFCURVE",
"88 216 OFFCURVE",
"88 249 CURVE SMOOTH",
"88 282 OFFCURVE",
"91 312 OFFCURVE",
"99 339 CURVE SMOOTH",
"107 366 OFFCURVE",
"117 389 OFFCURVE",
"132 408 CURVE SMOOTH",
"147 427 OFFCURVE",
"166 443 OFFCURVE",
"188 453 CURVE SMOOTH",
"210 463 OFFCURVE",
"236 468 OFFCURVE",
"266 468 CURVE SMOOTH",
"296 468 OFFCURVE",
"321 463 OFFCURVE",
"343 453 CURVE SMOOTH",
"365 443 OFFCURVE",
"384 427 OFFCURVE",
"399 408 CURVE SMOOTH",
"414 389 OFFCURVE",
"425 366 OFFCURVE",
"432 339 CURVE SMOOTH",
"439 312 OFFCURVE",
"443 282 OFFCURVE",
"443 249 CURVE SMOOTH",
"443 216 OFFCURVE",
"439 186 OFFCURVE",
"432 159 CURVE SMOOTH",
"425 132 OFFCURVE",
"414 109 OFFCURVE",
"399 90 CURVE SMOOTH",
"384 71 OFFCURVE",
"365 56 OFFCURVE",
"343 46 CURVE SMOOTH",
"321 36 OFFCURVE",
"296 31 OFFCURVE",
"266 31 CURVE SMOOTH"
);
}
);
width = 530;
}
);
note = o;
unicode = 006F;
},
{
glyphname = p;
layers = (
{
layerId = "3F211455-7DB7-4737-9D97-BF0B219628E9";
name = Light;
paths = (
{
closed = 1;
nodes = (
"424 484 OFFCURVE",
"376 506 OFFCURVE",
"315 506 CURVE SMOOTH",
"278 506 OFFCURVE",
"246 497 OFFCURVE",
"216 479 CURVE SMOOTH",
"187 461 OFFCURVE",
"161 438 OFFCURVE",
"139 408 CURVE",
"134 485 LINE",
"134 490 OFFCURVE",
"133 493 OFFCURVE",
"130 495 CURVE SMOOTH",
"127 497 OFFCURVE",
"123 497 OFFCURVE",
"119 497 CURVE SMOOTH",
"93 497 LINE",
"21 497 LINE",
"21 478 LINE SMOOTH",
"21 467 OFFCURVE",
"28 461 OFFCURVE",
"41 460 CURVE",
"46 460 LINE SMOOTH",
"48 460 OFFCURVE",
"51 459 OFFCURVE",
"54 459 CURVE SMOOTH",
"69 459 LINE SMOOTH",
"76 459 OFFCURVE",
"84 458 OFFCURVE",
"93 458 CURVE",
"93 -136 LINE",
"82 -136 OFFCURVE",
"72 -138 OFFCURVE",
"64 -138 CURVE SMOOTH",
"47 -138 LINE",
"41 -138 LINE",
"28 -139 OFFCURVE",
"21 -145 OFFCURVE",
"21 -156 CURVE SMOOTH",
"21 -176 LINE",
"93 -176 LINE",
"141 -176 LINE",
"213 -176 LINE",
"213 -156 LINE SMOOTH",
"213 -145 OFFCURVE",
"206 -139 OFFCURVE",
"193 -138 CURVE",
"188 -138 LINE",
"180 -138 LINE SMOOTH",
"177 -138 OFFCURVE",
"172 -137 OFFCURVE",
"165 -137 CURVE SMOOTH",
"158 -137 OFFCURVE",
"150 -136 OFFCURVE",
"141 -136 CURVE",
"141 67 LINE",
"159 43 OFFCURVE",
"180 24 OFFCURVE",
"205 12 CURVE SMOOTH",
"230 0 OFFCURVE",
"259 -6 OFFCURVE",
"293 -6 CURVE SMOOTH",
"328 -6 OFFCURVE",
"358 1 OFFCURVE",
"385 14 CURVE SMOOTH",
"412 27 OFFCURVE",
"435 45 OFFCURVE",
"453 68 CURVE SMOOTH",
"471 91 OFFCURVE",
"486 119 OFFCURVE",
"495 150 CURVE SMOOTH",
"505 181 OFFCURVE",
"509 216 OFFCURVE",
"509 252 CURVE SMOOTH",
"509 337 OFFCURVE",
"492 400 OFFCURVE",
"458 442 CURVE SMOOTH"
);
},
{
closed = 1;
nodes = (
"442 135 OFFCURVE",
"430 112 OFFCURVE",
"415 92 CURVE SMOOTH",
"400 72 OFFCURVE",
"382 58 OFFCURVE",
"360 47 CURVE SMOOTH",
"338 36 OFFCURVE",
"312 31 OFFCURVE",
"283 31 CURVE SMOOTH",
"253 31 OFFCURVE",
"227 37 OFFCURVE",
"204 49 CURVE SMOOTH",
"181 61 OFFCURVE",
"160 80 OFFCURVE",
"141 109 CURVE",
"141 370 LINE",
"162 401 OFFCURVE",
"185 425 OFFCURVE",
"212 442 CURVE SMOOTH",
"239 459 OFFCURVE",
"269 467 OFFCURVE",
"302 467 CURVE SMOOTH",
"353 467 OFFCURVE",
"392 450 OFFCURVE",
"419 415 CURVE SMOOTH",
"446 380 OFFCURVE",
"460 326 OFFCURVE",
"460 252 CURVE SMOOTH",
"460 219 OFFCURVE",
"457 189 OFFCURVE",
"449 162 CURVE SMOOTH"
);
}
);
width = 548;
}
);
note = p;
unicode = 0070;
},
{
glyphname = q;
layers = (
{
layerId = "3F211455-7DB7-4737-9D97-BF0B219628E9";
name = Light;
paths = (
{
closed = 1;
nodes = (
"504 -139 LINE SMOOTH",
"502 -139 OFFCURVE",
"500 -138 OFFCURVE",
"497 -138 CURVE SMOOTH",
"481 -138 LINE SMOOTH",
"474 -138 OFFCURVE",
"466 -137 OFFCURVE",
"457 -137 CURVE",
"457 452 LINE",
"457 477 LINE",
"369 496 OFFCURVE",
"303 505 OFFCURVE",
"258 505 CURVE SMOOTH",
"223 505 OFFCURVE",
"192 498 OFFCURVE",
"165 485 CURVE SMOOTH",
"138 472 OFFCURVE",
"116 454 OFFCURVE",
"97 431 CURVE SMOOTH",
"78 408 OFFCURVE",
"65 381 OFFCURVE",
"55 349 CURVE SMOOTH",
"45 318 OFFCURVE",
"40 283 OFFCURVE",
"40 247 CURVE SMOOTH",
"40 162 OFFCURVE",
"58 99 OFFCURVE",
"92 57 CURVE SMOOTH",
"126 15 OFFCURVE",
"173 -6 OFFCURVE",
"234 -6 CURVE SMOOTH",
"270 -6 OFFCURVE",
"303 2 OFFCURVE",
"332 19 CURVE SMOOTH",
"361 36 OFFCURVE",
"387 59 OFFCURVE",
"409 88 CURVE",
"409 -137 LINE",
"398 -137 OFFCURVE",
"388 -138 OFFCURVE",
"380 -138 CURVE SMOOTH",
"372 -138 OFFCURVE",
"366 -139 OFFCURVE",
"363 -139 CURVE SMOOTH",
"357 -139 LINE",
"344 -140 OFFCURVE",
"337 -146 OFFCURVE",
"337 -157 CURVE SMOOTH",
"337 -176 LINE",
"409 -176 LINE",
"409 -163 LINE",
"409 -176 LINE",
"457 -176 LINE",
"529 -176 LINE",
"529 -157 LINE SMOOTH",
"529 -146 OFFCURVE",
"522 -140 OFFCURVE",
"509 -139 CURVE"
);
},
{
closed = 1;
nodes = (
"409 128 LINE",
"388 98 OFFCURVE",
"365 74 OFFCURVE",
"338 57 CURVE SMOOTH",
"311 40 OFFCURVE",
"281 32 OFFCURVE",
"248 32 CURVE SMOOTH",
"197 32 OFFCURVE",
"158 49 OFFCURVE",
"131 84 CURVE SMOOTH",
"104 119 OFFCURVE",
"90 173 OFFCURVE",
"90 247 CURVE SMOOTH",
"90 280 OFFCURVE",
"93 310 OFFCURVE",
"101 337 CURVE SMOOTH",
"109 364 OFFCURVE",
"119 388 OFFCURVE",
"134 407 CURVE SMOOTH",
"149 426 OFFCURVE",
"168 441 OFFCURVE",
"190 452 CURVE SMOOTH",
"212 463 OFFCURVE",
"238 468 OFFCURVE",
"267 468 CURVE SMOOTH",
"293 468 OFFCURVE",
"340 461 OFFCURVE",
"409 447 CURVE"
);
}
);
width = 538;
}
);
note = q;
unicode = 0071;
},
{
glyphname = r;
layers = (
{
layerId = "3F211455-7DB7-4737-9D97-BF0B219628E9";
name = Light;
paths = (
{
closed = 1;
nodes = (
"360 504 OFFCURVE",
"347 506 OFFCURVE",
"332 506 CURVE SMOOTH",
"293 506 OFFCURVE",
"260 495 OFFCURVE",
"233 472 CURVE SMOOTH",
"206 449 OFFCURVE",
"185 417 OFFCURVE",
"169 377 CURVE",
"165 482 LINE",
"165 488 OFFCURVE",
"163 492 OFFCURVE",
"161 494 CURVE SMOOTH",
"159 496 OFFCURVE",
"155 497 OFFCURVE",
"149 497 CURVE SMOOTH",
"124 497 LINE",
"124 497 LINE",
"52 497 LINE",
"52 478 LINE SMOOTH",
"52 465 OFFCURVE",
"59 461 OFFCURVE",
"71 460 CURVE",
"77 460 OFFCURVE",
"83 460 OFFCURVE",
"124 458 CURVE",
"124 40 LINE",
"83 38 OFFCURVE",
"77 38 OFFCURVE",
"71 38 CURVE",
"59 37 OFFCURVE",
"52 33 OFFCURVE",
"52 20 CURVE SMOOTH",
"52 0 LINE",
"124 0 LINE",
"171 0 LINE",
"171 0 LINE",
"243 0 LINE",
"243 20 LINE SMOOTH",
"243 33 OFFCURVE",
"236 37 OFFCURVE",
"224 38 CURVE",
"218 38 OFFCURVE",
"212 38 OFFCURVE",
"171 40 CURVE",
"171 323 LINE",
"186 367 OFFCURVE",
"206 401 OFFCURVE",
"230 424 CURVE SMOOTH",
"254 447 OFFCURVE",
"285 459 OFFCURVE",
"323 459 CURVE SMOOTH",
"333 459 OFFCURVE",
"342 458 OFFCURVE",
"350 457 CURVE SMOOTH",
"358 456 OFFCURVE",
"366 455 OFFCURVE",
"371 453 CURVE",
"377 451 OFFCURVE",
"380 449 OFFCURVE",
"384 448 CURVE SMOOTH",
"388 447 OFFCURVE",
"391 446 OFFCURVE",
"393 446 CURVE SMOOTH",
"399 446 OFFCURVE",
"402 449 OFFCURVE",
"403 454 CURVE SMOOTH",
"409 487 LINE",
"398 493 OFFCURVE",
"386 498 OFFCURVE",
"373 501 CURVE SMOOTH"
);
}
);
width = 436;
}
);
note = r;
unicode = 0072;
},
{
glyphname = s;
layers = (
{
layerId = "3F211455-7DB7-4737-9D97-BF0B219628E9";
name = Light;
paths = (
{
closed = 1;
nodes = (
"367 211 OFFCURVE",
"357 222 OFFCURVE",
"344 232 CURVE SMOOTH",
"331 242 OFFCURVE",
"316 250 OFFCURVE",
"300 256 CURVE SMOOTH",
"284 262 OFFCURVE",
"266 269 OFFCURVE",
"249 274 CURVE SMOOTH",
"232 279 OFFCURVE",
"215 285 OFFCURVE",
"198 290 CURVE SMOOTH",
"182 295 OFFCURVE",
"167 302 OFFCURVE",
"154 309 CURVE SMOOTH",
"141 316 OFFCURVE",
"131 325 OFFCURVE",
"123 335 CURVE SMOOTH",
"115 345 OFFCURVE",
"111 358 OFFCURVE",
"111 374 CURVE SMOOTH",
"111 387 OFFCURVE",
"113 399 OFFCURVE",
"119 410 CURVE SMOOTH",
"125 421 OFFCURVE",
"133 432 OFFCURVE",
"144 441 CURVE",
"154 450 OFFCURVE",
"167 456 OFFCURVE",
"182 461 CURVE SMOOTH",
"197 466 OFFCURVE",
"213 469 OFFCURVE",
"231 469 CURVE SMOOTH",
"257 469 OFFCURVE",
"283 465 OFFCURVE",
"310 456 CURVE",
"311 444 OFFCURVE",
"312 432 OFFCURVE",
"313 421 CURVE SMOOTH",
"314 410 OFFCURVE",
"314 402 OFFCURVE",
"315 396 CURVE SMOOTH",
"316 390 OFFCURVE",
"316 385 OFFCURVE",
"316 384 CURVE",
"317 368 OFFCURVE",
"324 360 OFFCURVE",
"338 360 CURVE SMOOTH",
"362 360 LINE",
"362 479 LINE",
"310 497 OFFCURVE",
"266 505 OFFCURVE",
"230 505 CURVE SMOOTH",
"205 505 OFFCURVE",
"182 501 OFFCURVE",
"162 494 CURVE SMOOTH",
"142 487 OFFCURVE",
"124 477 OFFCURVE",
"110 465 CURVE SMOOTH",
"96 453 OFFCURVE",
"85 438 OFFCURVE",
"77 422 CURVE SMOOTH",
"69 406 OFFCURVE",
"66 389 OFFCURVE",
"66 371 CURVE SMOOTH",
"66 350 OFFCURVE",
"70 333 OFFCURVE",
"78 319 CURVE SMOOTH",
"86 305 OFFCURVE",
"96 294 OFFCURVE",
"109 284 CURVE SMOOTH",
"122 274 OFFCURVE",
"136 266 OFFCURVE",
"153 260 CURVE SMOOTH",
"169 254 OFFCURVE",
"186 248 OFFCURVE",
"204 243 CURVE SMOOTH",
"221 238 OFFCURVE",
"238 232 OFFCURVE",
"255 227 CURVE SMOOTH",
"271 222 OFFCURVE",
"286 215 OFFCURVE",
"299 207 CURVE SMOOTH",
"312 199 OFFCURVE",
"323 190 OFFCURVE",
"331 179 CURVE SMOOTH",
"339 168 OFFCURVE",
"343 155 OFFCURVE",
"343 138 CURVE SMOOTH",
"343 123 OFFCURVE",
"340 109 OFFCURVE",
"335 95 CURVE",
"329 81 OFFCURVE",
"321 70 OFFCURVE",
"310 60 CURVE SMOOTH",
"299 50 OFFCURVE",
"286 42 OFFCURVE",
"270 36 CURVE SMOOTH",
"254 30 OFFCURVE",
"236 27 OFFCURVE",
"215 27 CURVE SMOOTH",
"177 27 OFFCURVE",
"145 32 OFFCURVE",
"118 43 CURVE",
"117 56 OFFCURVE",
"116 68 OFFCURVE",
"115 79 CURVE SMOOTH",
"114 90 OFFCURVE",
"114 99 OFFCURVE",
"113 105 CURVE SMOOTH",
"112 111 OFFCURVE",
"112 116 OFFCURVE",
"112 117 CURVE",
"111 133 OFFCURVE",
"104 141 OFFCURVE",
"90 141 CURVE SMOOTH",
"66 141 LINE",
"66 20 LINE",
"114 2 OFFCURVE",
"163 -8 OFFCURVE",
"213 -8 CURVE SMOOTH",
"241 -8 OFFCURVE",
"265 -4 OFFCURVE",
"287 4 CURVE SMOOTH",
"309 12 OFFCURVE",
"327 23 OFFCURVE",
"342 37 CURVE SMOOTH",
"357 51 OFFCURVE",
"368 66 OFFCURVE",
"376 85 CURVE SMOOTH",
"384 104 OFFCURVE",
"388 124 OFFCURVE",
"388 146 CURVE SMOOTH",
"388 166 OFFCURVE",
"383 183 OFFCURVE",
"375 197 CURVE SMOOTH"
);
}
);
width = 427;
}
);
note = s;
unicode = 0073;
},
{
glyphname = t;
layers = (
{
layerId = "3F211455-7DB7-4737-9D97-BF0B219628E9";
name = Light;
paths = (
{
closed = 1;
nodes = (
"229 -8 OFFCURVE",
"249 -3 OFFCURVE",
"269 5 CURVE SMOOTH",
"288 13 OFFCURVE",
"304 24 OFFCURVE",
"317 38 CURVE",
"304 60 LINE",
"301 63 OFFCURVE",
"299 64 OFFCURVE",
"296 64 CURVE SMOOTH",
"294 64 OFFCURVE",
"290 63 OFFCURVE",
"286 59 CURVE SMOOTH",
"282 55 OFFCURVE",
"277 52 OFFCURVE",
"271 48 CURVE SMOOTH",
"265 44 OFFCURVE",
"257 40 OFFCURVE",
"248 36 CURVE SMOOTH",
"239 32 OFFCURVE",
"230 31 OFFCURVE",
"218 31 CURVE SMOOTH",
"208 31 OFFCURVE",
"198 33 OFFCURVE",
"190 36 CURVE SMOOTH",
"182 39 OFFCURVE",
"175 44 OFFCURVE",
"169 50 CURVE SMOOTH",
"163 56 OFFCURVE",
"158 64 OFFCURVE",
"154 74 CURVE SMOOTH",
"150 84 OFFCURVE",
"149 95 OFFCURVE",
"149 109 CURVE SMOOTH",
"149 446 LINE",
"306 446 LINE",
"306 482 LINE",
"149 482 LINE",
"149 672 LINE",
"126 672 LINE SMOOTH",
"122 672 OFFCURVE",
"120 670 OFFCURVE",
"118 668 CURVE SMOOTH",
"116 666 OFFCURVE",
"114 663 OFFCURVE",
"114 660 CURVE",
"102 482 LINE",
"17 476 LINE",
"17 458 LINE SMOOTH",
"17 454 OFFCURVE",
"18 452 OFFCURVE",
"20 450 CURVE SMOOTH",
"22 448 OFFCURVE",
"26 446 OFFCURVE",
"30 446 CURVE SMOOTH",
"101 446 LINE",
"101 106 LINE SMOOTH",
"101 67 OFFCURVE",
"110 39 OFFCURVE",
"129 20 CURVE SMOOTH",
"148 1 OFFCURVE",
"174 -8 OFFCURVE",
"208 -8 CURVE SMOOTH"
);
}
);
width = 355;
}
);
note = t;
unicode = 0074;
},
{
glyphname = u;
layers = (
{
layerId = "3F211455-7DB7-4737-9D97-BF0B219628E9";
name = Light;
paths = (
{
closed = 1;
nodes = (
"531 38 LINE",
"523 38 LINE SMOOTH",
"520 38 OFFCURVE",
"515 39 OFFCURVE",
"508 39 CURVE SMOOTH",
"501 39 OFFCURVE",
"493 40 OFFCURVE",
"484 40 CURVE",
"484 498 LINE",
"436 497 LINE",
"364 497 LINE",
"364 478 LINE SMOOTH",
"364 467 OFFCURVE",
"371 461 OFFCURVE",
"384 460 CURVE",
"389 460 LINE SMOOTH",
"391 460 OFFCURVE",
"394 459 OFFCURVE",
"397 459 CURVE SMOOTH",
"412 459 LINE SMOOTH",
"419 459 OFFCURVE",
"427 458 OFFCURVE",
"436 458 CURVE",
"436 124 LINE",
"414 95 OFFCURVE",
"388 72 OFFCURVE",
"360 55 CURVE SMOOTH",
"332 39 OFFCURVE",
"302 30 OFFCURVE",
"270 30 CURVE SMOOTH",
"226 30 OFFCURVE",
"193 44 OFFCURVE",
"172 70 CURVE SMOOTH",
"151 97 OFFCURVE",
"140 133 OFFCURVE",
"140 180 CURVE SMOOTH",
"140 498 LINE",
"92 497 LINE",
"20 497 LINE",
"20 478 LINE SMOOTH",
"20 467 OFFCURVE",
"27 461 OFFCURVE",
"40 460 CURVE",
"45 460 LINE SMOOTH",
"47 460 OFFCURVE",
"50 459 OFFCURVE",
"53 459 CURVE SMOOTH",
"68 459 LINE SMOOTH",
"75 459 OFFCURVE",
"83 458 OFFCURVE",
"92 458 CURVE",
"92 180 LINE SMOOTH",
"92 151 OFFCURVE",
"96 125 OFFCURVE",
"103 102 CURVE SMOOTH",
"110 79 OFFCURVE",
"120 59 OFFCURVE",
"134 43 CURVE SMOOTH",
"148 27 OFFCURVE",
"164 14 OFFCURVE",
"185 5 CURVE SMOOTH",
"206 -4 OFFCURVE",
"230 -8 OFFCURVE",
"258 -8 CURVE SMOOTH",
"295 -8 OFFCURVE",
"329 1 OFFCURVE",
"359 18 CURVE SMOOTH",
"389 35 OFFCURVE",
"416 58 OFFCURVE",
"439 87 CURVE",
"443 13 LINE",
"443 4 OFFCURVE",
"449 0 OFFCURVE",
"458 0 CURVE SMOOTH",
"484 0 LINE",
"556 0 LINE",
"556 20 LINE SMOOTH",
"556 31 OFFCURVE",
"549 37 OFFCURVE",
"536 38 CURVE"
);
}
);
width = 598;
}
);
note = u;
unicode = 0075;
},
{
glyphname = v;
layers = (
{
layerId = "3F211455-7DB7-4737-9D97-BF0B219628E9";
name = Light;
paths = (
{
closed = 1;
nodes = (
"516 497 LINE",
"479 497 LINE",
"379 497 LINE",
"379 478 LINE SMOOTH",
"379 467 OFFCURVE",
"386 461 OFFCURVE",
"399 460 CURVE",
"405 460 LINE SMOOTH",
"407 460 OFFCURVE",
"409 459 OFFCURVE",
"412 459 CURVE SMOOTH",
"427 459 LINE SMOOTH",
"434 459 OFFCURVE",
"442 458 OFFCURVE",
"451 458 CURVE",
"298 93 LINE SMOOTH",
"295 86 OFFCURVE",
"292 78 OFFCURVE",
"290 71 CURVE SMOOTH",
"288 64 OFFCURVE",
"287 57 OFFCURVE",
"285 50 CURVE",
"284 52 OFFCURVE",
"284 55 OFFCURVE",
"283 60 CURVE SMOOTH",
"282 65 OFFCURVE",
"281 69 OFFCURVE",
"280 71 CURVE",
"278 78 OFFCURVE",
"276 85 OFFCURVE",
"273 93 CURVE",
"120 458 LINE",
"131 458 OFFCURVE",
"142 459 OFFCURVE",
"150 459 CURVE SMOOTH",
"158 459 OFFCURVE",
"164 460 OFFCURVE",
"166 460 CURVE SMOOTH",
"172 460 LINE",
"185 461 OFFCURVE",
"192 467 OFFCURVE",
"192 478 CURVE SMOOTH",
"192 497 LINE",
"91 497 LINE",
"54 497 LINE",
"18 497 LINE",
"18 478 LINE SMOOTH",
"18 467 OFFCURVE",
"24 461 OFFCURVE",
"37 460 CURVE",
"37 460 OFFCURVE",
"48 460 OFFCURVE",
"70 459 CURVE",
"264 0 LINE",
"306 0 LINE",
"499 459 LINE",
"518 459 LINE SMOOTH",
"524 459 OFFCURVE",
"527 460 OFFCURVE",
"529 460 CURVE SMOOTH",
"534 460 LINE",
"547 461 OFFCURVE",
"554 467 OFFCURVE",
"554 478 CURVE SMOOTH",
"554 497 LINE"
);
}
);
width = 579;
}
);
note = v;
unicode = 0076;
},
{
glyphname = w;
layers = (
{
layerId = "3F211455-7DB7-4737-9D97-BF0B219628E9";
name = Light;
paths = (
{
closed = 1;
nodes = (
"772 497 LINE",
"737 497 LINE",
"640 497 LINE",
"640 478 LINE SMOOTH",
"640 467 OFFCURVE",
"647 461 OFFCURVE",
"660 460 CURVE",
"665 460 LINE SMOOTH",
"667 460 OFFCURVE",
"669 459 OFFCURVE",
"672 459 CURVE SMOOTH",
"687 459 LINE SMOOTH",
"694 459 OFFCURVE",
"702 458 OFFCURVE",
"711 458 CURVE",
"594 93 LINE",
"591 85 OFFCURVE",
"590 78 OFFCURVE",
"588 71 CURVE SMOOTH",
"586 64 OFFCURVE",
"585 57 OFFCURVE",
"584 50 CURVE",
"581 64 OFFCURVE",
"577 78 OFFCURVE",
"572 93 CURVE SMOOTH",
"440 489 LINE",
"438 496 OFFCURVE",
"433 500 OFFCURVE",
"426 500 CURVE SMOOTH",
"406 500 LINE SMOOTH",
"399 500 OFFCURVE",
"394 496 OFFCURVE",
"392 489 CURVE",
"259 93 LINE SMOOTH",
"256 85 OFFCURVE",
"254 78 OFFCURVE",
"252 71 CURVE SMOOTH",
"246 50 LINE",
"246 52 OFFCURVE",
"244 59 OFFCURVE",
"242 71 CURVE SMOOTH",
"241 78 OFFCURVE",
"239 85 OFFCURVE",
"237 93 CURVE",
"120 458 LINE",
"131 458 OFFCURVE",
"142 459 OFFCURVE",
"150 459 CURVE SMOOTH",
"158 459 OFFCURVE",
"164 460 OFFCURVE",
"166 460 CURVE SMOOTH",
"172 460 LINE",
"185 461 OFFCURVE",
"192 467 OFFCURVE",
"192 478 CURVE SMOOTH",
"192 497 LINE",
"94 498 LINE",
"57 497 LINE",
"18 497 LINE",
"18 478 LINE SMOOTH",
"18 467 OFFCURVE",
"24 461 OFFCURVE",
"37 460 CURVE",
"42 460 LINE",
"47 460 LINE SMOOTH",
"49 460 OFFCURVE",
"52 459 OFFCURVE",
"56 459 CURVE SMOOTH",
"70 459 LINE",
"224 0 LINE",
"257 0 LINE SMOOTH",
"263 0 OFFCURVE",
"267 4 OFFCURVE",
"269 11 CURVE",
"407 415 LINE",
"409 420 OFFCURVE",
"411 424 OFFCURVE",
"412 429 CURVE SMOOTH",
"415 444 LINE",
"418 429 LINE SMOOTH",
"419 424 OFFCURVE",
"421 420 OFFCURVE",
"423 415 CURVE",
"559 11 LINE",
"561 4 OFFCURVE",
"566 0 OFFCURVE",
"571 0 CURVE SMOOTH",
"606 0 LINE",
"759 459 LINE",
"778 459 LINE SMOOTH",
"784 459 OFFCURVE",
"787 460 OFFCURVE",
"789 460 CURVE SMOOTH",
"794 460 LINE",
"807 461 OFFCURVE",
"814 467 OFFCURVE",
"814 478 CURVE SMOOTH",
"814 497 LINE"
);
}
);
width = 839;
}
);
note = w;
unicode = 0077;
},
{
glyphname = x;
layers = (
{
layerId = "3F211455-7DB7-4737-9D97-BF0B219628E9";
name = Light;
paths = (
{
closed = 1;
nodes = (
"493 38 OFFCURVE",
"484 38 OFFCURVE",
"466 39 CURVE",
"312 257 LINE",
"458 459 LINE",
"478 460 OFFCURVE",
"489 460 OFFCURVE",
"489 460 CURVE",
"502 461 OFFCURVE",
"509 467 OFFCURVE",
"509 478 CURVE SMOOTH",
"509 497 LINE",
"486 497 LINE",
"442 497 LINE",
"437 497 LINE",
"361 497 LINE",
"361 478 LINE SMOOTH",
"361 467 OFFCURVE",
"368 461 OFFCURVE",
"381 460 CURVE",
"382 460 OFFCURVE",
"391 460 OFFCURVE",
"407 459 CURVE",
"291 294 LINE SMOOTH",
"287 288 OFFCURVE",
"283 282 OFFCURVE",
"282 276 CURVE",
"156 459 LINE",
"170 460 OFFCURVE",
"178 460 OFFCURVE",
"180 460 CURVE",
"193 461 OFFCURVE",
"200 467 OFFCURVE",
"200 478 CURVE SMOOTH",
"200 497 LINE",
"124 497 LINE",
"121 497 LINE",
"120 497 LINE",
"75 497 LINE",
"52 497 LINE",
"52 478 LINE SMOOTH",
"52 467 OFFCURVE",
"59 461 OFFCURVE",
"72 460 CURVE",
"72 460 OFFCURVE",
"83 460 OFFCURVE",
"103 459 CURVE",
"248 255 LINE",
"95 39 LINE",
"77 38 OFFCURVE",
"69 38 OFFCURVE",
"68 38 CURVE",
"55 37 OFFCURVE",
"48 31 OFFCURVE",
"48 20 CURVE SMOOTH",
"48 0 LINE",
"94 0 LINE",
"120 0 LINE",
"196 0 LINE",
"196 20 LINE SMOOTH",
"196 31 OFFCURVE",
"189 37 OFFCURVE",
"176 38 CURVE",
"175 38 OFFCURVE",
"165 38 OFFCURVE",
"146 39 CURVE",
"272 216 LINE",
"275 221 OFFCURVE",
"277 225 OFFCURVE",
"279 232 CURVE",
"413 39 LINE",
"396 38 OFFCURVE",
"386 38 OFFCURVE",
"385 38 CURVE",
"372 37 OFFCURVE",
"366 31 OFFCURVE",
"366 20 CURVE SMOOTH",
"366 0 LINE",
"441 0 LINE",
"468 0 LINE",
"513 0 LINE",
"513 20 LINE SMOOTH",
"513 31 OFFCURVE",
"507 37 OFFCURVE",
"494 38 CURVE"
);
}
);
width = 564;
}
);
note = x;
unicode = 0078;
},
{
glyphname = y;
layers = (
{
layerId = "3F211455-7DB7-4737-9D97-BF0B219628E9";
name = Light;
paths = (
{
closed = 1;
nodes = (
"515 497 LINE",
"478 497 LINE",
"378 497 LINE",
"378 478 LINE SMOOTH",
"378 467 OFFCURVE",
"385 461 OFFCURVE",
"398 460 CURVE",
"403 460 LINE SMOOTH",
"405 460 OFFCURVE",
"407 459 OFFCURVE",
"410 459 CURVE SMOOTH",
"425 459 LINE SMOOTH",
"432 459 OFFCURVE",
"440 458 OFFCURVE",
"449 458 CURVE",
"296 98 LINE",
"290 83 LINE SMOOTH",
"288 78 OFFCURVE",
"287 73 OFFCURVE",
"285 68 CURVE",
"284 73 OFFCURVE",
"281 78 OFFCURVE",
"280 83 CURVE",
"278 88 OFFCURVE",
"277 93 OFFCURVE",
"275 98 CURVE SMOOTH",
"120 458 LINE",
"131 458 OFFCURVE",
"141 459 OFFCURVE",
"149 459 CURVE SMOOTH",
"157 459 OFFCURVE",
"163 460 OFFCURVE",
"165 460 CURVE SMOOTH",
"171 460 LINE",
"184 461 OFFCURVE",
"191 467 OFFCURVE",
"191 478 CURVE SMOOTH",
"191 497 LINE",
"90 497 LINE",
"90 497 LINE",
"50 497 LINE",
"17 497 LINE",
"17 478 LINE SMOOTH",
"17 467 OFFCURVE",
"24 461 OFFCURVE",
"37 460 CURVE",
"37 460 OFFCURVE",
"47 460 OFFCURVE",
"67 459 CURVE",
"261 18 LINE",
"173 -176 LINE",
"207 -176 LINE SMOOTH",
"213 -176 OFFCURVE",
"218 -174 OFFCURVE",
"221 -171 CURVE SMOOTH",
"224 -168 OFFCURVE",
"227 -165 OFFCURVE",
"229 -160 CURVE SMOOTH",
"498 459 LINE",
"516 459 LINE SMOOTH",
"522 459 OFFCURVE",
"525 460 OFFCURVE",
"527 460 CURVE SMOOTH",
"532 460 LINE",
"545 461 OFFCURVE",
"552 467 OFFCURVE",
"552 478 CURVE SMOOTH",
"552 497 LINE"
);
}
);
width = 578;
}
);
note = y;
unicode = 0079;
},
{
glyphname = z;
layers = (
{
layerId = "3F211455-7DB7-4737-9D97-BF0B219628E9";
name = Light;
paths = (
{
closed = 1;
nodes = (
"412 125 LINE SMOOTH",
"398 125 OFFCURVE",
"391 117 OFFCURVE",
"390 101 CURVE",
"390 100 OFFCURVE",
"390 97 OFFCURVE",
"389 91 CURVE SMOOTH",
"388 85 OFFCURVE",
"388 78 OFFCURVE",
"387 68 CURVE SMOOTH",
"386 58 OFFCURVE",
"386 48 OFFCURVE",
"385 37 CURVE",
"112 37 LINE",
"423 458 LINE",
"428 464 OFFCURVE",
"430 470 OFFCURVE",
"430 477 CURVE SMOOTH",
"430 497 LINE",
"71 497 LINE",
"71 493 LINE",
"71 368 LINE",
"95 368 LINE SMOOTH",
"109 368 OFFCURVE",
"116 376 OFFCURVE",
"117 392 CURVE",
"117 393 OFFCURVE",
"117 397 OFFCURVE",
"118 403 CURVE SMOOTH",
"119 409 OFFCURVE",
"119 417 OFFCURVE",
"120 427 CURVE SMOOTH",
"121 437 OFFCURVE",
"121 449 OFFCURVE",
"122 460 CURVE",
"374 460 LINE",
"62 37 LINE SMOOTH",
"57 30 OFFCURVE",
"54 25 OFFCURVE",
"54 19 CURVE SMOOTH",
"54 0 LINE",
"410 0 LINE",
"418 0 LINE",
"436 0 LINE",
"436 125 LINE",
"416 125 LINE"
);
}
);
width = 499;
}
);
note = z;
unicode = 007A;
},
{
glyphname = braceleft;
layers = (
{
layerId = "3F211455-7DB7-4737-9D97-BF0B219628E9";
name = Light;
paths = (
{
closed = 1;
nodes = (
"115 204 OFFCURVE",
"114 186 OFFCURVE",
"111 169 CURVE SMOOTH",
"108 152 OFFCURVE",
"104 134 OFFCURVE",
"100 117 CURVE SMOOTH",
"96 100 OFFCURVE",
"93 83 OFFCURVE",
"90 65 CURVE SMOOTH",
"87 47 OFFCURVE",
"86 29 OFFCURVE",
"86 10 CURVE SMOOTH",
"86 -10 OFFCURVE",
"89 -29 OFFCURVE",
"95 -46 CURVE SMOOTH",
"101 -63 OFFCURVE",
"110 -78 OFFCURVE",
"122 -91 CURVE SMOOTH",
"134 -104 OFFCURVE",
"149 -114 OFFCURVE",
"167 -121 CURVE SMOOTH",
"185 -128 OFFCURVE",
"204 -132 OFFCURVE",
"226 -132 CURVE SMOOTH",
"254 -132 LINE",
"254 -111 LINE SMOOTH",
"254 -107 OFFCURVE",
"252 -105 OFFCURVE",
"249 -103 CURVE SMOOTH",
"246 -101 OFFCURVE",
"244 -100 OFFCURVE",
"241 -100 CURVE SMOOTH",
"224 -100 LINE SMOOTH",
"210 -100 OFFCURVE",
"197 -97 OFFCURVE",
"185 -92 CURVE SMOOTH",
"173 -87 OFFCURVE",
"163 -80 OFFCURVE",
"155 -71 CURVE SMOOTH",
"147 -62 OFFCURVE",
"140 -50 OFFCURVE",
"135 -37 CURVE SMOOTH",
"130 -24 OFFCURVE",
"128 -8 OFFCURVE",
"128 8 CURVE SMOOTH",
"128 27 OFFCURVE",
"129 45 OFFCURVE",
"132 63 CURVE SMOOTH",
"135 81 OFFCURVE",
"138 98 OFFCURVE",
"142 116 CURVE SMOOTH",
"146 134 OFFCURVE",
"149 151 OFFCURVE",
"152 169 CURVE SMOOTH",
"155 187 OFFCURVE",
"156 204 OFFCURVE",
"156 222 CURVE SMOOTH",
"156 234 OFFCURVE",
"154 246 OFFCURVE",
"150 256 CURVE SMOOTH",
"146 266 OFFCURVE",
"141 275 OFFCURVE",
"134 283 CURVE SMOOTH",
"127 291 OFFCURVE",
"119 297 OFFCURVE",
"110 302 CURVE SMOOTH",
"101 307 OFFCURVE",
"92 311 OFFCURVE",
"82 313 CURVE",
"92 315 OFFCURVE",
"101 319 OFFCURVE",
"110 324 CURVE SMOOTH",
"119 329 OFFCURVE",
"127 336 OFFCURVE",
"134 344 CURVE SMOOTH",
"141 352 OFFCURVE",
"146 360 OFFCURVE",
"150 370 CURVE SMOOTH",
"154 380 OFFCURVE",
"156 392 OFFCURVE",
"156 404 CURVE SMOOTH",
"156 422 OFFCURVE",
"155 439 OFFCURVE",
"152 457 CURVE SMOOTH",
"149 475 OFFCURVE",
"146 492 OFFCURVE",
"142 510 CURVE SMOOTH",
"138 528 OFFCURVE",
"135 545 OFFCURVE",
"132 563 CURVE SMOOTH",
"129 581 OFFCURVE",
"128 599 OFFCURVE",
"128 618 CURVE SMOOTH",
"128 634 OFFCURVE",
"130 650 OFFCURVE",
"135 663 CURVE SMOOTH",
"140 676 OFFCURVE",
"147 688 OFFCURVE",
"155 697 CURVE SMOOTH",
"163 706 OFFCURVE",
"173 713 OFFCURVE",
"185 718 CURVE SMOOTH",
"197 723 OFFCURVE",
"210 726 OFFCURVE",
"224 726 CURVE SMOOTH",
"241 726 LINE SMOOTH",
"244 726 OFFCURVE",
"246 727 OFFCURVE",
"249 729 CURVE SMOOTH",
"252 731 OFFCURVE",
"253 734 OFFCURVE",
"253 738 CURVE SMOOTH",
"253 758 LINE",
"226 758 LINE SMOOTH",
"204 758 OFFCURVE",
"185 755 OFFCURVE",
"167 748 CURVE SMOOTH",
"149 741 OFFCURVE",
"134 731 OFFCURVE",
"122 718 CURVE SMOOTH",
"110 705 OFFCURVE",
"101 689 OFFCURVE",
"95 672 CURVE SMOOTH",
"89 655 OFFCURVE",
"85 636 OFFCURVE",
"85 616 CURVE SMOOTH",
"85 597 OFFCURVE",
"87 580 OFFCURVE",
"90 562 CURVE SMOOTH",
"93 544 OFFCURVE",
"96 526 OFFCURVE",
"100 509 CURVE SMOOTH",
"104 492 OFFCURVE",
"108 474 OFFCURVE",
"111 457 CURVE SMOOTH",
"114 440 OFFCURVE",
"116 422 OFFCURVE",
"116 404 CURVE SMOOTH",
"116 393 OFFCURVE",
"114 383 OFFCURVE",
"110 374 CURVE SMOOTH",
"106 365 OFFCURVE",
"101 357 OFFCURVE",
"94 350 CURVE SMOOTH",
"87 343 OFFCURVE",
"80 338 OFFCURVE",
"70 334 CURVE SMOOTH",
"60 330 OFFCURVE",
"50 328 OFFCURVE",
"38 328 CURVE",
"38 298 LINE",
"50 298 OFFCURVE",
"60 296 OFFCURVE",
"70 292 CURVE SMOOTH",
"80 288 OFFCURVE",
"87 284 OFFCURVE",
"94 277 CURVE SMOOTH",
"101 270 OFFCURVE",
"106 262 OFFCURVE",
"110 253 CURVE SMOOTH",
"114 244 OFFCURVE",
"115 233 OFFCURVE",
"115 222 CURVE SMOOTH"
);
}
);
width = 279;
}
);
note = braceleft;
unicode = 007B;
},
{
glyphname = bar;
layers = (
{
layerId = "3F211455-7DB7-4737-9D97-BF0B219628E9";
name = Light;
paths = (
{
closed = 1;
nodes = (
"85 758 LINE",
"85 -176 LINE",
"122 -176 LINE",
"122 758 LINE"
);
}
);
width = 208;
}
);
note = bar;
unicode = 007C;
},
{
glyphname = braceright;
layers = (
{
layerId = "3F211455-7DB7-4737-9D97-BF0B219628E9";
name = Light;
paths = (
{
closed = 1;
nodes = (
"164 233 OFFCURVE",
"165 244 OFFCURVE",
"169 253 CURVE SMOOTH",
"173 262 OFFCURVE",
"178 270 OFFCURVE",
"185 277 CURVE SMOOTH",
"192 284 OFFCURVE",
"199 288 OFFCURVE",
"209 292 CURVE SMOOTH",
"219 296 OFFCURVE",
"229 298 OFFCURVE",
"241 298 CURVE",
"241 328 LINE",
"229 328 OFFCURVE",
"219 330 OFFCURVE",
"209 334 CURVE SMOOTH",
"199 338 OFFCURVE",
"192 343 OFFCURVE",
"185 350 CURVE SMOOTH",
"178 357 OFFCURVE",
"173 365 OFFCURVE",
"169 374 CURVE SMOOTH",
"165 383 OFFCURVE",
"164 393 OFFCURVE",
"164 404 CURVE SMOOTH",
"164 422 OFFCURVE",
"165 441 OFFCURVE",
"168 458 CURVE SMOOTH",
"171 475 OFFCURVE",
"175 493 OFFCURVE",
"179 510 CURVE SMOOTH",
"183 527 OFFCURVE",
"186 544 OFFCURVE",
"189 562 CURVE SMOOTH",
"192 580 OFFCURVE",
"194 597 OFFCURVE",
"194 616 CURVE SMOOTH",
"194 636 OFFCURVE",
"190 656 OFFCURVE",
"184 673 CURVE SMOOTH",
"178 690 OFFCURVE",
"169 705 OFFCURVE",
"157 718 CURVE SMOOTH",
"145 731 OFFCURVE",
"130 741 OFFCURVE",
"112 748 CURVE SMOOTH",
"94 755 OFFCURVE",
"75 759 OFFCURVE",
"53 759 CURVE SMOOTH",
"26 759 LINE",
"26 738 LINE SMOOTH",
"26 734 OFFCURVE",
"27 731 OFFCURVE",
"30 729 CURVE SMOOTH",
"33 727 OFFCURVE",
"35 726 OFFCURVE",
"38 726 CURVE SMOOTH",
"55 726 LINE SMOOTH",
"69 726 OFFCURVE",
"82 724 OFFCURVE",
"94 719 CURVE SMOOTH",
"106 714 OFFCURVE",
"116 706 OFFCURVE",
"124 697 CURVE SMOOTH",
"132 688 OFFCURVE",
"139 676 OFFCURVE",
"144 663 CURVE SMOOTH",
"149 650 OFFCURVE",
"152 634 OFFCURVE",
"152 618 CURVE SMOOTH",
"152 599 OFFCURVE",
"150 581 OFFCURVE",
"147 563 CURVE SMOOTH",
"144 545 OFFCURVE",
"141 528 OFFCURVE",
"137 510 CURVE SMOOTH",
"133 492 OFFCURVE",
"130 475 OFFCURVE",
"127 457 CURVE SMOOTH",
"124 439 OFFCURVE",
"123 422 OFFCURVE",
"123 404 CURVE SMOOTH",
"123 392 OFFCURVE",
"125 380 OFFCURVE",
"129 370 CURVE SMOOTH",
"133 360 OFFCURVE",
"138 352 OFFCURVE",
"145 344 CURVE SMOOTH",
"152 336 OFFCURVE",
"159 329 OFFCURVE",
"168 324 CURVE SMOOTH",
"177 319 OFFCURVE",
"186 315 OFFCURVE",
"196 313 CURVE",
"186 311 OFFCURVE",
"177 307 OFFCURVE",
"168 302 CURVE SMOOTH",
"159 297 OFFCURVE",
"152 291 OFFCURVE",
"145 283 CURVE SMOOTH",
"138 275 OFFCURVE",
"132 266 OFFCURVE",
"128 256 CURVE SMOOTH",
"124 246 OFFCURVE",
"122 234 OFFCURVE",
"122 222 CURVE SMOOTH",
"122 204 OFFCURVE",
"124 187 OFFCURVE",
"127 169 CURVE SMOOTH",
"130 151 OFFCURVE",
"133 135 OFFCURVE",
"137 117 CURVE SMOOTH",
"141 99 OFFCURVE",
"144 81 OFFCURVE",
"147 63 CURVE SMOOTH",
"150 45 OFFCURVE",
"152 27 OFFCURVE",
"152 8 CURVE SMOOTH",
"152 -8 OFFCURVE",
"149 -23 OFFCURVE",
"144 -36 CURVE SMOOTH",
"139 -49 OFFCURVE",
"132 -61 OFFCURVE",
"124 -70 CURVE SMOOTH",
"116 -79 OFFCURVE",
"106 -87 OFFCURVE",
"94 -92 CURVE SMOOTH",
"82 -97 OFFCURVE",
"68 -100 OFFCURVE",
"54 -100 CURVE SMOOTH",
"38 -100 LINE SMOOTH",
"35 -100 OFFCURVE",
"33 -100 OFFCURVE",
"30 -102 CURVE SMOOTH",
"27 -104 OFFCURVE",
"26 -107 OFFCURVE",
"26 -111 CURVE SMOOTH",
"26 -132 LINE",
"53 -132 LINE SMOOTH",
"75 -132 OFFCURVE",
"94 -128 OFFCURVE",
"112 -121 CURVE SMOOTH",
"130 -114 OFFCURVE",
"144 -104 OFFCURVE",
"156 -91 CURVE SMOOTH",
"168 -78 OFFCURVE",
"178 -63 OFFCURVE",
"184 -46 CURVE SMOOTH",
"190 -29 OFFCURVE",
"194 -9 OFFCURVE",
"194 11 CURVE SMOOTH",
"194 30 OFFCURVE",
"192 47 OFFCURVE",
"189 65 CURVE SMOOTH",
"186 83 OFFCURVE",
"182 100 OFFCURVE",
"178 117 CURVE SMOOTH",
"174 134 OFFCURVE",
"171 152 OFFCURVE",
"168 169 CURVE SMOOTH",
"165 186 OFFCURVE",
"164 204 OFFCURVE",
"164 222 CURVE SMOOTH"
);
}
);
width = 278;
}
);
note = braceright;
unicode = 007D;
},
{
glyphname = asciitilde;
layers = (
{
layerId = "3F211455-7DB7-4737-9D97-BF0B219628E9";
name = Light;
paths = (
{
closed = 1;
nodes = (
"372 284 OFFCURVE",
"356 287 OFFCURVE",
"340 293 CURVE SMOOTH",
"324 299 OFFCURVE",
"306 307 OFFCURVE",
"289 315 CURVE SMOOTH",
"272 323 OFFCURVE",
"254 331 OFFCURVE",
"236 337 CURVE SMOOTH",
"218 343 OFFCURVE",
"201 346 OFFCURVE",
"184 346 CURVE SMOOTH",
"165 346 OFFCURVE",
"148 343 OFFCURVE",
"134 336 CURVE SMOOTH",
"120 329 OFFCURVE",
"107 321 OFFCURVE",
"97 309 CURVE SMOOTH",
"87 297 OFFCURVE",
"79 284 OFFCURVE",
"74 268 CURVE SMOOTH",
"69 252 OFFCURVE",
"66 235 OFFCURVE",
"66 217 CURVE",
"104 217 LINE",
"104 230 OFFCURVE",
"107 242 OFFCURVE",
"111 253 CURVE SMOOTH",
"115 264 OFFCURVE",
"120 274 OFFCURVE",
"127 282 CURVE SMOOTH",
"134 290 OFFCURVE",
"142 296 OFFCURVE",
"152 300 CURVE SMOOTH",
"162 304 OFFCURVE",
"173 307 OFFCURVE",
"186 307 CURVE SMOOTH",
"200 307 OFFCURVE",
"216 303 OFFCURVE",
"232 297 CURVE SMOOTH",
"248 291 OFFCURVE",
"265 284 OFFCURVE",
"283 276 CURVE SMOOTH",
"301 268 OFFCURVE",
"318 260 OFFCURVE",
"336 254 CURVE SMOOTH",
"354 248 OFFCURVE",
"371 244 OFFCURVE",
"388 244 CURVE SMOOTH",
"407 244 OFFCURVE",
"423 247 OFFCURVE",
"438 254 CURVE SMOOTH",
"453 261 OFFCURVE",
"465 270 OFFCURVE",
"475 282 CURVE SMOOTH",
"485 294 OFFCURVE",
"493 306 OFFCURVE",
"498 322 CURVE SMOOTH",
"503 338 OFFCURVE",
"506 356 OFFCURVE",
"506 374 CURVE",
"467 374 LINE",
"467 361 OFFCURVE",
"465 349 OFFCURVE",
"461 338 CURVE SMOOTH",
"457 327 OFFCURVE",
"452 317 OFFCURVE",
"445 309 CURVE SMOOTH",
"438 301 OFFCURVE",
"429 294 OFFCURVE",
"419 290 CURVE SMOOTH",
"409 286 OFFCURVE",
"398 284 OFFCURVE",
"386 284 CURVE SMOOTH"
);
}
);
width = 572;
}
);
note = asciitilde;
unicode = 007E;
},
{
glyphname = exclamdown;
layers = (
{
layerId = "3F211455-7DB7-4737-9D97-BF0B219628E9";
name = Light;
paths = (
{
closed = 1;
nodes = (
"89 -176 LINE",
"136 -176 LINE",
"136 99 LINE SMOOTH",
"136 114 OFFCURVE",
"135 129 OFFCURVE",
"135 142 CURVE SMOOTH",
"135 155 OFFCURVE",
"134 168 OFFCURVE",
"134 182 CURVE SMOOTH",
"134 196 OFFCURVE",
"133 211 OFFCURVE",
"132 226 CURVE SMOOTH",
"131 241 OFFCURVE",
"129 258 OFFCURVE",
"128 277 CURVE",
"96 277 LINE",
"95 258 OFFCURVE",
"94 241 OFFCURVE",
"93 226 CURVE SMOOTH",
"92 211 OFFCURVE",
"91 196 OFFCURVE",
"91 182 CURVE SMOOTH",
"91 168 OFFCURVE",
"90 154 OFFCURVE",
"90 141 CURVE SMOOTH",
"90 128 OFFCURVE",
"89 114 OFFCURVE",
"89 99 CURVE SMOOTH"
);
},
{
closed = 1;
nodes = (
"64 446 OFFCURVE",
"69 435 OFFCURVE",
"78 426 CURVE SMOOTH",
"87 417 OFFCURVE",
"97 412 OFFCURVE",
"110 412 CURVE SMOOTH",
"116 412 OFFCURVE",
"122 414 OFFCURVE",
"128 416 CURVE SMOOTH",
"134 418 OFFCURVE",
"139 422 OFFCURVE",
"143 426 CURVE SMOOTH",
"147 430 OFFCURVE",
"151 435 OFFCURVE",
"153 441 CURVE SMOOTH",
"155 447 OFFCURVE",
"157 453 OFFCURVE",
"157 460 CURVE SMOOTH",
"157 466 OFFCURVE",
"155 472 OFFCURVE",
"153 478 CURVE SMOOTH",
"151 484 OFFCURVE",
"147 488 OFFCURVE",
"143 492 CURVE SMOOTH",
"139 496 OFFCURVE",
"134 500 OFFCURVE",
"128 502 CURVE SMOOTH",
"122 504 OFFCURVE",
"116 506 OFFCURVE",
"110 506 CURVE SMOOTH",
"97 506 OFFCURVE",
"87 501 OFFCURVE",
"78 492 CURVE SMOOTH",
"69 483 OFFCURVE",
"64 472 OFFCURVE",
"64 459 CURVE SMOOTH"
);
}
);
width = 221;
}
);
note = exclamdown;
unicode = 00A1;
},
{
glyphname = cent;
layers = (
{
layerId = "3F211455-7DB7-4737-9D97-BF0B219628E9";
name = Light;
paths = (
{
closed = 1;
nodes = (
"416 80 LINE",
"414 83 OFFCURVE",
"410 85 OFFCURVE",
"406 85 CURVE SMOOTH",
"402 85 OFFCURVE",
"397 83 OFFCURVE",
"391 77 CURVE SMOOTH",
"385 71 OFFCURVE",
"376 65 OFFCURVE",
"366 58 CURVE SMOOTH",
"356 51 OFFCURVE",
"342 46 OFFCURVE",
"326 40 CURVE SMOOTH",
"310 34 OFFCURVE",
"290 31 OFFCURVE",
"266 31 CURVE SMOOTH",
"262 31 OFFCURVE",
"257 32 OFFCURVE",
"252 32 CURVE",
"257 139 LINE",
"273 467 LINE",
"274 468 LINE",
"298 468 OFFCURVE",
"326 462 OFFCURVE",
"357 451 CURVE",
"358 438 OFFCURVE",
"359 425 OFFCURVE",
"360 413 CURVE SMOOTH",
"361 401 OFFCURVE",
"361 392 OFFCURVE",
"362 385 CURVE SMOOTH",
"363 378 OFFCURVE",
"364 374 OFFCURVE",
"364 373 CURVE",
"365 357 OFFCURVE",
"371 349 OFFCURVE",
"385 349 CURVE SMOOTH",
"409 349 LINE",
"409 474 LINE",
"385 481 LINE SMOOTH",
"369 486 OFFCURVE",
"350 491 OFFCURVE",
"328 496 CURVE SMOOTH",
"306 501 OFFCURVE",
"287 504 OFFCURVE",
"275 505 CURVE",
"278 556 LINE",
"278 558 LINE",
"281 624 LINE",
"263 624 LINE SMOOTH",
"258 624 OFFCURVE",
"256 622 OFFCURVE",
"253 619 CURVE SMOOTH",
"250 616 OFFCURVE",
"248 612 OFFCURVE",
"248 608 CURVE",
"245 539 LINE",
"243 505 LINE",
"243 504 LINE",
"218 502 OFFCURVE",
"195 496 OFFCURVE",
"174 487 CURVE SMOOTH",
"146 475 OFFCURVE",
"123 457 OFFCURVE",
"104 434 CURVE SMOOTH",
"85 411 OFFCURVE",
"70 384 OFFCURVE",
"60 353 CURVE SMOOTH",
"50 322 OFFCURVE",
"45 287 OFFCURVE",
"45 249 CURVE SMOOTH",
"45 209 OFFCURVE",
"50 173 OFFCURVE",
"61 141 CURVE SMOOTH",
"71 109 OFFCURVE",
"86 83 OFFCURVE",
"105 61 CURVE SMOOTH",
"124 39 OFFCURVE",
"146 22 OFFCURVE",
"172 11 CURVE SMOOTH",
"186 5 OFFCURVE",
"202 0 OFFCURVE",
"218 -3 CURVE",
"215 -68 LINE",
"212 -126 LINE",
"230 -126 LINE SMOOTH",
"235 -126 OFFCURVE",
"238 -125 OFFCURVE",
"241 -122 CURVE",
"243 -119 OFFCURVE",
"245 -115 OFFCURVE",
"245 -111 CURVE",
"250 -6 LINE",
"259 -6 LINE SMOOTH",
"278 -6 OFFCURVE",
"296 -5 OFFCURVE",
"313 -1 CURVE SMOOTH",
"330 3 OFFCURVE",
"345 7 OFFCURVE",
"360 13 CURVE SMOOTH",
"375 19 OFFCURVE",
"388 27 OFFCURVE",
"400 36 CURVE SMOOTH",
"412 45 OFFCURVE",
"421 54 OFFCURVE",
"429 64 CURVE"
);
},
{
closed = 1;
nodes = (
"125 106 OFFCURVE",
"114 129 OFFCURVE",
"106 156 CURVE SMOOTH",
"98 183 OFFCURVE",
"93 214 OFFCURVE",
"93 249 CURVE SMOOTH",
"93 283 OFFCURVE",
"98 313 OFFCURVE",
"106 340 CURVE SMOOTH",
"114 367 OFFCURVE",
"125 390 OFFCURVE",
"140 409 CURVE SMOOTH",
"155 428 OFFCURVE",
"174 443 OFFCURVE",
"196 453 CURVE SMOOTH",
"210 459 OFFCURVE",
"226 464 OFFCURVE",
"242 466 CURVE",
"220 37 LINE",
"211 39 OFFCURVE",
"203 41 OFFCURVE",
"195 45 CURVE SMOOTH",
"174 55 OFFCURVE",
"155 69 OFFCURVE",
"140 88 CURVE SMOOTH"
);
}
);
width = 465;
}
);
note = cent;
unicode = 00A2;
},
{
glyphname = sterling;
layers = (
{
layerId = "3F211455-7DB7-4737-9D97-BF0B219628E9";
name = Light;
paths = (
{
closed = 1;
nodes = (
"37 316 LINE",
"138 316 LINE",
"138 153 LINE SMOOTH",
"138 136 OFFCURVE",
"135 121 OFFCURVE",
"130 108 CURVE SMOOTH",
"125 95 OFFCURVE",
"118 84 OFFCURVE",
"110 74 CURVE SMOOTH",
"102 64 OFFCURVE",
"93 56 OFFCURVE",
"82 49 CURVE SMOOTH",
"71 42 OFFCURVE",
"60 36 OFFCURVE",
"49 32 CURVE",
"49 0 LINE",
"534 0 LINE SMOOTH",
"541 0 OFFCURVE",
"546 2 OFFCURVE",
"550 7 CURVE SMOOTH",
"554 12 OFFCURVE",
"556 17 OFFCURVE",
"556 22 CURVE SMOOTH",
"556 42 LINE",
"162 42 LINE SMOOTH",
"154 42 OFFCURVE",
"147 41 OFFCURVE",
"140 40 CURVE SMOOTH",
"133 39 OFFCURVE",
"125 39 OFFCURVE",
"118 38 CURVE",
"139 52 OFFCURVE",
"156 69 OFFCURVE",
"168 89 CURVE SMOOTH",
"180 109 OFFCURVE",
"186 134 OFFCURVE",
"186 164 CURVE SMOOTH",
"186 316 LINE",
"410 316 LINE SMOOTH",
"414 316 OFFCURVE",
"418 317 OFFCURVE",
"421 320 CURVE SMOOTH",
"424 323 OFFCURVE",
"426 326 OFFCURVE",
"426 330 CURVE SMOOTH",
"426 350 LINE",
"186 350 LINE",
"186 496 LINE SMOOTH",
"186 522 OFFCURVE",
"189 547 OFFCURVE",
"196 569 CURVE SMOOTH",
"203 591 OFFCURVE",
"213 609 OFFCURVE",
"226 625 CURVE SMOOTH",
"239 641 OFFCURVE",
"255 652 OFFCURVE",
"275 661 CURVE SMOOTH",
"295 670 OFFCURVE",
"318 674 OFFCURVE",
"344 674 CURVE SMOOTH",
"364 674 OFFCURVE",
"381 671 OFFCURVE",
"395 667 CURVE SMOOTH",
"409 663 OFFCURVE",
"422 657 OFFCURVE",
"432 649 CURVE SMOOTH",
"442 641 OFFCURVE",
"451 633 OFFCURVE",
"459 623 CURVE SMOOTH",
"467 613 OFFCURVE",
"473 602 OFFCURVE",
"480 592 CURVE SMOOTH",
"484 586 OFFCURVE",
"489 584 OFFCURVE",
"495 584 CURVE SMOOTH",
"499 584 OFFCURVE",
"503 584 OFFCURVE",
"506 586 CURVE",
"525 597 LINE",
"518 613 OFFCURVE",
"508 629 OFFCURVE",
"498 643 CURVE SMOOTH",
"488 657 OFFCURVE",
"475 669 OFFCURVE",
"461 680 CURVE SMOOTH",
"447 691 OFFCURVE",
"429 700 OFFCURVE",
"410 706 CURVE SMOOTH",
"391 712 OFFCURVE",
"369 715 OFFCURVE",
"344 715 CURVE SMOOTH",
"310 715 OFFCURVE",
"280 709 OFFCURVE",
"254 698 CURVE SMOOTH",
"228 687 OFFCURVE",
"206 672 OFFCURVE",
"189 652 CURVE SMOOTH",
"172 632 OFFCURVE",
"159 610 OFFCURVE",
"150 583 CURVE SMOOTH",
"141 556 OFFCURVE",
"138 527 OFFCURVE",
"138 496 CURVE SMOOTH",
"138 349 LINE",
"55 349 LINE SMOOTH",
"49 349 OFFCURVE",
"45 347 OFFCURVE",
"42 344 CURVE SMOOTH",
"39 341 OFFCURVE",
"37 337 OFFCURVE",
"37 332 CURVE SMOOTH"
);
}
);
width = 589;
}
);
note = sterling;
unicode = 00A3;
},
{
glyphname = currency;
layers = (
{
layerId = "3F211455-7DB7-4737-9D97-BF0B219628E9";
name = Light;
paths = (
{
closed = 1;
nodes = (
"94 315 OFFCURVE",
"98 294 OFFCURVE",
"105 276 CURVE SMOOTH",
"112 258 OFFCURVE",
"121 241 OFFCURVE",
"133 226 CURVE",
"56 150 LINE",
"80 125 LINE",
"158 202 LINE",
"173 190 OFFCURVE",
"190 181 OFFCURVE",
"208 174 CURVE SMOOTH",
"226 167 OFFCURVE",
"245 164 OFFCURVE",
"266 164 CURVE SMOOTH",
"287 164 OFFCURVE",
"306 167 OFFCURVE",
"324 174 CURVE SMOOTH",
"342 181 OFFCURVE",
"359 190 OFFCURVE",
"374 202 CURVE",
"452 125 LINE",
"476 150 LINE",
"400 227 LINE",
"412 242 OFFCURVE",
"421 259 OFFCURVE",
"428 277 CURVE SMOOTH",
"435 295 OFFCURVE",
"438 314 OFFCURVE",
"438 335 CURVE SMOOTH",
"438 356 OFFCURVE",
"435 376 OFFCURVE",
"428 394 CURVE SMOOTH",
"421 412 OFFCURVE",
"411 429 OFFCURVE",
"399 444 CURVE",
"476 521 LINE",
"451 546 LINE",
"374 469 LINE",
"359 481 OFFCURVE",
"342 490 OFFCURVE",
"324 497 CURVE SMOOTH",
"306 504 OFFCURVE",
"287 507 OFFCURVE",
"266 507 CURVE SMOOTH",
"245 507 OFFCURVE",
"225 504 OFFCURVE",
"207 497 CURVE SMOOTH",
"189 490 OFFCURVE",
"172 480 OFFCURVE",
"157 468 CURVE",
"80 545 LINE",
"56 520 LINE",
"132 443 LINE",
"120 428 OFFCURVE",
"111 412 OFFCURVE",
"104 394 CURVE SMOOTH",
"97 376 OFFCURVE",
"94 357 OFFCURVE",
"94 336 CURVE SMOOTH"
);
},
{
closed = 1;
nodes = (
"130 354 OFFCURVE",
"134 371 OFFCURVE",
"141 388 CURVE SMOOTH",
"148 404 OFFCURVE",
"158 419 OFFCURVE",
"170 431 CURVE SMOOTH",
"182 443 OFFCURVE",
"197 454 OFFCURVE",
"213 461 CURVE SMOOTH",
"229 468 OFFCURVE",
"247 472 OFFCURVE",
"266 472 CURVE SMOOTH",
"285 472 OFFCURVE",
"302 468 OFFCURVE",
"319 461 CURVE SMOOTH",
"335 454 OFFCURVE",
"350 444 OFFCURVE",
"362 432 CURVE SMOOTH",
"374 420 OFFCURVE",
"384 404 OFFCURVE",
"391 388 CURVE SMOOTH",
"398 372 OFFCURVE",
"402 355 OFFCURVE",
"402 336 CURVE SMOOTH",
"402 317 OFFCURVE",
"398 299 OFFCURVE",
"391 283 CURVE SMOOTH",
"384 267 OFFCURVE",
"374 252 OFFCURVE",
"362 240 CURVE SMOOTH",
"350 228 OFFCURVE",
"336 218 OFFCURVE",
"319 211 CURVE SMOOTH",
"303 204 OFFCURVE",
"285 200 OFFCURVE",
"266 200 CURVE SMOOTH",
"247 200 OFFCURVE",
"229 204 OFFCURVE",
"213 211 CURVE SMOOTH",
"197 218 OFFCURVE",
"182 228 OFFCURVE",
"170 240 CURVE SMOOTH",
"158 252 OFFCURVE",
"148 267 OFFCURVE",
"141 283 CURVE SMOOTH",
"134 299 OFFCURVE",
"130 316 OFFCURVE",
"130 335 CURVE SMOOTH"
);
}
);
width = 532;
}
);
note = currency;
unicode = 00A4;
},
{
glyphname = yen;
layers = (
{
layerId = "3F211455-7DB7-4737-9D97-BF0B219628E9";
name = Light;
paths = (
{
closed = 1;
nodes = (
"74 308 LINE",
"74 279 LINE",
"257 279 LINE",
"257 220 LINE",
"74 220 LINE",
"74 191 LINE",
"257 191 LINE",
"257 0 LINE",
"305 0 LINE",
"305 191 LINE",
"488 191 LINE",
"488 220 LINE",
"305 220 LINE",
"305 279 LINE",
"488 279 LINE",
"488 308 LINE",
"314 308 LINE",
"526 708 LINE",
"486 708 LINE SMOOTH",
"481 708 OFFCURVE",
"477 706 OFFCURVE",
"474 704 CURVE SMOOTH",
"471 702 OFFCURVE",
"469 699 OFFCURVE",
"467 695 CURVE SMOOTH",
"294 362 LINE",
"288 349 OFFCURVE",
"284 337 OFFCURVE",
"281 326 CURVE",
"279 332 OFFCURVE",
"278 338 OFFCURVE",
"276 344 CURVE SMOOTH",
"274 350 OFFCURVE",
"271 355 OFFCURVE",
"268 362 CURVE",
"96 695 LINE SMOOTH",
"92 703 OFFCURVE",
"85 708 OFFCURVE",
"76 708 CURVE SMOOTH",
"36 708 LINE",
"248 308 LINE"
);
}
);
width = 559;
}
);
note = yen;
unicode = 00A5;
},
{
glyphname = brokenbar;
layers = (
{
layerId = "3F211455-7DB7-4737-9D97-BF0B219628E9";
name = Light;
paths = (
{
closed = 1;
nodes = (
"83 758 LINE",
"83 370 LINE",
"120 370 LINE",
"120 758 LINE"
);
},
{
closed = 1;
nodes = (
"83 212 LINE",
"83 -176 LINE",
"120 -176 LINE",
"120 212 LINE"
);
}
);
width = 202;
}
);
note = brokenbar;
unicode = 00A6;
},
{
glyphname = section;
layers = (
{
layerId = "3F211455-7DB7-4737-9D97-BF0B219628E9";
name = Light;
paths = (
{
closed = 1;
nodes = (
"392 662 LINE",
"372 680 OFFCURVE",
"351 693 OFFCURVE",
"327 702 CURVE SMOOTH",
"303 711 OFFCURVE",
"276 716 OFFCURVE",
"246 716 CURVE SMOOTH",
"221 716 OFFCURVE",
"198 711 OFFCURVE",
"178 704 CURVE SMOOTH",
"158 697 OFFCURVE",
"140 687 OFFCURVE",
"126 675 CURVE SMOOTH",
"112 663 OFFCURVE",
"102 648 OFFCURVE",
"94 632 CURVE SMOOTH",
"86 616 OFFCURVE",
"82 598 OFFCURVE",
"82 580 CURVE SMOOTH",
"82 555 OFFCURVE",
"87 536 OFFCURVE",
"99 519 CURVE SMOOTH",
"111 503 OFFCURVE",
"126 487 OFFCURVE",
"144 475 CURVE",
"110 463 OFFCURVE",
"85 446 OFFCURVE",
"70 426 CURVE SMOOTH",
"55 406 OFFCURVE",
"47 383 OFFCURVE",
"47 357 CURVE SMOOTH",
"47 337 OFFCURVE",
"51 319 OFFCURVE",
"60 304 CURVE SMOOTH",
"69 289 OFFCURVE",
"80 277 OFFCURVE",
"94 265 CURVE SMOOTH",
"108 253 OFFCURVE",
"125 243 OFFCURVE",
"143 234 CURVE SMOOTH",
"161 225 OFFCURVE",
"180 217 OFFCURVE",
"199 209 CURVE SMOOTH",
"218 201 OFFCURVE",
"236 193 OFFCURVE",
"254 185 CURVE SMOOTH",
"272 177 OFFCURVE",
"289 169 OFFCURVE",
"303 159 CURVE SMOOTH",
"317 149 OFFCURVE",
"329 138 OFFCURVE",
"338 125 CURVE SMOOTH",
"347 112 OFFCURVE",
"350 97 OFFCURVE",
"350 80 CURVE SMOOTH",
"350 64 OFFCURVE",
"348 51 OFFCURVE",
"342 37 CURVE SMOOTH",
"336 23 OFFCURVE",
"328 11 OFFCURVE",
"317 1 CURVE SMOOTH",
"306 -9 OFFCURVE",
"292 -16 OFFCURVE",
"276 -22 CURVE SMOOTH",
"260 -28 OFFCURVE",
"243 -31 OFFCURVE",
"222 -31 CURVE SMOOTH",
"199 -31 OFFCURVE",
"179 -28 OFFCURVE",
"164 -23 CURVE SMOOTH",
"149 -18 OFFCURVE",
"136 -11 OFFCURVE",
"126 -5 CURVE SMOOTH",
"116 1 OFFCURVE",
"107 7 OFFCURVE",
"101 12 CURVE SMOOTH",
"95 17 OFFCURVE",
"89 20 OFFCURVE",
"85 20 CURVE SMOOTH",
"81 20 OFFCURVE",
"78 19 OFFCURVE",
"76 18 CURVE SMOOTH",
"74 17 OFFCURVE",
"73 15 OFFCURVE",
"71 12 CURVE SMOOTH",
"60 -5 LINE",
"80 -23 OFFCURVE",
"103 -38 OFFCURVE",
"128 -49 CURVE SMOOTH",
"153 -60 OFFCURVE",
"183 -66 OFFCURVE",
"218 -66 CURVE SMOOTH",
"246 -66 OFFCURVE",
"270 -62 OFFCURVE",
"292 -54 CURVE SMOOTH",
"314 -46 OFFCURVE",
"332 -35 OFFCURVE",
"347 -21 CURVE SMOOTH",
"362 -7 OFFCURVE",
"373 8 OFFCURVE",
"381 27 CURVE SMOOTH",
"389 46 OFFCURVE",
"392 66 OFFCURVE",
"392 88 CURVE SMOOTH",
"392 111 OFFCURVE",
"387 131 OFFCURVE",
"376 147 CURVE SMOOTH",
"365 163 OFFCURVE",
"350 177 OFFCURVE",
"332 190 CURVE",
"359 202 OFFCURVE",
"380 219 OFFCURVE",
"394 239 CURVE SMOOTH",
"408 259 OFFCURVE",
"415 283 OFFCURVE",
"415 311 CURVE SMOOTH",
"415 332 OFFCURVE",
"410 349 OFFCURVE",
"402 365 CURVE SMOOTH",
"394 380 OFFCURVE",
"384 394 OFFCURVE",
"370 406 CURVE SMOOTH",
"356 418 OFFCURVE",
"340 428 OFFCURVE",
"323 437 CURVE SMOOTH",
"306 446 OFFCURVE",
"288 455 OFFCURVE",
"270 463 CURVE SMOOTH",
"252 471 OFFCURVE",
"233 478 OFFCURVE",
"216 486 CURVE SMOOTH",
"199 494 OFFCURVE",
"184 503 OFFCURVE",
"170 512 CURVE SMOOTH",
"156 521 OFFCURVE",
"145 531 OFFCURVE",
"137 542 CURVE SMOOTH",
"129 553 OFFCURVE",
"124 567 OFFCURVE",
"124 582 CURVE SMOOTH",
"124 595 OFFCURVE",
"127 607 OFFCURVE",
"133 619 CURVE SMOOTH",
"139 631 OFFCURVE",
"147 641 OFFCURVE",
"158 650 CURVE SMOOTH",
"169 659 OFFCURVE",
"182 666 OFFCURVE",
"197 671 CURVE SMOOTH",
"212 676 OFFCURVE",
"228 679 OFFCURVE",
"247 679 CURVE SMOOTH",
"267 679 OFFCURVE",
"284 677 OFFCURVE",
"298 673 CURVE SMOOTH",
"312 669 OFFCURVE",
"323 664 OFFCURVE",
"333 659 CURVE SMOOTH",
"343 654 OFFCURVE",
"350 649 OFFCURVE",
"356 645 CURVE SMOOTH",
"362 641 OFFCURVE",
"366 639 OFFCURVE",
"370 639 CURVE SMOOTH",
"375 639 OFFCURVE",
"380 642 OFFCURVE",
"382 646 CURVE"
);
},
{
closed = 1;
nodes = (
"89 383 OFFCURVE",
"96 401 OFFCURVE",
"108 417 CURVE SMOOTH",
"120 433 OFFCURVE",
"141 446 OFFCURVE",
"171 459 CURVE",
"185 451 OFFCURVE",
"200 444 OFFCURVE",
"216 438 CURVE SMOOTH",
"232 432 OFFCURVE",
"246 425 OFFCURVE",
"261 418 CURVE SMOOTH",
"276 411 OFFCURVE",
"290 404 OFFCURVE",
"304 397 CURVE SMOOTH",
"318 390 OFFCURVE",
"330 381 OFFCURVE",
"340 372 CURVE SMOOTH",
"350 363 OFFCURVE",
"358 353 OFFCURVE",
"364 341 CURVE SMOOTH",
"370 329 OFFCURVE",
"373 316 OFFCURVE",
"373 301 CURVE SMOOTH",
"373 281 OFFCURVE",
"367 262 OFFCURVE",
"357 246 CURVE SMOOTH",
"347 230 OFFCURVE",
"330 217 OFFCURVE",
"306 206 CURVE",
"291 214 OFFCURVE",
"275 223 OFFCURVE",
"259 230 CURVE SMOOTH",
"243 237 OFFCURVE",
"226 244 OFFCURVE",
"210 251 CURVE SMOOTH",
"194 258 OFFCURVE",
"179 265 OFFCURVE",
"164 273 CURVE SMOOTH",
"149 281 OFFCURVE",
"137 288 OFFCURVE",
"126 297 CURVE SMOOTH",
"115 306 OFFCURVE",
"105 316 OFFCURVE",
"99 327 CURVE SMOOTH",
"93 338 OFFCURVE",
"89 349 OFFCURVE",
"89 363 CURVE SMOOTH"
);
}
);
width = 463;
}
);
note = section;
unicode = 00A7;
},
{
glyphname = dieresis;
layers = (
{
layerId = "3F211455-7DB7-4737-9D97-BF0B219628E9";
name = Light;
paths = (
{
closed = 1;
nodes = (
"150 648 OFFCURVE",
"148 653 OFFCURVE",
"146 658 CURVE SMOOTH",
"144 663 OFFCURVE",
"142 667 OFFCURVE",
"138 671 CURVE SMOOTH",
"134 675 OFFCURVE",
"129 678 OFFCURVE",
"124 680 CURVE SMOOTH",
"119 682 OFFCURVE",
"114 684 OFFCURVE",
"109 684 CURVE SMOOTH",
"104 684 OFFCURVE",
"98 682 OFFCURVE",
"93 680 CURVE SMOOTH",
"88 678 OFFCURVE",
"84 675 OFFCURVE",
"80 671 CURVE SMOOTH",
"76 667 OFFCURVE",
"73 663 OFFCURVE",
"71 658 CURVE SMOOTH",
"69 653 OFFCURVE",
"68 648 OFFCURVE",
"68 642 CURVE SMOOTH",
"68 637 OFFCURVE",
"69 632 OFFCURVE",
"71 627 CURVE SMOOTH",
"73 622 OFFCURVE",
"76 618 OFFCURVE",
"80 614 CURVE SMOOTH",
"84 610 OFFCURVE",
"88 607 OFFCURVE",
"93 605 CURVE SMOOTH",
"98 603 OFFCURVE",
"104 602 OFFCURVE",
"109 602 CURVE SMOOTH",
"114 602 OFFCURVE",
"119 603 OFFCURVE",
"124 605 CURVE SMOOTH",
"129 607 OFFCURVE",
"134 610 OFFCURVE",
"138 614 CURVE SMOOTH",
"142 618 OFFCURVE",
"145 622 OFFCURVE",
"147 627 CURVE SMOOTH",
"149 632 OFFCURVE",
"150 637 OFFCURVE",
"150 642 CURVE SMOOTH"
);
},
{
closed = 1;
nodes = (
"322 648 OFFCURVE",
"320 653 OFFCURVE",
"318 658 CURVE SMOOTH",
"316 663 OFFCURVE",
"313 667 OFFCURVE",
"309 671 CURVE SMOOTH",
"305 675 OFFCURVE",
"301 678 OFFCURVE",
"296 680 CURVE SMOOTH",
"291 682 OFFCURVE",
"285 683 OFFCURVE",
"280 683 CURVE SMOOTH",
"274 683 OFFCURVE",
"269 682 OFFCURVE",
"264 680 CURVE SMOOTH",
"259 678 OFFCURVE",
"255 675 OFFCURVE",
"251 671 CURVE SMOOTH",
"247 667 OFFCURVE",
"244 663 OFFCURVE",
"242 658 CURVE SMOOTH",
"240 653 OFFCURVE",
"239 648 OFFCURVE",
"239 642 CURVE SMOOTH",
"239 637 OFFCURVE",
"240 632 OFFCURVE",
"242 627 CURVE SMOOTH",
"244 622 OFFCURVE",
"247 618 OFFCURVE",
"251 614 CURVE SMOOTH",
"255 610 OFFCURVE",
"259 607 OFFCURVE",
"264 605 CURVE SMOOTH",
"269 603 OFFCURVE",
"274 602 OFFCURVE",
"280 602 CURVE SMOOTH",
"285 602 OFFCURVE",
"291 603 OFFCURVE",
"296 605 CURVE SMOOTH",
"301 607 OFFCURVE",
"305 610 OFFCURVE",
"309 614 CURVE SMOOTH",
"313 618 OFFCURVE",
"316 622 OFFCURVE",
"318 627 CURVE SMOOTH",
"320 632 OFFCURVE",
"322 637 OFFCURVE",
"322 642 CURVE SMOOTH"
);
}
);
width = 387;
}
);
note = dieresis;
unicode = 00A8;
},
